<svg xmlns="http://www.w3.org/2000/svg" width="84" height="84" viewBox="0 0 84 84">
  <defs>
    <style>
      .a {
        fill: blue;
      }

      .b {
        fill: red;
      }
    </style>
  </defs>
  <g>
    <rect x="-7.42714" y="-7.42714" width="98.85429" height="98.85429"/>
    <path class="a" d="M13.83735,49.01562,15.689,45.97351a32.69813,32.69813,0,0,0,16.428,4.998,32.16212,32.16212,0,0,0,16.979-4.882l-4.349-6.699,2.922-1.898,4.35,6.699a32.22148,32.22148,0,0,0,11.365-13.506A32.49221,32.49221,0,0,0,65.5128,13.71628l3.53123-.45177a34.32127,34.32127,0,0,1-2.217,18.347l-.225.533a34.30061,34.30061,0,0,1-12.443,14.898l5.171,8.546a20.1508,20.1508,0,0,1,12.154-1.214l.143.032-.652,3.487a17.44316,17.44316,0,0,0-9.126.471l-.42.142,3.579,5.633-2.946,1.913-3.646-5.616a17.43068,17.43068,0,0,0-4.477,8.38l-.034.162-3.452-.822a20.14472,20.14472,0,0,1,5.563-10.257l.329-.32-5.249-8.545a34.28786,34.28786,0,0,1-18.636,5.48A34.68255,34.68255,0,0,1,13.83735,49.01562Z"/>
  </g>
  <g>
    <circle class="b" cx="35.13914" cy="41.68474" r="1.07818"/>
    <circle class="b" cx="26.74894" cy="41.01252" r="1.07818"/>
    <circle class="b" cx="19.10465" cy="37.40217" r="1.07818"/>
    <circle class="b" cx="12.13219" cy="34.29593" r="1.07818"/>
    <circle class="b" cx="7.72257" cy="41.54046" r="1.07818"/>
    <circle class="b" cx="3.31296" cy="48.785" r="1.07818"/>
    <circle class="b" cx="5.54868" cy="54.5068" r="1.07818"/>
    <circle class="b" cx="12.79257" cy="58.90809" r="1.07818"/>
    <circle class="b" cx="20.68412" cy="61.97723" r="1.07818"/>
    <circle class="b" cx="29.02023" cy="63.46748" r="1.07818"/>
    <circle class="b" cx="37.48594" cy="63.33719" r="1.07818"/>
    <circle class="b" cx="41.69644" cy="65.56341" r="1.07818"/>
    <circle class="b" cx="39.97562" cy="73.86795" r="1.07818"/>
    <circle class="b" cx="46.90197" cy="76.67552" r="1.07818"/>
    <circle class="b" cx="55.15211" cy="78.64101" r="1.07818"/>
    <circle class="b" cx="61.43058" cy="77.50054" r="1.07818"/>
    <circle class="b" cx="68.41165" cy="72.79138" r="1.07818"/>
    <circle class="b" cx="75.53025" cy="68.20327" r="1.07818"/>
    <circle class="b" cx="79.26198" cy="63.13906" r="1.07818"/>
    <circle class="b" cx="80.82128" cy="54.8026" r="1.07818"/>
    <circle class="b" cx="81.24938" cy="47.21506" r="1.07818"/>
    <circle class="b" cx="72.96911" cy="45.38097" r="1.07818"/>
    <circle class="b" cx="72.41835" cy="40.73157" r="1.07818"/>
    <circle class="b" cx="76.02423" cy="33.07005" r="1.07818"/>
    <circle class="b" cx="78.07972" cy="24.85577" r="1.07818"/>
    <circle class="b" cx="78.50204" cy="16.39874" r="1.07818"/>
    <circle class="b" cx="77.45017" cy="7.98818" r="1.07818"/>
    <circle class="b" cx="73.19143" cy="3.54976" r="1.07818"/>
    <circle class="b" cx="64.77895" cy="4.62603" r="1.07818"/>
    <circle class="b" cx="56.36648" cy="5.70229" r="1.07818"/>
    <circle class="b" cx="56.28359" cy="13.26932" r="1.07818"/>
    <circle class="b" cx="56.47929" cy="21.72081" r="1.07818"/>
    <circle class="b" cx="53.67253" cy="29.65585" r="1.07818"/>
    <circle class="b" cx="48.35946" cy="26.18101" r="1.07818"/>
    <circle class="b" cx="41.24714" cy="30.80085" r="1.07818"/>
    <circle class="b" cx="34.13482" cy="35.4207" r="1.07818"/>
  </g>
</svg>
