<svg xmlns="http://www.w3.org/2000/svg" width="84" height="84" viewBox="0 0 84 84">
  <g fill="none" fill-rule="evenodd">
    <path fill="#000000" d="M0 0h84v84H0z"/>
    <g fill-rule="nonzero" transform="rotate(-33 72.573 20.395)">
      <path fill="#000000" stroke="#FF0000" stroke-width="1px" stroke-linejoin="round" d="M9.549 3.991c2.658 6.508 6.396 11.438 11.248 14.684 3.513 2.35 7.598 3.81 12.232 4.392h0v-7.732h9.485v7.732c4.632-.582 8.715-2.038 12.222-4.378 4.347-2.9 7.794-7.143 10.358-12.646h0l.078-.17.816-1.782 8.484 4.082a37.348 37.348 0 0 1-14.509 18.488 37.305 37.305 0 0 1-17.297 6.071l-.152.013v4.75a23.155 23.155 0 0 1 10.648 6.63l.087.097.091.102 1.148 1.295-6.726 7.067a14.451 14.451 0 0 0-5.196-4.897l-.052-.029v5.366H33.03V47.76A14.44 14.44 0 0 0 29.033 51h0l-.044.05-1.302 1.537-6.59-6.924A23.159 23.159 0 0 1 32.91 37.53l.12-.036v-4.75a37.302 37.302 0 0 1-17.179-5.903l-.153-.1-.16-.106A37.335 37.335 0 0 1 1.794 10.032h0l-.088-.209L1 8.105 9.549 3.99z"/>
      <path fill="#0000FF" d="M8.074 8.03c2.798 5.7 6.494 10.087 11.055 13.139 4.715 3.155 10.357 4.884 16.9 5.153v-7.987h3.485v7.987c6.54-.269 12.179-1.996 16.887-5.137 4.622-3.084 8.347-7.529 11.138-13.299l-.112.226 3.21 1.545a34.335 34.335 0 0 1-11.853 14.18l-.479.324a34.304 34.304 0 0 1-18.55 5.718l-.318 9.983c4.117.7 7.907 2.661 10.855 5.602l.102.104-2.445 2.57a17.44 17.44 0 0 0-7.91-4.576l-.43-.109-.066 6.673H36.03V43.43a17.435 17.435 0 0 0-8.318 4.59l-.117.117-2.447-2.57A20.153 20.153 0 0 1 35.4 39.995l.45-.088.252-10.026a34.301 34.301 0 0 1-18.615-5.554c-5.638-3.752-10-8.81-12.703-14.936l.082.181L8.074 8.03z"/>
    </g>
  </g>
</svg>
