<svg xmlns="http://www.w3.org/2000/svg" width="84" height="84" viewBox="0 0 84 84">
  <defs>
    <style>
      .a {
        fill: blue;
      }

      .b {
        fill: red;
      }
    </style>
  </defs>
  <g>
    <rect x="-5.83577" y="-5.03538" width="94.87845" height="94.87845"/>
    <path class="a" d="M13.85293,46.1717a32.69813,32.69813,0,0,0,16.428,4.998,32.16212,32.16212,0,0,0,16.979-4.882l-4.349-6.699,2.922-1.898,4.35,6.699a32.22156,32.22156,0,0,0,11.365-13.506,32.59841,32.59841,0,0,0,2.098-17.219l.029.25,3.533-.452a34.32126,34.32126,0,0,1-2.217,18.347l-.225.533a34.30061,34.30061,0,0,1-12.443,14.898l5.171,8.546a20.15072,20.15072,0,0,1,12.154-1.214l.143.032-.652,3.487a17.44316,17.44316,0,0,0-9.126.471l-.42.142,3.579,5.633-2.946,1.913-3.646-5.616a17.43068,17.43068,0,0,0-4.477,8.38l-.034.162-3.452-.822a20.14476,20.14476,0,0,1,5.563-10.257l.329-.32-5.249-8.545a34.28777,34.28777,0,0,1-18.636,5.48,34.66969,34.66969,0,0,1-18.789-5.607l.167.107Z"/>
  </g>
  <g>
    <circle class="b" cx="35.35055" cy="36.13999" r="0.96091"/>
    <circle class="b" cx="35.20444" cy="40.59386" r="0.96091"/>
    <circle class="b" cx="33.96639" cy="43.91086" r="0.96091"/>
    <circle class="b" cx="27.78406" cy="43.97672" r="0.96091"/>
    <circle class="b" cx="21.81235" cy="42.35706" r="0.96091"/>
    <circle class="b" cx="16.33523" cy="39.46239" r="0.96091"/>
    <circle class="b" cx="11.30801" cy="37.04556" r="0.96091"/>
    <circle class="b" cx="8.08409" cy="42.34628" r="0.96091"/>
    <circle class="b" cx="4.86016" cy="47.64699" r="0.96091"/>
    <circle class="b" cx="4.46068" cy="52.41187" r="0.96091"/>
    <circle class="b" cx="9.55725" cy="55.94195" r="0.96091"/>
    <circle class="b" cx="15.11125" cy="58.69372" r="0.96091"/>
    <circle class="b" cx="21.01406" cy="60.58475" r="0.96091"/>
    <circle class="b" cx="27.13317" cy="61.57248" r="0.96091"/>
    <circle class="b" cx="33.33122" cy="61.63575" r="0.96091"/>
    <circle class="b" cx="39.46908" cy="60.77229" r="0.96091"/>
    <circle class="b" cx="44.14645" cy="60.10474" r="0.96091"/>
    <circle class="b" cx="41.98596" cy="65.90621" r="0.96091"/>
    <circle class="b" cx="40.94924" cy="72.02048" r="0.96091"/>
    <circle class="b" cx="45.11015" cy="74.72451" r="0.96091"/>
    <circle class="b" cx="51.14507" cy="76.16358" r="0.96091"/>
    <circle class="b" cx="57.18" cy="77.60264" r="0.96091"/>
    <circle class="b" cx="60.55983" cy="74.39322" r="0.96091"/>
    <circle class="b" cx="65.24773" cy="71.3483" r="0.96091"/>
    <circle class="b" cx="70.45107" cy="67.96947" r="0.96091"/>
    <circle class="b" cx="74.75764" cy="66.18704" r="0.96091"/>
    <circle class="b" cx="75.89734" cy="60.08849" r="0.96091"/>
    <circle class="b" cx="77.03704" cy="53.98993" r="0.96091"/>
    <circle class="b" cx="76.25896" cy="49.08896" r="0.96091"/>
    <circle class="b" cx="70.25156" cy="47.54943" r="0.96091"/>
    <circle class="b" cx="64.07288" cy="47.16373" r="0.96091"/>
    <circle class="b" cx="66.585" cy="43.16215" r="0.96091"/>
    <circle class="b" cx="69.87008" cy="37.90599" r="0.96091"/>
    <circle class="b" cx="72.33299" cy="32.21795" r="0.96091"/>
    <circle class="b" cx="73.91926" cy="26.22605" r="0.96091"/>
    <circle class="b" cx="74.59233" cy="20.06438" r="0.96091"/>
    <circle class="b" cx="74.33721" cy="13.87131" r="0.96091"/>
    <circle class="b" cx="73.18501" cy="7.7796" r="0.96091"/>
    <circle class="b" cx="68.66952" cy="6.2067" r="0.96091"/>
    <circle class="b" cx="62.51582" cy="6.99618" r="0.96091"/>
    <circle class="b" cx="56.36212" cy="7.78565" r="0.96091"/>
    <circle class="b" cx="56.5255" cy="13.36125" r="0.96091"/>
    <circle class="b" cx="56.94244" cy="19.5422" r="0.96091"/>
    <circle class="b" cx="55.99343" cy="25.65645" r="0.96091"/>
    <circle class="b" cx="53.41894" cy="31.27761" r="0.96091"/>
    <circle class="b" cx="49.88514" cy="31.05964" r="0.96091"/>
    <circle class="b" cx="45.75682" cy="29.38175" r="0.96091"/>
    <circle class="b" cx="40.55378" cy="32.76104" r="0.96091"/>
  </g>
</svg>
