<svg height="3288" viewBox="0 0 3288 3288" width="3288" xmlns="http://www.w3.org/2000/svg" xmlns:xlink="http://www.w3.org/1999/xlink"><filter id="a" height="115%" width="110.9%" x="-5.5%" y="-7.5%"><feGaussianBlur in="SourceGraphic" stdDeviation="8"/></filter><filter id="b" height="115.3%" width="119.9%" x="-9.9%" y="-7.6%"><feGaussianBlur in="SourceGraphic" stdDeviation="8"/></filter><filter id="c" height="113.8%" width="113.6%" x="-6.8%" y="-6.9%"><feGaussianBlur in="SourceGraphic" stdDeviation="8"/></filter><filter id="d" height="112.2%" width="113.4%" x="-6.7%" y="-6.1%"><feGaussianBlur in="SourceGraphic" stdDeviation="8"/></filter><filter id="e" height="115.1%" width="114%" x="-7%" y="-7.6%"><feGaussianBlur in="SourceGraphic" stdDeviation="8"/></filter><filter id="f" height="117.8%" width="111.6%" x="-5.8%" y="-8.9%"><feGaussianBlur in="SourceGraphic" stdDeviation="8"/></filter><g fill="#00f" fill-rule="evenodd"><path d="m210.625 307.427c9.71-8.397 17.037-21.462 21.976-37.463l.245-.803.24-.807a139.017 139.017 0 0 0 1.604-5.927l.36-1.487.314-1.349.299-1.344.144-.67.279-1.333.133-.663.131-.66.25-1.313.294-1.62.27-1.594.103-.63.098-.625.186-1.233.088-.608.165-1.199.077-.59.073-.582.135-1.144.12-1.115.056-.545.05-.537.092-1.048.04-.51.036-.502.06-.974.025-.471.038-.913.023-.87.006-.418.002-.406v-60.371l-105.575-106.453 28.525-28.726 97.198 97.928 97.24-97.968 28.196 28.8-105.286 106.413.001 60.376.002.385.006.397.023.826c.01.283.023.573.038.87l.025.45.061.932.036.48.04.49.091 1.005.051.516.055.524.12 1.072.136 1.103c.048.373.098.75.15 1.132l.08.575.172 1.17.186 1.194.099.605.207 1.225.11.62.112.623.235 1.26.25 1.275.13.642.134.645.277 1.298.29 1.306.151.656.312 1.316a142.89 142.89 0 0 0 1.53 5.805l.421 1.443.198.653c5.173 16.97 13.023 30.791 23.51 39.419a48.376 48.376 0 0 0 41.14 9.618l.819-.191.798-.14a44.488 44.488 0 0 0 31.124-22.586l.261-.49.48-.873c12.172-22.447 11.188-56.988-3.222-95.268l-.441-1.16-27.696-75.727 126.894 106.402-26.25 31.06-20.086-16.882.073.921a136.306 136.306 0 0 1 -13.008 69.055l-.441.911-.484.98-.432.8c-12.486 22.812-34.7 38.706-60.311 43.136a126.97 126.97 0 0 1 -19.588 1.945 84.18 84.18 0 0 1 -55.84-19.674l-.644-.547a109.573 109.573 0 0 1 -22.023-26.697l-.579-.996-.576.978a109.778 109.778 0 0 1 -20.738 25.235l-.794.71-.696.61c-15.508 13.239-35.288 20.394-55.584 20.152l-2.02-.033a127.23 127.23 0 0 1 -18.103-1.678 85.153 85.153 0 0 1 -60.106-43.158l-.372-.692-.1-.194a135.576 135.576 0 0 1 -13.893-69.898l.071-.972.072-.898-20.154 16.875-26.231-31.037 68.373-57.556 58.442-48.669-27.585 75.425-.49 1.291c-14.482 38.477-15.305 72.674-2.65 95.553l.458.811.322.607a44.488 44.488 0 0 0 31.12 22.592l.806.14.818.192a48.376 48.376 0 0 0 40.684-9.252l.406-.326.426-.364z" fill-rule="nonzero" filter="url(#a)" transform="matrix(.39073113 .92050485 -.92050485 .39073113 3090.918088 2699.982172)"/><path d="m64.424 241.983a107.023 107.023 0 0 1 -34.204-61.707l-.133-.795-.11-.677-.249-1.346c-8.698-48.806 16.076-97.415 60.52-119.108l1.352-.649 1.298-.6 1.25-.607c45.177-21.51 99.194-10.124 131.844 27.793l.983 1.157 5.061 6.041-30.836 26.635-5.213-6.255c-20.728-24.871-55.662-32.463-84.804-18.548l-.882.429-1 .482c-28.521 13.972-44.264 45.239-38.5 76.472l.221 1.15.135.903a66.966 66.966 0 0 0 21.07 39.198l.532.48.645.587a72.555 72.555 0 0 0 38.154 17.924l.748.104.865.111.4-.018a104.51 104.51 0 0 0 81.395-45.91l.553-.828.613-.938 48.832-70.956-16.63 123.23-4.628 34.808h26.04l-.402 40.421h-31.267l-6.327 48.753-40.167-5.422 5.682-43.33-41.285-.001v-40.3h47.029l2.74-20.88-.937.587a143.475 143.475 0 0 1 -69.747 21.4l-1.006.038-1.382.04-.413-.032a111.761 111.761 0 0 1 -66.792-28.888l-.506-.466-.543-.481z" fill-rule="nonzero" filter="url(#b)" transform="matrix(.98480775 -.17364818 .17364818 .98480775 87.812234 2299.806429)"/><path d="m216.112 28c19.891 0 38.72 6.22 54.277 17.113a94.518 94.518 0 0 1 34.646 45.151c4.771 14.772 6.736 30.01 5.89 45.214l-.062 1.036v35.993l55.647-46.912 26.241 31.05-81.888 69.105v151.298h-40.663v-117.025l-54.072 45.606-54.466-45.67v117.09h-40.3v-151.299l-81.888-69.105 26.242-31.05 55.646 46.912v-35.99a123.668 123.668 0 0 1 5.734-45.976c6.898-18.968 19.183-34.534 34.74-45.428a94.518 94.518 0 0 1 54.276-17.113zm0 40.957a54.023 54.023 0 0 0 -31 9.766 54.022 54.022 0 0 0 -19.72 25.539 87.232 87.232 0 0 0 -3.366 31.688v70.823l54.086 45.619 54.087-45.62v-70.818l.069-.97a87.864 87.864 0 0 0 -3.428-30.7 54.016 54.016 0 0 0 -19.728-25.561 54.023 54.023 0 0 0 -31-9.766z" filter="url(#c)" transform="matrix(.62932039 -.77714596 .77714596 .62932039 1075.991827 1958.499778)"/><path d="m215.64 267.049 17.204 26.407a295.737 295.737 0 0 0 64.528 73.666 317.013 317.013 0 0 0 86.357 48.871l1.463.543 8.957 3.274-13.773 38.126a355.247 355.247 0 0 1 -108.972-59.168 330.64 330.64 0 0 1 -55.768-58.186 330.218 330.218 0 0 1 -55.687 58.127 355.426 355.426 0 0 1 -99.014 55.186l-1.51.545-8.986 3.193-13.844-38.322a316.998 316.998 0 0 0 97.406-52.628 295.75 295.75 0 0 0 62.807-70.638l.794-1.256.845-1.351 17.192-26.39zm119.171-203.399v199.81h-238.344v-199.81l95.128 87.201-27.472 29.878-26.992-24.71v66.776h157.016v-66.777l-26.991 24.711-27.472-29.878 95.128-87.2z" filter="url(#d)" transform="matrix(.98480775 .17364818 -.17364818 .98480775 2297.157462 1089.418065)"/><g fill-rule="nonzero"><path d="m336.947 28c21.176 0 42.003 6.297 57.803 17.911 17.666 12.986 28.091 31.764 28.802 54.318a64.619 64.619 0 0 1 -17.72 46.821l-.593.617-.713.658c-18.27 16.698-42.131 25.949-66.815 25.927l-.764-.004h-11.527l151.025 66.218h-204.744l-.222-.004a56.881 56.881 0 0 0 -38.918 13.945l-.319.282-.167.168a22.618 22.618 0 0 0 -6.365 16.119l.012.45.05 1.115c.592 11.596 6.36 19.866 16.489 25.542 8.334 4.67 19.25 7.186 28.778 7.298l.662.004h143.594v40.3h-143.594c-21.176 0-42.003-6.298-57.803-17.911-17.49-12.856-27.882-31.39-28.777-53.614l-.046-1.311a64.133 64.133 0 0 1 17.76-46.237l.582-.601.699-.647c18.26-16.724 42.135-25.98 66.822-25.932l.763.005h11.78l-151.025-66.704h204.49l.87.016a57.124 57.124 0 0 0 38.28-13.966l.32-.282.16-.161a22.132 22.132 0 0 0 6.255-16.055l-.017-.437-.036-.591-.02-.673c-.46-11.313-6.142-19.417-16.261-25.025-8.356-4.63-19.345-7.14-28.872-7.255l-.678-.004h-143.594v-40.3z" filter="url(#e)" transform="matrix(.96592583 -.25881905 .25881905 .96592583 478.993351 720.311712)"/><path d="m72.875 37.357 3.47 7.199c29.913 62.05 78.055 96.374 144.057 102.626l2.09.188-.001-46.226h40.3v46.226l2.059-.185c64.615-6.111 112.157-39.107 142-98.4l.9-1.806.943-1.936 3.47-7.2 36.413 17.509-3.12 7.082c-31.713 71.967-100.524 120.095-178.3 125.74l-2.36.157-2.005.111v40.967l1.259.311a128.286 128.286 0 0 1 59.885 34.3l.657.67.613.636 5.288 5.518-28.07 29.472-5.793-6.073a92.48 92.48 0 0 0 -32.727-22.094l-.806-.317-.306-.116v35.819h-40.3v-35.819l-.306.116a92.481 92.481 0 0 0 -32.33 21.173l-.624.636-.58.602-5.793 6.073-28.07-29.472 5.289-5.518a128.286 128.286 0 0 1 61.167-35.609l1.247-.308v-40.965l-2.029-.113c-77.337-4.744-146.114-51.483-178.895-121.986l-.982-2.144-1.01-2.272-3.094-7.072z" filter="url(#f)" transform="matrix(.83867057 .54463904 -.54463904 .83867057 1807.064228 -1.340595)"/></g></g></svg>