<svg xmlns="http://www.w3.org/2000/svg" width="84" height="84" viewBox="0 0 84 84">
  <defs>
    <style>
      .a {
        fill: red;
      }

      .b {
        fill: blue;
      }
    </style>
  </defs>
  <g>
    <rect x="-24.66034" y="-24.66034" width="133.32067" height="133.32067"/>
    <circle class="a" cx="15.71428" cy="29.52396" r="1.07818"/>
    <circle class="a" cx="7.51013" cy="24.62194" r="1.07818"/>
    <circle class="a" cx="1.43889" cy="28.33432" r="1.07818"/>
    <circle class="a" cx="1.45793" cy="63.418" r="1.07818"/>
    <circle class="a" cx="10.11757" cy="67.42728" r="1.07818"/>
    <circle class="a" cx="19.37632" cy="69.73987" r="1.07818"/>
    <circle class="a" cx="27.46531" cy="71.51538" r="1.07818"/>
    <circle class="a" cx="26.7601" cy="80.09754" r="1.07818"/>
    <circle class="a" cx="36.05724" cy="82.3114" r="1.07818"/>
    <circle class="a" cx="45.35434" cy="84.52544" r="1.07818"/>
    <circle class="a" cx="66.976" cy="78.3346" r="1.07818"/>
    <circle class="a" cx="75.56857" cy="76.2805" r="1.07818"/>
    <circle class="a" cx="79.77613" cy="70.57731" r="1.07818"/>
    <circle class="a" cx="81.53267" cy="61.18303" r="1.07818"/>
    <circle class="a" cx="83.29131" cy="51.78913" r="1.07818"/>
    <circle class="a" cx="85.05174" cy="42.39558" r="1.07818"/>
    <circle class="a" cx="77.07412" cy="39.42794" r="1.07818"/>
    <circle class="a" cx="78.6009" cy="31.42181" r="1.07818"/>
    <circle class="a" cx="80.26968" cy="22.02588" r="1.07818"/>
    <circle class="a" cx="80.14931" cy="12.48368" r="1.07818"/>
    <circle class="a" cx="78.75023" cy="3.03021" r="1.07818"/>
    <circle class="a" cx="42.23222" cy="2.06787" r="1.07818"/>
    <circle class="a" cx="43.37291" cy="11.55665" r="1.07818"/>
    <circle class="a" cx="39.86763" cy="18.88734" r="1.07818"/>
    <circle class="a" cx="31.85292" cy="24.09334" r="1.07818"/>
    <circle class="a" cx="23.8382" cy="29.29934" r="1.07818"/>
  </g>
  <path class="b" d="M8.41981,48.43517l1.85168-3.04212a32.69813,32.69813,0,0,0,16.428,4.998,32.16212,32.16212,0,0,0,16.979-4.882l-4.349-6.699,2.922-1.898,4.35,6.699a32.22156,32.22156,0,0,0,11.365-13.506,32.49207,32.49207,0,0,0,2.12876-16.96922l3.53124-.45178a34.3213,34.3213,0,0,1-2.217,18.347l-.225.533a34.30061,34.30061,0,0,1-12.443,14.898l5.171,8.546a20.15072,20.15072,0,0,1,12.154-1.214l.143.032-.652,3.487a17.44316,17.44316,0,0,0-9.126.471l-.42.142,3.579,5.633-2.946,1.913-3.646-5.616a17.43068,17.43068,0,0,0-4.477,8.38l-.034.162-3.452-.822a20.14476,20.14476,0,0,1,5.563-10.257l.329-.32-5.249-8.545a34.28777,34.28777,0,0,1-18.636,5.48A34.68251,34.68251,0,0,1,8.41981,48.43517Z"/>
</svg>
