<svg xmlns="http://www.w3.org/2000/svg" width="84" height="84" viewBox="0 0 84 84">
  <defs>
    <style>
      .a {
        fill: blue;
      }

      .b {
        fill: red;
      }
    </style>
  </defs>
  <g>
    <rect x="-8.07745" y="-8.07745" width="100.15491" height="100.15491"/>
    <path class="a" d="M50.21191,67.208a19.08909,19.08909,0,0,1,5.06739-8.80274l.89648-.873L49.97266,47.43457l-.8584.55469A33.22485,33.22485,0,0,1,31.061,53.30859a33.58261,33.58261,0,0,1-17.29542-4.82226l.82813-1.36133a33.38916,33.38916,0,0,0,16.06982,4.64062l.40479.00293A33.39357,33.39357,0,0,0,48.166,46.74414l.89648-.53125L44.69043,39.479l1.24512-.80908,4.37207,6.73535.85058-.60351A33.31649,33.31649,0,0,0,62.86328,30.87549a33.18493,33.18493,0,0,0,2.30957-16.49707L66.75,14.17627A33.32717,33.32717,0,0,1,64.46387,31.023l-.22266.52637A33.22524,33.22524,0,0,1,52.165,46.00488l-.7959.53125,6.11719,10.11035.80078-.3457a19.13275,19.13275,0,0,1,10.73437-1.30762l-.28515,1.52735a18.44832,18.44832,0,0,0-8.63867.68847l-1.63868.54786,3.73438,5.877-1.27734.8291-3.78614-5.833-.873.90723a18.41673,18.41673,0,0,0-4.53321,8.03125Z"/>
  </g>
  <g>
    <circle class="b" cx="31.72555" cy="38.07479" r="1.07818"/>
    <circle class="b" cx="31.58741" cy="41.65165" r="1.07818"/>
    <circle class="b" cx="25.30939" cy="40.80687" r="1.07818"/>
    <circle class="b" cx="19.4884" cy="38.27861" r="1.07818"/>
    <circle class="b" cx="14.02488" cy="35.02147" r="1.07818"/>
    <circle class="b" cx="9.59023" cy="35.90141" r="1.07818"/>
    <circle class="b" cx="6.28302" cy="41.33481" r="1.07818"/>
    <circle class="b" cx="2.97581" cy="46.76822" r="1.07818"/>
    <circle class="b" cx="0.54708" cy="52.00032" r="1.07818"/>
    <circle class="b" cx="5.89015" cy="55.45156" r="1.07818"/>
    <circle class="b" cx="11.35302" cy="58.70244" r="1.07818"/>
    <circle class="b" cx="17.21745" cy="61.15077" r="1.07818"/>
    <circle class="b" cx="23.37713" cy="62.715" r="1.07818"/>
    <circle class="b" cx="29.69697" cy="63.38836" r="1.07818"/>
    <circle class="b" cx="36.04639" cy="63.13154" r="1.07818"/>
    <circle class="b" cx="40.81371" cy="63.3124" r="1.07818"/>
    <circle class="b" cx="39.39148" cy="69.50895" r="1.07818"/>
    <circle class="b" cx="39.27465" cy="74.99642" r="1.07818"/>
    <circle class="b" cx="45.46242" cy="76.46987" r="1.07818"/>
    <circle class="b" cx="51.6501" cy="77.94366" r="1.07818"/>
    <circle class="b" cx="57.83748" cy="79.41876" r="1.07818"/>
    <circle class="b" cx="61.63737" cy="76.04986" r="1.07818"/>
    <circle class="b" cx="66.9721" cy="72.58573" r="1.07818"/>
    <circle class="b" cx="72.30683" cy="69.1216" r="1.07818"/>
    <circle class="b" cx="77.04304" cy="67.10169" r="1.07818"/>
    <circle class="b" cx="78.21212" cy="60.84927" r="1.07818"/>
    <circle class="b" cx="79.38173" cy="54.59695" r="1.07818"/>
    <circle class="b" cx="80.5534" cy="48.34501" r="1.07818"/>
    <circle class="b" cx="75.67056" cy="46.08829" r="1.07818"/>
    <circle class="b" cx="69.43627" cy="44.84102" r="1.07818"/>
    <circle class="b" cx="70.9788" cy="40.52592" r="1.07818"/>
    <circle class="b" cx="73.82394" cy="34.84327" r="1.07818"/>
    <circle class="b" cx="75.81322" cy="28.80751" r="1.07818"/>
    <circle class="b" cx="76.90056" cy="22.54612" r="1.07818"/>
    <circle class="b" cx="77.06249" cy="16.19309" r="1.07818"/>
    <circle class="b" cx="76.33259" cy="9.8782" r="1.07818"/>
    <circle class="b" cx="75.36668" cy="3.59119" r="1.07818"/>
    <circle class="b" cx="69.64875" cy="3.61318" r="1.07818"/>
    <circle class="b" cx="63.3394" cy="4.42038" r="1.07818"/>
    <circle class="b" cx="57.03004" cy="5.22757" r="1.07818"/>
    <circle class="b" cx="54.33791" cy="8.85346" r="1.07818"/>
    <circle class="b" cx="55.09221" cy="15.16933" r="1.07818"/>
    <circle class="b" cx="55.03974" cy="21.51516" r="1.07818"/>
    <circle class="b" cx="53.2521" cy="27.59212" r="1.07818"/>
    <circle class="b" cx="49.92627" cy="26.25242" r="1.07818"/>
    <circle class="b" cx="45.14183" cy="27.13032" r="1.07818"/>
    <circle class="b" cx="39.80759" cy="30.5952" r="1.07818"/>
    <circle class="b" cx="34.47335" cy="34.06009" r="1.07818"/>
  </g>
</svg>
