<svg xmlns="http://www.w3.org/2000/svg" width="84" height="84" viewBox="0 0 84 84">
  <defs>
    <style>
      .a {
        fill: blue;
      }

      .b {
        fill: none;
        stroke: red;
        stroke-miterlimit: 10;
      }
    </style>
  </defs>
  <rect x="-8.07745" y="-8.07745" width="100.15491" height="100.15491"/>
  <path class="a" d="M50.21191,67.208a19.08909,19.08909,0,0,1,5.06739-8.80274l.89648-.873L49.97266,47.43457l-.8584.55469A33.22485,33.22485,0,0,1,31.061,53.30859a33.58261,33.58261,0,0,1-17.29542-4.82226l.82813-1.36133a33.38916,33.38916,0,0,0,16.06982,4.64062l.40479.00293A33.39357,33.39357,0,0,0,48.166,46.74414l.89648-.53125L44.69043,39.479l1.24512-.80908,4.37207,6.73535.85058-.60351A33.31649,33.31649,0,0,0,62.86328,30.87549a33.18493,33.18493,0,0,0,2.30957-16.49707L66.75,14.17627A33.32717,33.32717,0,0,1,64.46387,31.023l-.22266.52637A33.22524,33.22524,0,0,1,52.165,46.00488l-.7959.53125,6.11719,10.11035.80078-.3457a19.13275,19.13275,0,0,1,10.73437-1.30762l-.28515,1.52735a18.44832,18.44832,0,0,0-8.63867.68847l-1.63868.54786,3.73438,5.877-1.27734.8291-3.78614-5.833-.873.90723a18.41673,18.41673,0,0,0-4.53321,8.03125Z"/>
  <path class="b" d="M41.646,72.3623l1.78955-6.90918a26.12826,26.12826,0,0,1,4.03418-8.63476A40.20116,40.20116,0,0,1,31.061,60.30859,40.59921,40.59921,0,0,1,10.1377,54.47266L4.14111,50.83887l8-13.15088,5.90479,3.34717A26.516,26.516,0,0,0,30.75928,44.7666l.35986.002a23.66055,23.66055,0,0,0,7.772-1.36718l-3.88232-5.97949,12.98535-8.4375,3.88379,5.98339a23.82519,23.82519,0,0,0,4.55566-6.86035,26.30264,26.30264,0,0,0,1.77149-13.0542l-.6543-6.75537L72.833,6.33936l.86426,6.97705a40.41475,40.41475,0,0,1-2.76563,20.38476l-.24316.5752A40.3269,40.3269,0,0,1,60.64941,48.25684a26.21912,26.21912,0,0,1,9.52051-.16895l7.043,1.17188L74.36719,64.499l-3.70313-.58593,1.15528,1.81738-12.96387,8.415-1.16406-1.79395L56.72852,75.957Z"/>
  <path class="a" d="M50.21191,67.208a19.08909,19.08909,0,0,1,5.06739-8.80274l.89648-.873L49.97266,47.43457l-.8584.55469A33.22485,33.22485,0,0,1,31.061,53.30859a33.58261,33.58261,0,0,1-17.29542-4.82226l.82813-1.36133a33.38916,33.38916,0,0,0,16.06982,4.64062l.40479.00293A33.39357,33.39357,0,0,0,48.166,46.74414l.89648-.53125L44.69043,39.479l1.24512-.80908,4.37207,6.73535.85058-.60351A33.31649,33.31649,0,0,0,62.86328,30.87549a33.18493,33.18493,0,0,0,2.30957-16.49707L66.75,14.17627A33.32717,33.32717,0,0,1,64.46387,31.023l-.22266.52637A33.22524,33.22524,0,0,1,52.165,46.00488l-.7959.53125,6.11719,10.11035.80078-.3457a19.13275,19.13275,0,0,1,10.73437-1.30762l-.28515,1.52735a18.44832,18.44832,0,0,0-8.63867.68847l-1.63868.54786,3.73438,5.877-1.27734.8291-3.78614-5.833-.873.90723a18.41673,18.41673,0,0,0-4.53321,8.03125Z"/>
</svg>
