<svg xmlns="http://www.w3.org/2000/svg" width="100" height="100" viewBox="0 0 100 100">
  <g fill="none" fill-rule="evenodd">
    <path fill="#000000" d="M0 0h100v100H0z"/>
    <path fill="#FF0000" d="M41.565 35.364l.19 1.165c.03.184.733 4.596.733 12.043 0 .868-.046 1.753-.126 2.64a32.45 32.45 0 0 1-.127 1.175A46.32 46.32 0 0 0 50 53.04a46.32 46.32 0 0 0 7.765-.652 30.4 30.4 0 0 1-.127-1.176 29.43 29.43 0 0 1-.126-2.639c0-7.285.673-11.665.73-12.025l.003-.018.19-1.165H86l-.994 2c-2.695 5.419-7.408 10.015-13.603 13.319a42.59 42.59 0 0 1-9.315 3.61c-.386.1-.773.195-1.16.285.075.395.155.796.241 1.2a63.545 63.545 0 0 0 2.046 7.316l.08.231-2.61 1.01a66.126 66.126 0 0 1-2.26-8.03c-.084-.397-.162-.79-.235-1.177a49.074 49.074 0 0 1-8.19.685 49.074 49.074 0 0 1-8.19-.685c-.073.387-.151.78-.235 1.177a66.076 66.076 0 0 1-2.177 7.795l-.083.236-2.608-1.01c.531-1.53 1.446-4.367 2.122-7.548.086-.405.166-.806.24-1.201a45.05 45.05 0 0 1-1.159-.285 42.589 42.589 0 0 1-9.313-3.61c-5.995-3.196-10.603-7.604-13.335-12.796l-.267-.522-.995-2h27.565zm-2.448 2.7h-20.49l.307.479c2.514 3.802 6.252 7.098 10.968 9.614a39.52 39.52 0 0 0 8.097 3.21c.483.133.967.257 1.452.372a26.821 26.821 0 0 0 .208-3.251c0-5.069-.34-8.705-.542-10.423zm42.257 0H60.883l-.022.192c-.204 1.787-.52 5.344-.52 10.232a26.772 26.772 0 0 0 .207 3.251c.485-.115.97-.24 1.453-.373a39.525 39.525 0 0 0 8.097-3.209c4.913-2.621 8.764-6.088 11.276-10.092z"/>
  </g>
</svg>
