<?xml version="1.0" encoding="utf-8"?>
<!-- Generator: Adobe Illustrator 25.0.0, SVG Export Plug-In . SVG Version: 6.00 Build 0)  -->
<svg version="1.1" id="Layer_1" xmlns="http://www.w3.org/2000/svg" xmlns:xlink="http://www.w3.org/1999/xlink" x="0px" y="0px"
	 width="3288px" height="3288px" viewBox="0 0 3288 3288" style="enable-background:new 0 0 3288 3288;" xml:space="preserve">
<style type="text/css">
	.st0{filter:url(#gaussianblur12);}
	.st1{fill:#0000FF;}
	.st2{fill-rule:evenodd;clip-rule:evenodd;fill:#0000FF;filter:url(#gaussianblur12);}
	.st3{fill-rule:evenodd;clip-rule:evenodd;fill:#0000FF;}
</style>
<filter  id="gaussianblur12">
	<feGaussianBlur  in="SourceGraphic" stdDeviation="12"></feGaussianBlur>
</filter>
<g class="st0">
	<path class="st1" d="M1153.5,2037.5l170.6,86.7l109.7,56.4l-132.9,6.7l-3.1,0.1c-99.5,4.1-175.7,35.7-214.5,85.4l-1.2,1.6l-0.9,1.1
		c-21.9,27.5-30.2,63.4-22.4,97.8l0.3,1.5l0.3,1.5c6.7,37.1,29.9,69.4,63.1,87.5l1.3,0.7l1.4,0.7c28.5,14,65.2,18.4,106.4,14.2
		l2-0.2l2-0.3c4.8-0.6,9.8-1.3,14.6-2l3.6-0.6l3.2-0.6l3.2-0.6l1.6-0.3l3.1-0.6l1.6-0.3l1.6-0.3l3.1-0.7l3.8-0.8l3.7-0.9l1.5-0.3
		l1.4-0.3l2.9-0.8l1.4-0.4l2.8-0.8l1.4-0.4l1.4-0.4l2.6-0.8l2.6-0.8l1.3-0.4l1.3-0.4l2.4-0.8l1.2-0.4l1.2-0.4l2.3-0.8l3.2-1.2
		l2.1-0.8l134.6-57.1l127.1-311.3l60.7,24.3l-119.6,293.3l294.1,117.7l-25,60l-312-124.3l-132.9,56.4l-3.6,1.6
		c-0.7,0.3-1.4,0.7-2.2,1l-3.1,1.5l-4.2,2.2l-1.2,0.6l-1.1,0.6l-2.3,1.3l-2.3,1.4c-0.8,0.4-1.6,0.9-2.4,1.4l-1.2,0.7l-2.4,1.4
		l-2.5,1.5l-1.3,0.8l-2.5,1.6l-1.3,0.9l-1.3,0.8l-2.6,1.7l-2.5,1.7l-1.3,0.8l-1.3,0.9l-2.5,1.8l-2.6,1.9l-1.4,0.9l-2.6,1.9
		c-3.8,2.9-7.6,5.8-11.4,8.8l-2.7,2.2l-1.3,1c-33.6,28.1-57,59.6-66.6,91.7c-10.6,36.9-3.7,76.5,18.7,107.6l0.9,1.3l0.9,1.3
		c19.3,29.4,50.9,48.5,85.9,51.8l1.2,0.1l2.2,0.3c61.3,5.9,137.5-27.6,209.2-96l2-2l97.4-91.2l-91.8,301.2l-62.8-19.5l23.2-75.9
		l-31,16.2c-46.4,24-98.3,35.3-150.5,32.9l-2.2-0.1l-2.2-0.1l-1.8-0.2c-55.2-5.5-105-36-135-82.6c-7.9-12.1-14.8-24.7-20.7-37.8
		c-17.8-39.6-20.7-84.4-8-126l0.5-1.7c7.9-23.9,19.6-46.3,34.6-66.5l15.6-20.9l-25.8-3.4c-23.5-3.2-46.4-10-67.9-20.1l-2.1-1
		l-1.8-0.9c-38.8-19.5-69.4-52.3-85.8-92.3l-1.7-4.2c-4.9-12.3-9-25-12.1-37.9c-12.5-54,0.3-110.6,34.6-153.9l0.9-1.2
		c34.9-40.9,79.6-71.1,129.4-88.1l2-0.7l33.1-11.1l-70.1-36L1153.5,2037.5z"/>
</g>
<g class="st0">
	<path class="st1" d="M103.9,1657.5c44.2-31.5,96.2-46.2,147.7-44.5s102.4,19.9,144.5,54.3l2.6,2.1l3.4,2.9l-41.6,51.2l-3.6-3
		c-30.8-26-68.3-39.9-106.4-41.5c-38.2-1.5-76.8,9.3-109.5,32.6l-1.9,1.4l-2.1,1.5c-32,23.3-54.2,55.8-65,91.8s-10.1,75.4,3.7,112.5
		l0.8,2.3l0.6,1.8c12.3,36.2,36.6,67.1,68.9,87.6l1.4,0.8l1.7,1.1c30.3,19,65.4,28.6,101.2,27.5l1.9-0.1l3.3-0.2
		c79.3-17.8,144.7-71.4,177.2-144.6l0.9-2.2l0.9-2.3l58.1-127.2l9.3,227.7l4.1,96.3l60.6-10.7l10.7,64.4l-69.1,12.2l5.1,111
		l-65.4,2.6l-4.5-102.3l-95.2,16.7l-11.3-64l104.6-18.4l-4-89.6l-23.5,21.2c-40.5,36.2-89.7,61.4-142.8,73l-2.2,0.5l-2.3,0.5
		c-54.6,5.2-108.4-7.7-153.9-36.6l-1.4-0.9l-1.5-0.9c-44.5-27.6-78.5-69.5-96.1-118.8l-0.6-1.7l-0.6-1.6l-1.1-3.1
		c-18.4-50.5-19-104.1-4.2-152.9c14.9-48.9,45.2-93.1,88.7-124.6l2.7-2l2.7-1.9L103.9,1657.5L103.9,1657.5z"/>
</g>
<path class="st2" d="M2639.1,1006.8l4.8,238.4l264.1,213.9l-41.4,51.1l-221-179l3.7,180.4l-177.7,34.6l221.1,179l-40.9,50.5
	l-264.1-213.9l-234.3,44.8l-12.3-64.6l179.6-34.5l-87.6-70.9c-27.9-19.7-51.8-44.5-70.5-73.1c-22.2-37.1-31.5-78.5-28.7-119.2
	s17.9-80.6,44.8-113.8c26.9-33.2,62.7-56.3,102-67.5c39.2-11.2,81.8-10.7,122.1,3.1c30.8,11.9,58.6,29,82.8,50.5l1.7,1.5l2,1.9
	l87.6,70.9l-3.7-182.8L2639.1,1006.8z M2381.7,1128.6c-27.2-9.3-55.9-9.5-82.3-2c-26.6,7.7-50.8,23.2-69.1,45.7
	s-28.5,49.5-30.3,77.1c-2,27.4,4.3,55.3,19.5,80.8c14.5,21.1,32.5,39.4,53.3,54.1l1.4,0.9l130.9,106l177.1-33.9l-3.7-180.4
	l-130.9-106l-1.3-1.2l-1.6-1.5C2426.4,1151.8,2405.4,1138.4,2381.7,1128.6L2381.7,1128.6z"/>
<g class="st0">
	<path class="st3" d="M1180.3,1244.9c-67.1-39.5-127.5-89.3-179.2-147.8C951,1038.8,910.8,972.5,882.4,901l-20-47l-35,37.3L825,894
		l-2.3,2.6C772.6,951.4,714,997.8,649,1034.1c-72.3,39.2-150.6,66-231.8,79.6l11.3,64.9l8.1-1.4l3.6-0.6
		c84.3-14.8,165.8-43.1,241.5-83.8c58.5-32.7,112.3-73.2,159.9-120.3c2.7,5.6,5.4,11.2,8.2,16.8c27.3,54.1,61.1,104.8,100.9,151
		c59.2,67.1,129.3,123.8,207.2,167.8l32.7-57.1l-7.1-4.1L1180.3,1244.9z"/>
	<polygon class="st3" points="1198.3,445 986.5,580.1 1021.8,635.4 1107.5,580.8 1073.1,776.2 691,708.8 725.4,513.4 787.3,594 
		839.4,554.1 686.6,354.8 614.7,762.3 1126.4,852.5 	"/>
</g>
<g class="st0">
	<path class="st1" d="M3010.3,2658.6c43.9-11.8,90.8-10.5,130.1,4.9c42.8,16.7,74.2,49.2,87.9,94.5c10.6,34.7,6.9,72-10.3,103.8
		l-0.8,1.4l-0.9,1.5c-28.6,45-73.1,77.5-124.5,91.2l-1.7,0.4l-89,23.8l373.8,57.3l-389.8,104.5c-35.6,8.6-66.3,29.8-86.4,59.8
		c-10,17.8-11.9,35.8-7.1,52.4l1.1,3.7c9.8,30.2,30.6,48.2,61.5,56.1c23.4,5.9,51.6,5,74.9-0.9l1.5-0.4l304.8-81.7l16.8,62.8
		l-304.7,81.7c-43.9,11.8-90.8,10.5-130.1-4.9c-42.4-16.6-73.5-48.5-87.5-93.1l-0.9-2.8c-10.3-34.3-6.4-71.1,10.7-102.4l0.8-1.3
		l0.9-1.5c28.6-45,73.1-77.6,124.4-91.3l1.7-0.4l89.1-23.9l-374.2-58.4l389.8-104.5l1.9-0.4c34.5-8.7,64.6-29.8,84.6-59.3
		c10.1-17.8,11.8-35.8,6.9-52.4l-0.8-2.3l-0.4-1.4c-9.3-29.7-29.8-47.5-60.7-55.2c-23.4-5.9-51.8-4.8-75.1,1.1l-1.6,0.4l-304.8,81.7
		l-16.8-62.8L3010.3,2658.6z"/>
</g>
<g class="st0">
	<path class="st1" d="M1610.4-133.3l65.1,8.3l-0.6,4.6c-20.7,162.1,30.9,292.6,153.9,390.1l15.6,12.3l58.6-90l54.5,35.4l-58.5,90.1
		l17.5,9.3c136.4,71.3,273.6,67.1,409.6-12.4l4.1-2.4l4.3-2.6l3.9-2.4l34.1,56.1l-3.7,2.5c-73.2,47.9-156.5,73.6-240.5,76.9
		c-84.3,3.2-169.3-16.1-245.6-58.1l-4.7-2.6l-15.2-8.8l-64.2,98.9l9.3,10c34.8,37.6,58.7,84.1,68.9,134.2l0.4,2l0.3,2l0.8,4.2
		l-64,15.3l-0.8-4.8c-6-32-18.9-62.3-37.7-88.9L1763,528l-48.7,73.7l-54.6-35.4l47.8-73.6c-38-11.3-76.9-12.8-114.4-4.6l-2.1,0.4
		l-2,0.4l-4.7,1.1l-12.1-64.7l4.2-1c51.2-12.1,104.8-9.4,154.6,7.5l12.9,4.5l64.2-98.9l-14.3-10.5c-69.4-51.4-122.1-119.9-154.4-197
		c-32.2-77-44-162.6-31.8-248.4l0.8-5.3l0.8-5.5L1610.4-133.3z"/>
</g>
<g class="st0">
	<path class="st1" d="M3391.9,1657.5c44.2-31.5,96.2-46.2,147.7-44.5s102.4,19.9,144.5,54.3l2.6,2.1l3.4,2.9l-41.7,51.2l-3.6-3
		c-30.8-26-68.3-39.9-106.4-41.5c-38.2-1.5-76.8,9.3-109.5,32.6l-1.9,1.4l-2.1,1.5c-32,23.3-54.2,55.8-65,91.8s-10.1,75.4,3.7,112.5
		l0.8,2.3l0.6,1.8c12.3,36.2,36.6,67.1,68.9,87.6l1.4,0.8l1.7,1.1c30.3,19,65.5,28.6,101.2,27.5l1.9-0.1l3.3-0.2
		c79.3-17.8,144.7-71.4,177.2-144.6l0.9-2.2l0.9-2.3l58.1-127.2l9.3,227.7l4.1,96.3l60.6-10.7l10.7,64.4l-69.1,12.2l5.1,111
		l-65.4,2.6l-4.5-102.3l-95.2,16.7l-11.3-64l104.6-18.4l-4-89.6l-23.5,21.2c-40.5,36.2-89.7,61.4-142.8,73l-2.2,0.5l-2.3,0.5
		c-54.6,5.2-108.4-7.7-153.9-36.6l-1.4-0.9l-1.5-0.9c-44.5-27.6-78.5-69.5-96.1-118.8l-0.6-1.7l-0.6-1.6l-1.1-3.1
		c-18.4-50.5-19-104.1-4.2-152.9c14.9-48.9,45.2-93.1,88.7-124.6l2.7-2l2.7-1.9L3391.9,1657.5L3391.9,1657.5z"/>
</g>
<g class="st0">
	<path class="st1" d="M3010.3-629.4c43.9-11.8,90.8-10.5,130.1,4.9c42.8,16.7,74.2,49.2,87.9,94.5c10.6,34.7,6.9,72-10.3,103.8
		l-0.8,1.4l-0.9,1.5c-28.6,45-73.1,77.5-124.5,91.2l-1.7,0.4l-89,23.8l373.8,57.3l-389.8,104.5c-35.6,8.6-66.3,29.8-86.4,59.8
		c-10,17.8-11.9,35.8-7.1,52.4l1.1,3.7c9.8,30.2,30.6,48.2,61.5,56.1c23.4,6,51.6,5,74.9-0.9l1.5-0.4l304.8-81.7l16.8,62.8
		l-304.7,81.7c-43.9,11.8-90.8,10.5-130.1-4.9c-42.4-16.6-73.5-48.5-87.5-93.1l-0.9-2.8c-10.3-34.3-6.4-71.1,10.7-102.4l0.8-1.3
		l0.9-1.5c28.6-45,73.1-77.6,124.4-91.3l1.7-0.4l89.1-23.9l-374.2-58.4l389.8-104.5l1.9-0.4c34.5-8.7,64.6-29.8,84.6-59.3
		c10.1-17.8,11.8-35.8,6.9-52.4l-0.8-2.3l-0.4-1.4c-9.3-29.7-29.8-47.5-60.7-55.2c-23.4-5.9-51.8-4.8-75.1,1.1l-1.6,0.4l-304.8,81.7
		l-16.8-62.8L3010.3-629.4z"/>
</g>
<g class="st0">
	<path class="st1" d="M-277.7-629.4c43.9-11.8,90.8-10.5,130.1,4.9c42.8,16.7,74.2,49.2,87.9,94.5c10.6,34.7,6.9,72-10.3,103.8
		l-0.8,1.4l-0.9,1.5c-28.6,45-73.1,77.5-124.5,91.2l-1.7,0.4l-89,23.8l373.8,57.3l-389.8,104.5c-35.6,8.6-66.3,29.8-86.4,59.8
		c-10,17.8-11.9,35.8-7.1,52.4l1.1,3.7c9.8,30.2,30.6,48.2,61.5,56.1c23.4,6,51.6,5,74.9-0.9l1.5-0.4L47.4-57.1L64.2,5.8
		l-304.7,81.7c-43.9,11.8-90.8,10.5-130.1-4.9C-413,66-444.1,34.1-458.1-10.5l-0.9-2.8c-10.3-34.3-6.4-71.1,10.7-102.4l0.8-1.3
		l0.9-1.5c28.6-45,73.1-77.6,124.4-91.3l1.7-0.4l89.1-23.9l-374.2-58.4L-215.8-397l1.9-0.4c34.5-8.7,64.6-29.8,84.6-59.3
		c10.1-17.8,11.8-35.8,6.9-52.4l-0.8-2.3l-0.4-1.4c-9.3-29.7-29.8-47.5-60.7-55.2c-23.4-5.9-51.8-4.8-75.1,1.1l-1.6,0.4l-304.8,81.7
		l-16.8-62.8L-277.7-629.4z"/>
</g>
<g class="st0">
	<path class="st1" d="M1610.4,3154.7l65.1,8.3l-0.6,4.6c-20.7,162.1,30.9,292.6,153.9,390.1l15.6,12.3l58.5-90.1l54.5,35.4
		l-58.5,90.1l17.5,9.3c136.4,71.3,273.6,67.1,409.6-12.4l4.1-2.4l4.3-2.6l3.9-2.4l34.1,56.1l-3.7,2.5
		c-73.2,47.9-156.5,73.6-240.5,76.9c-84.3,3.2-169.3-16.1-245.6-58.1l-4.7-2.6l-15.2-8.8l-64.2,98.9l9.3,10
		c34.8,37.6,58.7,84.1,68.9,134.2l0.4,2l0.3,2l0.8,4.2l-64,15.3l-0.8-4.8c-6-32-18.9-62.3-37.7-88.9l-12.8-17.9l-48.7,73.7
		l-54.6-35.4l47.8-73.6c-38-11.3-76.9-12.8-114.4-4.6l-2.1,0.4l-2,0.4l-4.7,1.1l-12.1-64.7l4.2-1c51.2-12.1,104.8-9.4,154.6,7.5
		l12.9,4.5l64.2-98.9l-14.3-10.5c-69.4-51.4-122.1-119.9-154.4-197c-32.2-77-44-162.6-31.8-248.4l0.8-5.3l0.8-5.5L1610.4,3154.7z"/>
</g>
<g class="st0">
	<path class="st1" d="M-277.7,2658.6c43.9-11.8,90.8-10.5,130.1,4.9c42.8,16.7,74.2,49.2,87.9,94.5c10.6,34.7,6.9,72-10.3,103.8
		l-0.8,1.4l-0.9,1.5c-28.6,45-73.1,77.5-124.5,91.2l-1.7,0.4l-89,23.8l373.8,57.3l-389.8,104.5c-35.6,8.6-66.3,29.8-86.4,59.8
		c-10,17.8-11.9,35.8-7.1,52.4l1.1,3.7c9.8,30.2,30.6,48.2,61.5,56.1c23.4,5.9,51.6,5,74.9-0.9l1.5-0.4l304.8-81.7l16.8,62.8
		l-304.7,81.7c-43.9,11.8-90.8,10.5-130.1-4.9c-42.4-16.6-73.5-48.5-87.5-93.1l-0.9-2.8c-10.3-34.3-6.4-71.1,10.7-102.4l0.8-1.3
		l0.9-1.5c28.6-45,73.1-77.6,124.4-91.3l1.7-0.4l89.1-23.9l-374.2-58.4l389.8-104.5l1.9-0.4c34.5-8.7,64.6-29.8,84.6-59.3
		c10.1-17.8,11.8-35.8,6.9-52.4l-0.8-2.3l-0.4-1.4c-9.3-29.7-29.8-47.5-60.7-55.2c-23.4-5.9-51.8-4.8-75.1,1.1l-1.6,0.4l-304.8,81.7
		l-16.8-62.8L-277.7,2658.6z"/>
</g>
</svg>
