<svg xmlns="http://www.w3.org/2000/svg" xmlns:xlink="http://www.w3.org/1999/xlink" width="3288" height="3288" viewBox="0 0 3288 3288">
  <defs>
    <path id="mask-a" d="M0 0h3288v3288H0z"/>
    <filter id="mask-b">
      <feColorMatrix in="SourceGraphic" values="0 0 0 0 0.000000 0 0 0 0 0.000000 0 0 0 0 1.000000 0 0 0 1.000000 0"/>
    </filter>
    <filter id="mask-d" width="111.4%" height="115.8%" x="-5.7%" y="-7.9%" filterUnits="objectBoundingBox">
      <feGaussianBlur in="SourceGraphic" stdDeviation="10.8"/>
    </filter>
    <filter id="mask-e" width="120.9%" height="115.9%" x="-10.5%" y="-8%" filterUnits="objectBoundingBox">
      <feGaussianBlur in="SourceGraphic" stdDeviation="10.8"/>
    </filter>
    <filter id="mask-f" width="114.3%" height="114.2%" x="-7.1%" y="-7.1%" filterUnits="objectBoundingBox">
      <feGaussianBlur in="SourceGraphic" stdDeviation="10.8"/>
    </filter>
    <filter id="mask-g" width="114%" height="112.9%" x="-7%" y="-6.4%" filterUnits="objectBoundingBox">
      <feGaussianBlur in="SourceGraphic" stdDeviation="10.8"/>
    </filter>
    <filter id="mask-h" width="116.7%" height="115.7%" x="-8.4%" y="-7.8%" filterUnits="objectBoundingBox">
      <feGaussianBlur in="SourceGraphic" stdDeviation="10.8"/>
    </filter>
    <filter id="mask-i" width="112.1%" height="118.7%" x="-6.1%" y="-9.4%" filterUnits="objectBoundingBox">
      <feGaussianBlur in="SourceGraphic" stdDeviation="10.8"/>
    </filter>
  </defs>
  <g fill="none" fill-rule="evenodd">
    <mask id="mask-c" fill="white">
      <use xlink:href="#mask-a"/>
    </mask>
    <g filter="url(#mask-b)">
      <g mask="url(#mask-c)">
        <path fill="#0000FF" fill-rule="nonzero" d="M-3 303.984l86.143-72.451 55.794-46.423-26.905 73.502-.648 1.708c-20.661 54.837-21.054 103.344-3.075 135.789l.583 1.036.403.757a68.207 68.207 0 0 0 47.764 34.64l.89.156.91.213a73.513 73.513 0 0 0 61.836-14.049l.664-.532.689-.587c14.118-12.188 24.966-31.05 32.157-54.337l.342-1.12.336-1.125a195.636 195.636 0 0 0 2.27-8.378l.5-2.065.44-1.894.418-1.876.206-.956.387-1.852.19-.938.185-.934.35-1.835.41-2.267.38-2.225.145-.898.14-.887.26-1.718.126-.874.23-1.673.11-.842.105-.834.19-1.614.171-1.575.08-.788.074-.78.128-1.482.059-.749.053-.739.09-1.42.091-2.016.036-1.357.01-86.046L123.399 89.297l27.117-27.283L281.833 194.2 413.166 62l26.76 27.308-138.976 140.34.001 84.905.044 2.315c.017.458.037.93.062 1.413l.125 1.997.238 2.814.077.776.08.76.17 1.52.191 1.55c.069.536.14 1.08.216 1.631l.114.814.242 1.643.26 1.673.142.87.29 1.705.154.879.16.885.33 1.76.348 1.78.184.909.19.913.387 1.812.407 1.823.215.938.431 1.82a200.84 200.84 0 0 0 2.164 8.205l.587 2.002.279.925c7.526 24.674 19.144 44.597 34.37 57.113a73.539 73.539 0 0 0 62.55 14.62l.91-.212.88-.153a68.207 68.207 0 0 0 47.767-34.63l.34-.636.635-1.155c17.282-31.822 16.664-80.802-3.887-135.338l-.582-1.532-26.984-73.714L567 303.98l-24.994 29.547-35.758-30.031 1.61 20.5a175.755 175.755 0 0 1-16.795 89.08l-.575 1.189-.573 1.16-.502.927c-15.685 28.618-43.579 48.558-75.743 54.117a163.706 163.706 0 0 1-25.248 2.509 105.681 105.681 0 0 1-70.044-24.648l-.795-.675a139.833 139.833 0 0 1-28.059-33.996l-7.727-13.297-7.804 13.223a140.111 140.111 0 0 1-26.461 32.17l-1.031.92-.871.763c-19.447 16.57-44.239 25.528-69.679 25.228l-2.692-.042a163.89 163.89 0 0 1-23.292-2.16c-32.082-5.636-59.826-25.57-75.39-54.12l-.434-.804c-14.092-28.307-20.175-59.416-18.018-90.307l.094-1.27 1.64-20.448-35.872 30.008L-3 303.983z" filter="url(#mask-d)" transform="rotate(67 -411.907 1917.438)"/>
        <path fill="#0000FF" fill-rule="nonzero" d="M197.685 102.767c28.833-13.734 60.484-16.965 90.136-10.707 29.654 6.257 57.309 22.002 78.15 46.22l1.29 1.52 1.69 2.02-29.345 25.37-1.759-2.113c-15.166-18.216-35.526-30.108-57.425-34.902-21.935-4.802-45.415-2.484-66.77 7.73l-1.2.585-1.363.657c-20.889 10.237-37.097 26.816-47.027 46.56-9.93 19.745-13.58 42.655-9.352 65.55l.273 1.416.16 1.076a98.608 98.608 0 0 0 31.007 57.744l.718.648.868.791a105.978 105.978 0 0 0 55.79 26.234l1.076.151 1.919.247c47.776-2.163 91.093-26.566 117.446-65.663l.78-1.169.796-1.22 46.62-67.808-17.91 132.84-7.466 56.21 36.213-.002-.382 38.398-41.297.001L372.914 496l-38.151-5.156 7.82-59.693H285.73v-38.235h62.48l6.857-52.304-15.808 9.9a185.413 185.413 0 0 1-90.17 27.694l-1.311.049-1.4.04c-32.137-2.561-62.013-15.54-85.433-36.934l-.724-.666-.775-.69a136.52 136.52 0 0 1-43.566-78.671l-.173-1.033-.158-.98-.349-1.885c-5.542-31.158-.42-62.253 13.17-89.026 13.606-26.803 35.697-49.276 64.071-63.144l1.75-.841 1.768-.82 1.726-.838z" filter="url(#mask-e)" transform="rotate(-10 12795.337 1388.5)"/>
        <path fill="#0000FF" d="M497 210.603L389.79 301.09V501H351.1V333.693l-81.095 68.41-81.598-68.432V501H150.21V301.09L43 210.604l24.967-29.547L150.21 250.4v-66.272a158.801 158.801 0 0 1 7.33-59.252c8.738-23.89 24.232-43.503 43.845-57.238A119.472 119.472 0 0 1 270 46c25.145 0 48.948 7.865 68.615 21.638a119.483 119.483 0 0 1 43.762 56.997c5.943 18.475 8.473 37.517 7.58 56.53l-.07 1.359-.097 1.624V250.4l82.243-69.344L497 210.603zm-150.935-72.531a81.008 81.008 0 0 0-29.582-38.336A80.997 80.997 0 0 0 270 85.091a80.997 80.997 0 0 0-46.483 14.645c-13.23 9.256-23.704 22.454-29.738 38.802a125.877 125.877 0 0 0-4.953 44.381l.073 1.002V283L270 351.415 351.1 283v-99.078l.075-1.045.08-1.319c.802-14.503-.9-29.056-5.19-43.486z" filter="url(#mask-f)" transform="rotate(-51 2514.906 -1476.312)"/>
        <path fill="#0000FF" d="M295.332 291.215l16.389 25.17a407.577 407.577 0 0 0 88.843 101.457 436.22 436.22 0 0 0 118.9 67.344l2.003.744 4.533 1.658L512.853 524a471.477 471.477 0 0 1-137.18-76.023 438.485 438.485 0 0 1-73.857-77.122 463.953 463.953 0 0 1-6.493-8.913 437.865 437.865 0 0 1-80.316 86.022c-39.685 31.333-83.977 56.012-131.318 73.21l-2.013.725-4.522 1.608L64 487.074a436.05 436.05 0 0 0 126.137-69.754 407.728 407.728 0 0 0 86.61-97.44l1.089-1.724 1.111-1.778 16.385-25.163zM142.522 20l108.889 99.871-26.13 28.435-44.055-40.355v116.734h228.212V107.95l-44.055 40.355-26.13-28.435L448.141 20v243.41H142.523V20z" filter="url(#mask-g)" transform="rotate(10 -2562.834 3677.834)"/>
        <path fill="#0000FF" fill-rule="nonzero" d="M318.458 68c26.787 0 53.17 7.898 73.17 22.624 21.79 16.044 34.675 39.236 35.552 67.11.765 21.309-7.05 41.982-21.663 57.404l-.614.64-.77.712c-23.14 21.18-53.36 32.917-84.622 32.893l-1.034-.005h-54.174L468 338.842H230.566c-21.559-.568-42.21 6.88-58.212 20.827-8.427 8.586-12.22 18.52-12.019 28.739l.09 2.244c.936 18.651 10.06 32.059 26.367 41.213 12.366 6.942 28.558 10.732 42.7 10.894l.94.006H416.04V481H230.457c-26.787 0-53.17-7.898-73.17-22.624-21.564-15.878-34.41-38.754-35.52-66.21l-.06-1.728a78.616 78.616 0 0 1 21.695-56.585l.613-.634.764-.708c23.124-21.21 53.357-32.952 84.616-32.895l1.038.006 54.27.003L81 209.5h237.382l1.112.021a85.054 85.054 0 0 0 57.069-20.852c8.435-8.559 12.184-18.524 11.869-28.74l-.072-1.397-.027-.865c-.729-18.277-9.711-31.513-26.096-40.609-12.385-6.875-28.665-10.653-42.792-10.818l-.963-.006H132.875V68h185.583z" filter="url(#mask-h)" transform="rotate(-15 12050.683 -8761.683)"/>
        <path fill="#0000FF" fill-rule="nonzero" d="M-47 155.74L-12.218 139l1.17 2.43c41.725 86.626 108.924 134.443 200.953 143.163l11.661 1.052v-63.198h38.19l.001 63.197 11.619-1.047c90.132-8.526 156.49-54.544 198.124-137.346l1.236-2.484 1.297-2.663 1.179-2.448L488 156.4l-1.053 2.39a277.404 277.404 0 0 1-94 114.975c-40.547 28.619-88.682 46.324-139.768 50.039l-3.115.209-10.307.572v69.345l7.831 1.935a164.99 164.99 0 0 1 77.003 44.144l.856.875.797.827 1.774 1.853-26.686 28.045-1.954-2.051a132.893 132.893 0 0 0-47.049-31.785l-12.058-4.737-.446 51.964h-38.26l.002-51.582c-22.386 6.609-42.05 18.34-57.908 34.374l-.881.9-.821.853-1.967 2.064-26.686-28.045 1.784-1.863a164.992 164.992 0 0 1 78.66-45.84l7.818-1.93V324.59l-10.361-.579c-50.737-3.118-98.663-20.035-139.273-47.75C11.39 248.592-21.86 210.16-43.334 163.944l-1.297-2.833-1.335-3.005L-47 155.74z" filter="url(#mask-i)" transform="rotate(33 1042.5 3087.025)"/>
      </g>
    </g>
  </g>
</svg>
