<?xml version="1.0" encoding="utf-8"?>
<!-- Generator: Adobe Illustrator 25.0.1, SVG Export Plug-In . SVG Version: 6.00 Build 0)  -->
<svg version="1.1" xmlns="http://www.w3.org/2000/svg" xmlns:xlink="http://www.w3.org/1999/xlink" x="0px" y="0px" width="4932px"
	 height="4932px" viewBox="0 0 4932 4932" style="enable-background:new 0 0 4932 4932;" xml:space="preserve">
<style type="text/css">
	.st0{clip-path:url(#SVGID_2_);}
	.st1{filter:url(#mask-f);}
	.st2{fill:#0000FF;}
	.st3{fill-rule:evenodd;clip-rule:evenodd;fill:#0000FF;filter:url(#mask-f);}
</style>
<filter  height="115.7%" id="mask-f" width="116.7%" x="-8.4%" y="-7.8%">
	<feGaussianBlur  in="SourceGraphic" stdDeviation="11.664"></feGaussianBlur>
</filter>
<g id="Layer_1">
</g>
<g id="Layer_2">
	<g>
		<defs>
			<rect id="SVGID_1_" width="4932" height="4932"/>
		</defs>
		<clipPath id="SVGID_2_">
			<use xlink:href="#SVGID_1_"  style="overflow:visible;"/>
		</clipPath>
		<g class="st0">
			<g class="st1">
				<path class="st2" d="M1773.5,3283.1l108.4,55.1l69.7,35.9l-84.4,4.3l-2,0.1c-63.2,2.6-111.6,22.7-136.3,54.2l-0.8,1l-0.6,0.7
					c-13.9,17.5-19.2,40.3-14.3,62.1l0.2,1l0.2,1c4.3,23.6,19,44,40.1,55.5l0.8,0.4l0.9,0.4c18.1,8.9,41.4,11.7,67.6,9l1.3-0.1
					l1.3-0.1c3.1-0.4,6.2-0.8,9.3-1.3l2.3-0.4l2.1-0.4l2-0.4l1-0.2l2-0.4l1-0.2l1-0.2l2-0.4l2.4-0.5l2.4-0.6l1-0.2l0.9-0.2l1.8-0.5
					l0.9-0.2l1.8-0.5l0.9-0.2l0.9-0.2l1.7-0.5l1.6-0.5l0.8-0.3l0.8-0.3l1.5-0.5l0.8-0.3l0.8-0.3l1.4-0.5l2-0.8l1.4-0.5l85.5-36.3
					l80.7-197.7l38.6,15.4l-76,186.3l186.8,74.8l-15.9,38.1l-198.2-78.9l-84.4,35.8l-2.3,1c-0.4,0.2-0.9,0.4-1.4,0.7l-1.9,1
					l-2.7,1.4l-0.7,0.4l-0.7,0.4l-1.4,0.8l-1.5,0.8c-0.5,0.3-1,0.6-1.5,0.9l-0.8,0.5l-1.5,0.9l-1.6,1l-0.8,0.5l-1.6,1l-0.8,0.5
					l-0.8,0.5l-1.6,1.1l-1.6,1.1l-0.8,0.6l-0.8,0.6l-1.6,1.1l-1.6,1.2l-0.8,0.6l-1.6,1.2c-2.4,1.8-4.9,3.7-7.2,5.6l-1.7,1.4
					l-0.8,0.7c-21.4,17.9-36.3,37.9-42.3,58.3c-6.7,23.4-2.4,48.6,11.9,68.4l0.6,0.8l0.5,0.8c12.3,18.7,32.3,30.8,54.6,32.9l0.8,0.1
					l1.4,0.1c38.9,3.8,87.4-17.5,132.9-61l1.3-1.2l61.9-57.9l-58.3,191.3l-39.9-12.4l14.8-48.2l-19.7,10.3
					c-29.5,15.2-62.5,22.4-95.6,20.9l-1.4-0.1l-1.4-0.1l-1.1-0.1c-35.1-3.5-66.7-22.8-85.8-52.5c-5-7.7-9.4-15.7-13.1-24
					c-11.3-25.2-13.1-53.6-5.1-80l0.3-1.1c5-15.2,12.5-29.4,22-42.2l10-13.3l-16.4-2.2c-14.9-2.1-29.5-6.4-43.1-12.7l-1.3-0.6
					l-1.1-0.5c-24.7-12.3-44-33.2-54.5-58.6l-1.1-2.7c-3.1-7.8-5.7-15.9-7.7-24.1c-7.9-34.3,0.2-70.3,22-97.8l0.6-0.8
					c22.2-26,50.6-45.1,82.2-56l1.3-0.4l21-7l-45-23L1773.5,3283.1z"/>
			</g>
			<g class="st1">
				<path class="st2" d="M145.4,2256.4c31.2-22.2,67.9-32.7,104.3-31.4c36.3,1.2,72.3,14.1,102,38.3l1.8,1.5l2.4,2l-29.4,36.1
					l-2.5-2.1c-21.7-18.4-48.3-28.2-75.1-29.3c-26.9-1.1-54.2,6.5-77.3,23l-1.3,0.9l-1.5,1.1c-22.6,16.4-38.3,39.4-45.9,64.8
					c-7.6,25.4-7.2,53.2,2.6,79.4l0.6,1.6l0.4,1.2c8.7,25.5,25.9,47.3,48.7,61.8l1,0.6l1.2,0.8c21.4,13.4,46.2,20.1,71.4,19.4l1.3,0
					l2.3-0.1c56-12.5,102.1-50.4,125.1-102.1l0.7-1.5l0.7-1.6l41-89.8l6.5,160.7l2.9,68l42.8-7.5l7.6,45.5l-48.8,8.6l3.6,78.4
					l-46.2,1.9l-3.2-72.2l-67.2,11.8l-8-45.2l73.8-13l-2.8-63.2l-16.6,15c-28.6,25.6-63.3,43.3-100.8,51.5l-1.5,0.3l-1.6,0.3
					c-38.5,3.7-76.5-5.4-108.7-25.8l-1-0.6l-1.1-0.7c-31.5-19.5-55.4-49.1-67.9-83.9l-0.4-1.2l-0.4-1.1l-0.8-2.2
					c-13-35.7-13.5-73.5-3-108c10.5-34.5,31.9-65.7,62.6-88l1.9-1.4l1.9-1.3L145.4,2256.4z"/>
			</g>
			<path class="st3" d="M3674.8,1659.8l3.4,168.3l186.4,151l-29.2,36.1l-156-126.3l2.6,127.3l-125.4,24.4l156,126.4l-28.8,35.6
				l-186.4-151l-165.3,31.6l-8.7-45.6l126.8-24.3l-61.8-50c-19.7-13.9-36.6-31.4-49.7-51.6c-15.7-26.2-22.3-55.5-20.3-84.1
				c2-28.7,12.6-56.9,31.6-80.3c19-23.4,44.3-39.7,72-47.6c27.7-7.9,57.7-7.6,86.2,2.2c21.7,8.4,41.4,20.4,58.4,35.6l1.2,1.1
				l1.4,1.3l61.8,50l-2.6-129.1L3674.8,1659.8z M3493.1,1745.8c-18.8-6.4-39-6.8-58.1-1.4c-18.8,5.4-35.9,16.4-48.8,32.3
				c-12.9,15.9-20.1,34.9-21.4,54.4c-1.4,19.3,3,39.1,13.7,57c10.2,14.9,22.9,27.8,37.6,38.1l1,0.7l92.4,74.8l125-24l-2.6-127.3
				l-92.4-74.8l-0.9-0.9l-1.2-1.1C3524.7,1762.1,3509.8,1752.7,3493.1,1745.8L3493.1,1745.8z"/>
			<path class="st3" d="M1374.8,842.5l12.7,29.8c18.1,45.4,43.6,87.5,75.5,124.6c32.8,37.1,71.2,68.8,113.8,93.9l2,1.2l4.5,2.6
				l-20.8,36.3c-49.5-27.9-94-64-131.6-106.6c-25.2-29.2-46.7-61.4-64.1-95.9c-1.8-3.5-3.5-7.1-5.2-10.7
				c-30.3,29.9-64.4,55.6-101.6,76.4c-48.1,25.9-99.8,43.8-153.4,53.2l-2.3,0.4l-5.1,0.9l-7.2-41.2c51.5-8.6,101.3-25.6,147.2-50.5
				c41.2-23,78.5-52.5,110.4-87.4l1.5-1.6l1.5-1.7L1374.8,842.5z M1263.1,525.4l97.1,126.6l-33.1,25.3l-39.3-51.2l-21.9,124.2
				l242.7,42.8l21.9-124.2l-54.4,34.7l-22.5-35.1l134.5-85.8l-45.6,258.9l-325.1-57.3L1263.1,525.4z"/>
			<g class="st1">
				<path class="st2" d="M4646.1,3882.3c27.9-7.5,57.7-6.6,82.7,3.1c27.2,10.6,47.1,31.2,55.8,60.1c6.8,22,4.4,45.8-6.6,65.9
					l-0.5,0.8l-0.6,1c-18.2,28.6-46.5,49.3-79.1,58l-1.1,0.3l-56.5,15.1l237.5,36.4l-247.7,66.4c-22.6,5.4-42.1,19-54.9,38
					c-6.4,11.3-7.6,22.7-4.5,33.3l0.7,2.3c6.2,19.2,19.5,30.6,39,35.6c14.8,3.8,32.8,3.2,47.6-0.6l1-0.3l193.6-51.9l10.7,39.9
					l-193.6,51.9c-27.9,7.5-57.7,6.6-82.7-3.1c-26.9-10.5-46.7-30.8-55.6-59.1l-0.5-1.8c-6.5-21.7-4.1-45.2,6.8-65.1l0.5-0.8l0.6-1
					c18.2-28.6,46.4-49.3,79.1-58l1.1-0.3l56.6-15.2l-237.7-37.1l247.6-66.4l1.2-0.3c21.9-5.5,41.1-19,53.7-37.7
					c6.4-11.3,7.5-22.7,4.3-33.3l-0.5-1.4l-0.3-0.9c-5.9-18.9-18.9-30.2-38.6-35.1c-14.8-3.7-32.9-3.1-47.7,0.7l-1,0.3l-193.6,51.9
					l-10.7-39.9L4646.1,3882.3z"/>
			</g>
			<g class="st1">
				<path class="st2" d="M2849.9-60.1l45.9,5.9l-0.4,3.2c-14.6,114.4,21.8,206.5,108.7,275.4l11,8.7l41.3-63.6l38.4,25l-41.3,63.6
					l12.4,6.5c96.3,50.3,193.1,47.4,289.2-8.7l2.9-1.7l3-1.8l2.8-1.7l24.1,39.6l-2.6,1.7c-50.6,33.2-109.3,51.9-169.7,54.3
					c-59.5,2.3-119.5-11.3-173.4-41l-3.3-1.8l-10.7-6.2l-45.3,69.8l6.6,7.1c24.6,26.5,41.4,59.3,48.6,94.8l0.3,1.4l0.3,1.4l0.6,3
					l-45.2,10.8l-0.6-3.3c-4.2-22.6-13.3-44-26.6-62.7l-9-12.6l-34.4,52l-38.5-25l33.7-51.9c-26.8-8-54.3-9-80.7-3.3l-1.5,0.3
					l-1.4,0.3l-3.3,0.8l-8.5-45.7l3-0.7c36.1-8.5,74-6.7,109.1,5.3l9.1,3.2l45.3-69.8l-10.1-7.4c-49-36.3-86.2-84.6-109-139.1
					c-22.7-54.3-31.1-114.8-22.5-175.3l0.5-3.7l0.6-3.9L2849.9-60.1z"/>
			</g>
			<g class="st1">
				<path class="st2" d="M2849.9,4871.9l45.9,5.9l-0.4,3.2c-14.6,114.4,21.8,206.5,108.7,275.4l11,8.7l41.3-63.6l38.4,25l-41.3,63.6
					l12.4,6.5c96.3,50.3,193.1,47.4,289.2-8.7l2.9-1.7l3-1.8l2.8-1.7l24.1,39.6l-2.6,1.7c-50.6,33.2-109.3,51.9-169.7,54.3
					c-59.5,2.3-119.5-11.3-173.4-41l-3.3-1.8l-10.7-6.2l-45.3,69.8l6.6,7.1c24.6,26.5,41.4,59.3,48.6,94.8l0.3,1.4l0.3,1.4l0.6,3
					l-45.2,10.8l-0.6-3.3c-4.2-22.6-13.3-44-26.6-62.7l-9-12.6l-34.4,52l-38.5-25l33.7-51.9c-26.8-8-54.3-9-80.7-3.3l-1.5,0.3
					l-1.4,0.3l-3.3,0.8l-8.5-45.7l3-0.7c36.1-8.5,74-6.7,109.1,5.3l9.1,3.2l45.3-69.8l-10.1-7.4c-49-36.3-86.2-84.6-109-139.1
					c-22.7-54.3-31.1-114.8-22.5-175.3l0.5-3.7l0.6-3.9L2849.9,4871.9z"/>
			</g>
		</g>
	</g>
</g>
</svg>
