<svg xmlns="http://www.w3.org/2000/svg" width="3288" height="3288" viewBox="0 0 3288 3288">
  <filter id="mask2-a">
    <feColorMatrix in="SourceGraphic" values="0 0 0 0 0.000000 0 0 0 0 0.000000 0 0 0 0 1.000000 0 0 0 1.000000 0"/>
  </filter>
  <filter id="mask2-c" width="116.7%" height="115.7%" x="-8.4%" y="-7.8%">
    <feGaussianBlur in="SourceGraphic" stdDeviation="10.8"/>
  </filter>
  <filter id="mask2-d" width="120.9%" height="115.9%" x="-10.5%" y="-8%">
    <feGaussianBlur in="SourceGraphic" stdDeviation="10.8"/>
  </filter>
  <filter id="mask2-e" width="114.3%" height="114.2%" x="-7.1%" y="-7.1%">
    <feGaussianBlur in="SourceGraphic" stdDeviation="10.8"/>
  </filter>
  <filter id="mask2-f" width="112.1%" height="118.7%" x="-6.1%" y="-9.4%">
    <feGaussianBlur in="SourceGraphic" stdDeviation="10.8"/>
  </filter>
  <mask id="mask2-b" fill="#fff">
    <path fill-rule="evenodd" d="M0 0h3288v3288H0z"/>
  </mask>
  <g fill="none" fill-rule="evenodd" filter="url(#mask2-a)">
    <g fill="#00f" mask="url(#mask2-b)">
      <path fill-rule="nonzero" d="M318.458 68c26.787 0 53.17 7.898 73.17 22.624 21.79 16.044 34.675 39.236 35.552 67.11.765 21.309-7.05 41.982-21.663 57.404l-.614.64-.77.712c-23.14 21.18-53.36 32.917-84.622 32.893l-1.034-.005h-54.174L468 338.842H230.566c-21.559-.568-42.21 6.88-58.212 20.827-8.427 8.586-12.22 18.52-12.019 28.739l.09 2.244c.936 18.651 10.06 32.059 26.367 41.213 12.366 6.942 28.558 10.732 42.7 10.894l.94.006H416.04V481H230.457c-26.787 0-53.17-7.898-73.17-22.624-21.564-15.878-34.41-38.754-35.52-66.21l-.06-1.728a78.616 78.616 0 0 1 21.695-56.585l.613-.634.764-.708c23.124-21.21 53.357-32.952 84.616-32.895l1.038.006 54.27.003L81 209.5h237.382l1.112.021a85.054 85.054 0 0 0 57.069-20.852c8.435-8.559 12.184-18.524 11.869-28.74l-.072-1.397-.027-.865c-.729-18.277-9.711-31.513-26.096-40.609-12.385-6.875-28.665-10.653-42.792-10.818l-.963-.006H132.875V68z" filter="url(#mask2-c)" transform="rotate(-15 7066.21 -3065.973)"/>
      <path fill-rule="nonzero" d="M197.685 102.767c28.833-13.734 60.484-16.965 90.136-10.707 29.654 6.257 57.309 22.002 78.15 46.22l1.29 1.52 1.69 2.02-29.345 25.37-1.759-2.113c-15.166-18.216-35.526-30.108-57.425-34.902-21.935-4.802-45.415-2.484-66.77 7.73l-1.2.585-1.363.657c-20.889 10.237-37.097 26.816-47.027 46.56-9.93 19.745-13.58 42.655-9.352 65.55l.273 1.416.16 1.076a98.608 98.608 0 0 0 31.007 57.744l.718.648.868.791a105.978 105.978 0 0 0 55.79 26.234l1.076.151 1.919.247c47.776-2.163 91.093-26.566 117.446-65.663l.78-1.169.796-1.22 46.62-67.808-17.91 132.84-7.466 56.21 36.213-.002-.382 38.398-41.297.001L372.914 496l-38.151-5.156 7.82-59.693H285.73v-38.235h62.48l6.857-52.304-15.808 9.9a185.413 185.413 0 0 1-90.17 27.694l-1.311.049-1.4.04c-32.137-2.561-62.013-15.54-85.433-36.934l-.724-.666-.775-.69a136.52 136.52 0 0 1-43.566-78.671l-.173-1.033-.158-.98-.349-1.885c-5.542-31.158-.42-62.253 13.17-89.026 13.606-26.803 35.697-49.276 64.071-63.144l1.75-.841 1.768-.82z" filter="url(#mask2-d)" transform="rotate(-10 12795.337 1388.5)"/>
      <path d="M497 210.603L389.79 301.09V501H351.1V333.693l-81.095 68.41-81.598-68.432V501H150.21V301.09L43 210.604l24.967-29.547L150.21 250.4v-66.272a158.801 158.801 0 0 1 7.33-59.252c8.738-23.89 24.232-43.503 43.845-57.238C221.052 53.865 244.855 46 270 46s48.948 7.865 68.615 21.638a119.483 119.483 0 0 1 43.762 56.997c5.943 18.475 8.473 37.517 7.58 56.53l-.07 1.359-.097 1.624V250.4l82.243-69.344zm-150.935-72.531a81.008 81.008 0 0 0-29.582-38.336C303.156 90.414 287.032 85.091 270 85.091s-33.156 5.323-46.483 14.645c-13.23 9.256-23.704 22.454-29.738 38.802a125.877 125.877 0 0 0-4.953 44.381l.073 1.002V283L270 351.415 351.1 283v-99.078l.075-1.045.08-1.319c.802-14.503-.9-29.056-5.19-43.486z" filter="url(#mask2-e)" transform="rotate(-51 2514.906 -1476.312)"/>
      <path fill-rule="nonzero" d="M-47 155.74L-12.218 139l1.17 2.43c41.725 86.626 108.924 134.443 200.953 143.163l11.661 1.052v-63.198h38.19l.001 63.197 11.619-1.047c90.132-8.526 156.49-54.544 198.124-137.346l1.236-2.484 1.297-2.663 1.179-2.448L488 156.4l-1.053 2.39a277.404 277.404 0 0 1-94 114.975c-40.547 28.619-88.682 46.324-139.768 50.039l-3.115.209-10.307.572v69.345l7.831 1.935a164.99 164.99 0 0 1 77.003 44.144l.856.875.797.827 1.774 1.853-26.686 28.045-1.954-2.051a132.893 132.893 0 0 0-47.049-31.785l-12.058-4.737-.446 51.964h-38.26l.002-51.582c-22.386 6.609-42.05 18.34-57.908 34.374l-.881.9-.821.853-1.967 2.064-26.686-28.045 1.784-1.863a164.992 164.992 0 0 1 78.66-45.84l7.818-1.93V324.59l-10.361-.579c-50.737-3.118-98.663-20.034-139.273-47.75C11.39 248.592-21.86 210.16-43.334 163.944l-1.297-2.833-1.335-3.005z" filter="url(#mask2-f)" transform="rotate(33 1042.5 3087.025)"/>
    </g>
  </g>
</svg>
