<svg xmlns="http://www.w3.org/2000/svg" xmlns:xlink="http://www.w3.org/1999/xlink" width="3288" height="3288" viewBox="0 0 3288 3288">
  <defs>
    <path id="seed2-a" d="M0 0h3288v3288H0z"/>
    <filter id="seed2-b">
      <feColorMatrix in="SourceGraphic" values="0 0 0 0 1.000000 0 0 0 0 0.000000 0 0 0 0 0.000000 0 0 0 1.000000 0"/>
    </filter>
    <filter id="seed2-d" width="112%" height="116.8%" x="-6%" y="-8.4%" filterUnits="objectBoundingBox">
      <feGaussianBlur in="SourceGraphic" stdDeviation="10.8"/>
    </filter>
    <filter id="seed2-e" width="114.8%" height="113.8%" x="-7.4%" y="-6.9%" filterUnits="objectBoundingBox">
      <feGaussianBlur in="SourceGraphic" stdDeviation="10.8"/>
    </filter>
  </defs>
  <g fill="none" fill-rule="evenodd">
    <mask id="seed2-c" fill="white">
      <use xlink:href="#seed2-a"/>
    </mask>
    <g filter="url(#seed2-b)">
      <g mask="url(#seed2-c)">
        <g transform="translate(-4942.766 -4942)">
          <g transform="translate(.766)">
            <path d="M8230 4942v3288H4942V4942h3288zM6586.234 6312c-151.326 0-274 122.674-274 274s122.674 274 274 274 274-122.674 274-274-122.674-274-274-274z"/>
            <path fill="#979797" fill-rule="nonzero" d="M6575.909 13151.985l.894.002c5.523.016 9.988 4.505 9.973 10.028-.015 5.523-4.505 9.988-10.027 9.972l-1.08-.003c-5.523-.017-9.986-4.508-9.97-10.03.017-5.43 4.358-9.835 9.752-9.967l.458-.002zm1027.987-150.562c1.663 5.166-1.1 10.696-6.185 12.492l-.43.142-.803.258c-5.258 1.69-10.89-1.2-12.581-6.459-1.69-5.257 1.201-10.89 6.46-12.58l.956-.308c5.258-1.693 10.891 1.197 12.583 6.455zm-2041.654-12.453l.949.311c5.248 1.722 8.106 7.372 6.384 12.62-1.722 5.247-7.372 8.105-12.62 6.384l-.955-.314c-5.247-1.723-8.103-7.374-6.38-12.621 1.724-5.247 7.375-8.104 12.622-6.38zM6584.965 12604c5.523.002 9.998 4.48 9.996 10.004-.002 5.429-4.33 9.846-9.724 9.992l-1.322.003c-5.523-.004-9.997-4.484-9.993-10.007a10.002 10.002 0 0 1 9.728-9.99l1.315-.002zm1935.92-71.282c3.181 4.392 2.274 10.502-1.997 13.788l-1.081.789c-4.474 3.238-10.726 2.237-13.965-2.237-3.238-4.474-2.237-10.726 2.237-13.964l.84-.608c4.473-3.24 10.725-2.241 13.965 2.232zm-3871.66-13.785l1.048.763c4.455 3.265 5.42 9.523 2.154 13.977-3.264 4.455-9.522 5.42-13.977 2.155l-.812-.596c-4.454-3.266-5.416-9.524-2.15-13.978 3.208-4.374 9.301-5.38 13.737-2.32zm2792.356-41.138c1.674 5.163-1.076 10.699-6.158 12.505l-1.225.401c-5.254 1.702-10.893-1.177-12.594-6.431-1.702-5.255 1.177-10.893 6.431-12.595l.948-.308c5.254-1.703 10.894 1.174 12.598 6.428zm-1701.505-7.383l.948.308c5.252 1.708 8.125 7.35 6.417 12.603-1.678 5.161-7.156 8.025-12.33 6.501l-1.227-.395c-5.251-1.71-8.122-7.353-6.412-12.604 1.71-5.252 7.353-8.123 12.604-6.413zm2463.936-384.907c3.249 4.467 2.261 10.72-2.205 13.97l-.79.573c-4.467 3.247-10.72 2.257-13.968-2.21-3.189-4.388-2.29-10.499 1.975-13.792l.366-.271.653-.475c4.467-3.249 10.72-2.261 13.97 2.205zm-3224.527-4.005l.813.593c4.464 3.251 5.447 9.506 2.195 13.97-3.252 4.464-9.507 5.447-13.97 2.195l-.82-.597c-4.463-3.253-5.443-9.509-2.19-13.971 3.254-4.463 9.509-5.444 13.972-2.19zm1605.687-25.5c5.523.002 9.999 4.48 9.997 10.004-.002 5.429-4.33 9.846-9.724 9.992l-1.337.003c-5.523-.004-9.996-4.485-9.992-10.008.005-5.43 4.335-9.844 9.729-9.988l1.327-.003zm848.426-159.863c2.114 5.103-.309 10.952-5.411 13.066l-.926.384c-5.104 2.111-10.952-.314-13.064-5.417-2.075-5.016.232-10.751 5.156-12.951l1.18-.493c5.102-2.114 10.952.309 13.065 5.411zm-1684.832-6.528l1.167.48c5.1 2.118 7.519 7.97 5.4 13.07-2.08 5.013-7.768 7.435-12.805 5.507l-1.175-.483c-5.1-2.12-7.515-7.973-5.395-13.073 2.083-5.012 7.772-7.431 12.808-5.5zm3499.632-85.783c4.38 3.2 5.396 9.292 2.344 13.733l-.27.377-.5.685c-3.26 4.458-9.517 5.43-13.975 2.17s-5.43-9.517-2.17-13.975l.597-.816c3.258-4.46 9.515-5.433 13.974-2.174zm-5322.197-13.489l.606.84c3.234 4.477 2.226 10.727-2.252 13.961-4.477 3.234-10.728 2.225-13.961-2.252l-.61-.844c-3.232-4.478-2.222-10.729 2.256-13.961 4.479-3.232 10.73-2.222 13.961 2.256zm2657.9-282.338h1.031c5.523.004 9.998 4.483 9.995 10.006-.003 5.523-4.482 9.998-10.005 9.995l-1.044-.001c-5.523-.006-9.995-4.489-9.989-10.012.006-5.522 4.489-9.994 10.011-9.988zm2224.264-30.91c4.464 3.252 5.448 9.506 2.197 13.971l-.597.82c-3.253 4.464-9.508 5.446-13.971 2.193-4.384-3.194-5.41-9.285-2.363-13.73l.763-1.056c3.251-4.464 9.506-5.448 13.97-2.197zm-4432.536-.244l.57.783c3.247 4.467 2.259 10.721-2.209 13.969-4.387 3.19-10.498 2.293-13.791-1.972l-.272-.367-.479-.658c-3.246-4.468-2.255-10.722 2.213-13.968 4.469-3.246 10.722-2.255 13.968 2.213zm3766.75-59.464c3.904 3.907 3.902 10.238-.004 14.142l-.693.693c-3.909 3.902-10.24 3.897-14.143-.01-3.902-3.909-3.897-10.24.011-14.143l.687-.686c3.906-3.904 10.238-3.902 14.142.004zm-3100.931-1.92l.686.687c3.903 3.907 3.9 10.238-.007 14.142-3.907 3.903-10.239 3.9-14.142-.007l-.692-.693c-3.902-3.91-3.896-10.24.013-14.142 3.909-3.902 10.24-3.896 14.142.013zm2374.514-122.116c2.763 4.781 1.128 10.898-3.654 13.662l-.868.501c-4.784 2.761-10.9 1.122-13.66-3.662-2.761-4.783-1.122-10.898 3.662-13.66l.858-.495c4.781-2.764 10.898-1.128 13.662 3.654zm-1649.164-5.099l.393.224.708.41c4.78 2.769 6.409 8.887 3.64 13.666-2.768 4.779-8.886 6.409-13.665 3.64l-.86-.498c-4.777-2.772-6.403-8.89-3.631-13.668 2.722-4.693 8.677-6.345 13.415-3.774zm816.313-328.25l1.014.003c5.523.008 9.993 4.492 9.985 10.015-.008 5.523-4.492 9.993-10.015 9.985l-1.032-.002c-5.523-.014-9.99-4.502-9.976-10.024.014-5.523 4.502-9.99 10.024-9.976zm3131.999-73.921c5.16 1.685 8.017 7.167 6.486 12.338l-.398 1.23c-1.716 5.25-7.362 8.115-12.612 6.398-5.25-1.716-8.114-7.362-6.398-12.612l.312-.952c1.714-5.25 7.36-8.117 12.61-6.402zm-6251.977-12.058l.305.953c1.685 5.26-1.213 10.89-6.473 12.574-5.26 1.685-10.889-1.213-12.574-6.473l-.307-.96c-1.683-5.26 1.217-10.888 6.477-12.571 5.26-1.683 10.889 1.217 12.572 6.477zm3773.938-118.362c3.245 4.47 2.252 10.723-2.218 13.967l-.818.594c-4.472 3.24-10.724 2.241-13.965-2.231-3.24-4.472-2.242-10.725 2.23-13.965l.804-.583c4.47-3.244 10.723-2.251 13.967 2.218zm-1292.017-4.727l.803.587c4.46 3.258 5.434 9.515 2.176 13.974-3.258 4.46-9.514 5.434-13.974 2.176l-.818-.598c-4.456-3.262-5.425-9.519-2.163-13.975 3.262-4.457 9.52-5.426 13.976-2.164zm3250.23-38.87c5.252 1.707 8.126 7.349 6.42 12.601l-.311.955c-1.71 5.252-7.352 8.124-12.604 6.415-5.252-1.708-8.124-7.351-6.415-12.603l.308-.948c1.707-5.252 7.349-8.127 12.601-6.42zm-5207.32 3.48l.307.947c1.703 5.254-1.176 10.893-6.43 12.596-5.163 1.674-10.698-1.078-12.504-6.16l-.4-1.224c-1.702-5.254 1.179-10.893 6.433-12.594 5.255-1.7 10.893 1.18 12.594 6.435zm4627.154-11.258c5.1 2.117 7.52 7.968 5.404 13.069l-.379.91c-2.119 5.101-7.971 7.518-13.071 5.399-5.1-2.12-7.517-7.971-5.398-13.072l.375-.902c2.116-5.101 7.968-7.52 13.069-5.404zm-4046.583 2.951l.38.918c2.113 5.102-.311 10.952-5.414 13.065-5.015 2.076-10.75-.23-12.952-5.153l-.496-1.188c-2.11-5.103.316-10.951 5.42-13.062 5.104-2.11 10.952.316 13.062 5.42zm3446.003-19.307c4.78 2.767 6.411 8.885 3.644 13.665l-.499.86c-2.77 4.778-8.889 6.405-13.667 3.635-4.694-2.722-6.347-8.675-3.777-13.414l.224-.394.41-.709c2.768-4.78 8.886-6.41 13.665-3.643zm-2845.117 1.384l.495.858c2.763 4.782 1.125 10.899-3.657 13.661-4.782 2.763-10.898 1.126-13.66-3.657l-.502-.868c-2.76-4.784-1.119-10.899 3.665-13.659 4.784-2.76 10.9-1.119 13.659 3.665zm1746.04-377.402c3.245 4.47 2.251 10.722-2.218 13.967l-.817.592c-4.476 3.236-10.727 2.232-13.963-2.244-3.237-4.475-2.232-10.727 2.243-13.963l.788-.57c4.47-3.245 10.723-2.252 13.967 2.218zm-647.537-3.81l.793.58c4.459 3.258 5.432 9.515 2.174 13.974-3.259 4.459-9.515 5.432-13.974 2.174l-.822-.602c-4.453-3.267-5.415-9.525-2.149-13.978 3.267-4.453 9.525-5.415 13.978-2.149zm1363.302-103.877c5.252 1.71 8.122 7.354 6.412 12.605l-.315.966c-1.716 5.25-7.362 8.115-12.612 6.4-5.25-1.715-8.115-7.361-6.4-12.611l.31-.949c1.71-5.251 7.354-8.121 12.605-6.411zm-2079.581 2.287l.306.953c1.695 5.256-1.193 10.89-6.45 12.585-5.257 1.694-10.891-1.194-12.585-6.45l-.313-.97c-1.689-5.258 1.204-10.89 6.462-12.58 5.259-1.69 10.89 1.204 12.58 6.462zm4312.064-342.521l.894.002a9.992 9.992 0 0 1 8.4 4.615c.267-.02.536-.031.808-.03 5.429.007 9.842 4.34 9.982 9.733l.002 1.361c-.01 5.523-4.494 9.993-10.017 9.984a10 10 0 0 1-8.997-5.665l-.232.002-1.08-.003c-5.523-.017-9.986-4.508-9.97-10.03.017-5.43 4.358-9.835 9.752-9.967l.458-.002zm-537.907.5c5.429 0 9.847 4.328 9.994 9.722l.004 1.322c-.003 5.523-4.483 9.998-10.006 9.995-5.523-.003-9.997-4.483-9.994-10.006v-1.035c0-5.523 4.479-10 10.002-9.998zm-1096-.028c5.524.002 10 4.48 9.998 10.003v1.045c-.006 5.523-4.487 9.996-10.01 9.99-5.522-.004-9.996-4.485-9.99-10.008v-1.033c.001-5.522 4.48-9.998 10.003-9.997zm548-.07c5.429.002 9.847 4.33 9.994 9.723l.004 1.337c-.004 5.523-4.484 9.997-10.007 9.994-5.523-.004-9.997-4.484-9.993-10.007v-1.048c0-5.523 4.479-9.999 10.002-9.998zm-2202.093-.402l.894.002c5.523.016 9.988 4.505 9.973 10.028-.015 5.523-4.505 9.987-10.027 9.972l-1.08-.003c-5.523-.017-9.986-4.508-9.97-10.03.017-5.43 4.358-9.835 9.752-9.967l.458-.002zm-3277.831-14.934c5.523.024 9.98 4.521 9.955 10.044l-.004 1.071c-.023 5.518-4.51 9.973-10.027 9.959a9.962 9.962 0 0 1 .774 3.89c-.015 5.523-4.505 9.987-10.027 9.972l-1.08-.003c-5.523-.017-9.986-4.508-9.97-10.03.017-5.43 4.358-9.835 9.751-9.967l.459-.002.894.002-.08-.192a9.973 9.973 0 0 1-.694-3.712l.004-1.077c.025-5.523 4.522-9.98 10.045-9.955zm1095.934 12.622c5.522.006 9.995 4.488 9.99 10.01l-.002 1.048c-.003 5.523-4.482 9.998-10.005 9.994-5.523-.003-9.998-4.482-9.995-10.005l.001-1.057c.006-5.523 4.488-9.995 10.01-9.99zm548.003 0c5.523.008 9.994 4.492 9.987 10.015l-.002 1.031c-.004 5.523-4.484 9.997-10.007 9.993-5.523-.005-9.997-4.485-9.993-10.008l.002-1.044c.007-5.523 4.49-9.994 10.013-9.986zm-1096.004-.304c5.522.005 9.995 4.486 9.99 10.01v1.034c-.004 5.522-4.483 9.997-10.006 9.994-5.523-.003-9.998-4.483-9.995-10.006l.001-1.042c.005-5.523 4.487-9.995 10.01-9.99zm3757.885-147.946c1.663 5.166-1.1 10.696-6.185 12.492l-.43.142-.803.258c-5.258 1.69-10.89-1.2-12.581-6.459-1.69-5.257 1.201-10.89 6.46-12.58l.956-.309c5.258-1.692 10.891 1.198 12.583 6.456zm-3288 0c1.663 5.166-1.1 10.696-6.185 12.492l-.43.142-.803.258c-5.258 1.69-10.89-1.2-12.581-6.459-1.69-5.257 1.201-10.89 6.46-12.58l.956-.309c5.258-1.692 10.891 1.198 12.583 6.456zm6576 0c1.663 5.166-1.1 10.696-6.185 12.492l-.43.142-.803.258c-5.258 1.69-10.89-1.2-12.581-6.459-1.69-5.257 1.201-10.89 6.46-12.58l.956-.309c5.257-1.692 10.891 1.198 12.583 6.456zm-2041.654-12.453l.949.312c5.248 1.721 8.106 7.371 6.384 12.619-1.722 5.247-7.372 8.106-12.62 6.384l-.955-.314c-5.247-1.723-8.103-7.374-6.38-12.621 1.724-5.247 7.375-8.104 12.622-6.38zm-3288 0l.949.312c5.248 1.721 8.106 7.371 6.384 12.619-1.722 5.247-7.372 8.106-12.62 6.384l-.955-.314c-5.247-1.723-8.103-7.374-6.38-12.621 1.724-5.247 7.375-8.104 12.622-6.38zm-3288 0l.949.312c5.248 1.721 8.106 7.371 6.384 12.619-1.722 5.247-7.372 8.106-12.62 6.384l-.955-.314c-5.247-1.723-8.103-7.374-6.38-12.621 1.724-5.247 7.375-8.104 12.622-6.38zm4842.696.884l.313.969c1.692 5.257-1.197 10.89-6.454 12.583-5.258 1.693-10.891-1.197-12.584-6.454l-.302-.933c-1.702-5.254 1.177-10.893 6.431-12.596 5.254-1.702 10.893 1.177 12.596 6.431zm-1048.393-8.986c5.245 1.729 8.096 7.382 6.368 12.628l-.305.928c-1.719 5.249-7.367 8.11-12.616 6.391-5.248-1.719-8.11-7.367-6.39-12.615l.316-.963c1.728-5.246 7.381-8.097 12.627-6.369zm1569.817-160.078l.31.955c1.697 5.256-1.188 10.892-6.443 12.59-5.256 1.697-10.892-1.187-12.59-6.443l-.303-.937c-1.702-5.254 1.177-10.893 6.43-12.595 5.255-1.703 10.894 1.176 12.596 6.43zm-2090.736-10.57c5.247 1.723 8.104 7.373 6.38 12.62l-.31.945c-1.718 5.25-7.366 8.11-12.615 6.392-5.249-1.718-8.11-7.366-6.392-12.615l.316-.962c1.723-5.248 7.374-8.104 12.621-6.38zM6584.965 9316c.173 0 .346.004.518.013a9.8 9.8 0 0 1 .517-.013h1.03c5.522.01 9.991 4.496 9.981 10.019-.01 5.523-4.495 9.992-10.018 9.982L6586 9336c-.175 0-.348-.004-.521-.013l-.242.01-1.322.002c-5.523-.004-9.997-4.484-9.993-10.007a10.002 10.002 0 0 1 9.728-9.99l1.315-.002zm3288 0c5.523.002 9.998 4.48 9.996 10.004-.002 5.429-4.33 9.846-9.724 9.992l-1.322.003c-5.523-.004-9.997-4.484-9.993-10.007a10.002 10.002 0 0 1 9.728-9.99l1.315-.002zm-6576 0c5.523.002 9.998 4.48 9.996 10.004-.002 5.429-4.33 9.846-9.724 9.992l-1.322.003c-5.523-.004-9.997-4.484-9.992-10.007.004-5.43 4.333-9.845 9.727-9.99l1.315-.002zm8511.92-71.282c3.181 4.393 2.274 10.502-1.997 13.788l-1.082.789c-4.473 3.238-10.725 2.237-13.964-2.237-3.238-4.474-2.237-10.726 2.237-13.964l.84-.609c4.473-3.24 10.725-2.24 13.965 2.233zm-3288 0c3.181 4.393 2.274 10.502-1.997 13.788l-1.081.789c-4.474 3.238-10.726 2.237-13.965-2.237-3.238-4.474-2.237-10.726 2.237-13.964l.84-.609c4.473-3.24 10.725-2.24 13.965 2.233zm-3288 0c3.181 4.393 2.274 10.502-1.997 13.788l-1.081.789c-4.474 3.238-10.726 2.237-13.965-2.237-3.238-4.474-2.237-10.726 2.237-13.964l.84-.609c4.473-3.24 10.725-2.24 13.965 2.233zm-3871.66-13.785l1.048.763c4.455 3.265 5.42 9.523 2.154 13.977-3.264 4.455-9.522 5.42-13.977 2.155l-.812-.596c-4.454-3.266-5.416-9.524-2.15-13.978 3.208-4.374 9.301-5.38 13.737-2.32zm3288 0l1.048.763c4.455 3.265 5.42 9.523 2.154 13.977-3.264 4.455-9.522 5.42-13.977 2.155l-.812-.596c-4.454-3.266-5.416-9.524-2.15-13.978 3.208-4.374 9.301-5.38 13.737-2.32zm3288 0l1.048.763c4.455 3.265 5.42 9.523 2.154 13.977-3.264 4.455-9.522 5.42-13.977 2.155l-.812-.596c-4.454-3.266-5.416-9.524-2.15-13.978 3.208-4.374 9.301-5.38 13.737-2.32zm2792.356-41.138c1.674 5.163-1.076 10.699-6.158 12.505l-1.225.401c-5.254 1.702-10.892-1.177-12.594-6.431-1.702-5.255 1.177-10.893 6.431-12.595l.948-.308c5.254-1.703 10.894 1.174 12.598 6.428zm-6576 0c1.674 5.163-1.076 10.699-6.158 12.505l-1.225.401c-5.254 1.702-10.893-1.177-12.594-6.431-1.702-5.255 1.177-10.893 6.431-12.595l.948-.308c5.254-1.703 10.894 1.174 12.598 6.428zm3288 0c1.674 5.163-1.076 10.699-6.158 12.505l-1.225.401c-5.254 1.702-10.893-1.177-12.594-6.431-1.702-5.255 1.177-10.893 6.431-12.595l.948-.308c5.254-1.703 10.894 1.174 12.598 6.428zm-1701.505-7.383l.948.308c5.252 1.708 8.125 7.35 6.417 12.603-1.678 5.161-7.156 8.025-12.33 6.501l-1.227-.395c-5.251-1.71-8.122-7.353-6.412-12.604 1.71-5.252 7.353-8.123 12.604-6.413zm3288 0l.948.308c5.252 1.708 8.125 7.35 6.417 12.603-1.678 5.161-7.156 8.025-12.33 6.501l-1.227-.395c-5.251-1.71-8.122-7.353-6.412-12.604 1.71-5.252 7.353-8.123 12.604-6.413zm-6576 0l.948.308c5.252 1.708 8.125 7.35 6.417 12.603-1.678 5.161-7.156 8.025-12.33 6.501l-1.227-.395c-5.251-1.71-8.122-7.353-6.412-12.604 1.71-5.252 7.353-8.123 12.604-6.413zm5566.696-135.325l.503.868c2.762 4.783 1.124 10.899-3.658 13.661-4.783 2.762-10.9 1.125-13.661-3.658l-.496-.858c-2.765-4.78-1.131-10.898 3.65-13.663 4.78-2.765 10.897-1.131 13.662 3.65zm-2850.543-5.927c4.776 2.773 6.4 8.892 3.627 13.669l-.505.87c-2.77 4.778-8.888 6.406-13.666 3.636-4.778-2.77-6.406-8.888-3.636-13.666l.51-.882c2.774-4.776 8.893-6.4 13.67-3.627zm3452.701-9.996l.497 1.189c2.112 5.102-.312 10.952-5.415 13.064s-10.952-.312-13.065-5.415l-.38-.918c-2.115-5.102.307-10.952 5.409-13.067 5.014-2.078 10.75.225 12.954 5.147zm-4055.878-7.59c5.099 2.12 7.514 7.974 5.393 13.073l-.375.902c-2.119 5.1-7.97 7.517-13.071 5.399-5.1-2.119-7.518-7.971-5.399-13.071l.378-.91c2.121-5.1 7.974-7.514 13.074-5.393zm4637.177.77l.31.956c1.703 5.254-1.176 10.893-6.43 12.596-5.163 1.674-10.698-1.077-12.504-6.16l-.4-1.218c-1.704-5.253 1.172-10.893 6.426-12.598 5.253-1.705 10.893 1.171 12.598 6.425zm-5218.89-9.371c5.252 1.71 8.122 7.354 6.411 12.606l-.308.947c-1.71 5.252-7.352 8.124-12.604 6.415-5.161-1.68-8.024-7.159-6.499-12.332l.395-1.226c1.71-5.251 7.355-8.121 12.606-6.41zm3253.059-35.618l.818.597c4.461 3.255 5.44 9.51 2.184 13.972-3.255 4.462-9.51 5.44-13.972 2.184l-.804-.585c-4.464-3.252-5.448-9.506-2.197-13.97 3.252-4.465 9.506-5.449 13.97-2.198zm-1283.285-.322c3.234 4.478 2.225 10.728-2.252 13.962l-.802.58c-4.474 3.237-10.726 2.235-13.964-2.24-3.237-4.474-2.235-10.726 2.24-13.963l.817-.59c4.477-3.234 10.728-2.226 13.961 2.251zm3771.484-120.841l.312.967c1.698 5.255-1.186 10.892-6.441 12.59-5.256 1.697-10.892-1.187-12.59-6.442l-.311-.96c-1.7-5.256 1.183-10.893 6.438-12.593 5.254-1.7 10.892 1.183 12.592 6.438zm-6258.455-25.057c5.154 1.702 7.994 7.193 6.447 12.36l-.397 1.217c-1.73 5.245-7.384 8.095-12.629 6.365-5.245-1.729-8.095-7.383-6.365-12.628l.314-.952c1.73-5.244 7.386-8.093 12.63-6.362zm4737.87-35.63c3.249 4.467 2.261 10.72-2.205 13.97l-.79.573c-4.467 3.247-10.72 2.257-13.968-2.21-3.189-4.388-2.29-10.499 1.975-13.792l.366-.271.653-.475c4.467-3.249 10.72-2.261 13.97 2.205zm-3288 0c3.249 4.467 2.261 10.72-2.205 13.97l-.79.573c-4.467 3.247-10.72 2.257-13.968-2.21-3.189-4.388-2.29-10.499 1.975-13.792l.366-.271.653-.475c4.467-3.249 10.72-2.261 13.97 2.205zm6576 0c3.249 4.467 2.261 10.72-2.205 13.97l-.79.573c-4.467 3.247-10.72 2.257-13.968-2.21-3.189-4.388-2.29-10.499 1.975-13.792l.366-.271.653-.475c4.467-3.249 10.72-2.261 13.97 2.205zm-6512.527-4.005l.813.593c4.464 3.251 5.447 9.506 2.195 13.97-3.252 4.464-9.507 5.447-13.97 2.195l-.82-.597c-4.463-3.253-5.443-9.509-2.19-13.971 3.254-4.463 9.509-5.444 13.972-2.19zm3288 0l.813.593c4.464 3.251 5.447 9.506 2.195 13.97-3.252 4.464-9.507 5.447-13.97 2.195l-.82-.597c-4.463-3.253-5.443-9.509-2.19-13.971 3.254-4.463 9.509-5.444 13.972-2.19zm-6576 0l.813.593c4.464 3.251 5.447 9.506 2.195 13.97-3.252 4.464-9.507 5.447-13.97 2.195l-.82-.597c-4.463-3.253-5.443-9.509-2.19-13.971 3.254-4.463 9.509-5.444 13.972-2.19zm4893.687-25.5c.14 0 .277.003.415.008.136-.005.274-.008.413-.008h1.034c5.523.006 9.996 4.487 9.991 10.01-.005 5.522-4.486 9.996-10.009 9.99H6586a9.6 9.6 0 0 1-.417-.009l-.138.005-1.337.003c-5.523-.004-9.996-4.485-9.992-10.008.005-5.43 4.335-9.844 9.729-9.988l1.327-.003zm3288 0c5.523.002 9.999 4.48 9.997 10.004-.002 5.429-4.33 9.846-9.724 9.992l-1.337.003c-5.523-.004-9.996-4.485-9.992-10.008.005-5.43 4.335-9.844 9.729-9.988l1.327-.003zm-6576 0c5.523.002 9.999 4.48 9.997 10.004-.002 5.429-4.33 9.846-9.724 9.992l-1.337.003c-5.523-.004-9.996-4.485-9.992-10.008.005-5.43 4.335-9.844 9.729-9.988l1.327-.003zm4136.426-159.863c2.114 5.103-.309 10.953-5.411 13.066l-.926.384c-5.104 2.111-10.952-.314-13.064-5.417-2.075-5.016.232-10.751 5.156-12.951l1.18-.493c5.102-2.114 10.952.309 13.065 5.411zm-3288 0c2.114 5.103-.309 10.953-5.411 13.066l-.926.384c-5.104 2.111-10.952-.314-13.064-5.417-2.075-5.016.232-10.751 5.156-12.951l1.18-.493c5.102-2.114 10.952.309 13.065 5.411zm6576 0c2.114 5.103-.309 10.953-5.411 13.066l-.926.384c-5.104 2.111-10.953-.314-13.064-5.417-2.075-5.016.232-10.751 5.156-12.951l1.18-.493c5.102-2.114 10.952.309 13.065 5.411zm-4972.832-6.528l1.167.48c5.1 2.118 7.519 7.97 5.4 13.07-2.08 5.013-7.768 7.435-12.805 5.507l-1.175-.483c-5.1-2.12-7.515-7.973-5.395-13.073 2.083-5.012 7.772-7.431 12.808-5.5zm3288 0l1.167.48c5.1 2.118 7.519 7.97 5.4 13.07-2.08 5.013-7.768 7.435-12.805 5.507l-1.175-.483c-5.1-2.12-7.515-7.973-5.395-13.073 2.083-5.012 7.772-7.431 12.808-5.5zm-6576 0l1.167.48c5.1 2.118 7.519 7.97 5.4 13.07-2.08 5.013-7.768 7.435-12.805 5.507l-1.175-.483c-5.1-2.12-7.515-7.973-5.395-13.073 2.083-5.012 7.772-7.431 12.808-5.5zm10075.632-85.783c4.38 3.2 5.396 9.292 2.344 13.733l-.27.377-.5.685c-3.26 4.458-9.517 5.43-13.975 2.17s-5.43-9.517-2.17-13.975l.597-.816c3.258-4.46 9.515-5.433 13.974-2.174zm-6576 0c4.38 3.2 5.396 9.292 2.344 13.733l-.27.377-.5.685c-3.26 4.458-9.517 5.43-13.975 2.17s-5.43-9.517-2.17-13.975l.597-.816c3.258-4.46 9.515-5.433 13.974-2.174zm3288 0c4.38 3.2 5.396 9.292 2.344 13.733l-.27.377-.5.685c-3.26 4.458-9.517 5.43-13.975 2.17s-5.43-9.517-2.17-13.975l.597-.816c3.258-4.46 9.515-5.433 13.974-2.174zM7214.2 8502.337l.606.84c3.234 4.477 2.226 10.727-2.252 13.961-4.477 3.234-10.728 2.225-13.961-2.252l-.61-.844c-3.232-4.478-2.222-10.729 2.256-13.961 4.479-3.232 10.73-2.222 13.961 2.256zm-6576 0l.606.84c3.234 4.477 2.226 10.727-2.252 13.961-4.477 3.234-10.728 2.225-13.961-2.252l-.61-.844c-3.232-4.478-2.222-10.729 2.256-13.961 4.479-3.232 10.73-2.222 13.961 2.256zm3288 0l.606.84c3.234 4.477 2.226 10.727-2.252 13.961-4.477 3.234-10.728 2.225-13.961-2.252l-.61-.844c-3.232-4.478-2.222-10.729 2.256-13.961 4.479-3.232 10.73-2.222 13.961 2.256zm3487.05-60.914l.861.499c4.779 2.769 6.408 8.887 3.639 13.666-2.77 4.778-8.888 6.407-13.667 3.638l-.85-.493c-4.78-2.766-6.413-8.883-3.647-13.664 2.766-4.78 8.884-6.412 13.664-3.646zm-1638.49 2.31c2.758 4.784 1.116 10.899-3.67 13.657l-.856.495c-4.783 2.761-10.9 1.122-13.66-3.66-2.762-4.784-1.123-10.9 3.66-13.661l.868-.5c4.785-2.76 10.9-1.116 13.658 3.668zm2368.47-126.6l.693.694c3.903 3.907 3.9 10.239-.008 14.142-3.836 3.832-10.01 3.898-13.926.201l-.902-.896c-3.905-3.906-3.904-10.238.001-14.142 3.906-3.905 10.238-3.904 14.143.001zm-3098.387-1.916c3.83 3.839 3.893 10.012.194 13.927l-.896.9c-3.908 3.904-10.24 3.9-14.142-.009-3.832-3.836-3.898-10.01-.2-13.926l.902-.908c3.91-3.9 10.242-3.893 14.142.016zm3766.326-57.442l.575.79c3.247 4.467 2.259 10.72-2.208 13.968-4.387 3.19-10.498 2.294-13.792-1.971l-.747-1.02c-3.25-4.466-2.263-10.72 2.203-13.97 4.466-3.249 10.72-2.263 13.97 2.203zm-4434.555-4.676c4.382 3.196 5.405 9.288 2.357 13.731l-.762 1.054c-3.253 4.463-9.508 5.445-13.972 2.192-4.383-3.195-5.408-9.285-2.362-13.73l.767-1.06c3.254-4.462 9.51-5.441 13.972-2.187zM6584.1 8220h1.032c.146 0 .29.004.435.01.143-.006.288-.009.433-.009h1.045c5.523.004 9.997 4.484 9.994 10.007-.003 5.522-4.483 9.997-10.006 9.993H6586c-.147 0-.294-.003-.44-.01-.144.007-.29.01-.438.01l-1.044-.001c-5.523-.006-9.995-4.489-9.989-10.011.006-5.523 4.489-9.995 10.011-9.99zm-3288 0h1.032c5.523.004 9.998 4.483 9.995 10.006-.003 5.523-4.482 9.998-10.005 9.995l-1.044-.001c-5.523-.006-9.995-4.489-9.989-10.011.006-5.523 4.489-9.995 10.011-9.99zm6576 0h1.032c5.523.004 9.998 4.483 9.995 10.006-.003 5.523-4.482 9.998-10.005 9.995l-1.044-.001c-5.523-.006-9.995-4.489-9.989-10.011.006-5.523 4.489-9.995 10.011-9.99zm-1063.735-30.91c4.464 3.252 5.448 9.506 2.197 13.971l-.597.82c-3.253 4.464-9.508 5.446-13.971 2.193-4.384-3.195-5.41-9.285-2.363-13.73l.763-1.056c3.251-4.464 9.506-5.448 13.97-2.197zm3288 0c4.465 3.252 5.448 9.506 2.197 13.971l-.597.82c-3.253 4.464-9.508 5.446-13.971 2.193-4.384-3.195-5.41-9.285-2.363-13.73l.764-1.056c3.25-4.464 9.505-5.448 13.97-2.197zm-6576 0c4.464 3.252 5.448 9.506 2.197 13.971l-.597.82c-3.253 4.464-9.508 5.446-13.971 2.193-4.384-3.195-5.41-9.285-2.363-13.73l.763-1.056c3.251-4.464 9.506-5.448 13.97-2.197zm-1144.536-.244l.57.783c3.247 4.467 2.259 10.721-2.209 13.969-4.387 3.19-10.498 2.293-13.791-1.972l-.272-.367-.479-.658c-3.246-4.468-2.255-10.722 2.213-13.968 4.469-3.246 10.722-2.255 13.968 2.213zm3288 0l.57.783c3.247 4.467 2.259 10.721-2.209 13.969-4.387 3.19-10.498 2.293-13.791-1.972l-.272-.367-.479-.658c-3.246-4.468-2.255-10.722 2.213-13.968 4.469-3.246 10.722-2.255 13.968 2.213zm-6576 0l.57.783c3.247 4.467 2.259 10.721-2.209 13.969-4.387 3.19-10.498 2.293-13.791-1.972l-.272-.367-.479-.658c-3.246-4.468-2.255-10.722 2.213-13.968 4.469-3.246 10.722-2.255 13.968 2.213zm3766.75-59.464c3.904 3.907 3.902 10.238-.004 14.142l-.693.693c-3.909 3.902-10.24 3.897-14.143-.01-3.902-3.909-3.897-10.24.011-14.143l.687-.686c3.906-3.904 10.238-3.902 14.142.004zm6576 0c3.904 3.907 3.902 10.238-.004 14.142l-.693.693c-3.909 3.902-10.24 3.897-14.143-.01-3.902-3.909-3.897-10.24.011-14.143l.687-.686c3.906-3.904 10.238-3.902 14.142.004zm-3100.931-1.92l.686.687c3.903 3.907 3.9 10.238-.007 14.142-3.907 3.903-10.239 3.9-14.142-.007l-.692-.693c-3.902-3.91-3.896-10.24.013-14.142 3.909-3.902 10.24-3.896 14.142.013zm-3288 0l.686.687c3.903 3.907 3.9 10.238-.007 14.142-3.907 3.903-10.239 3.9-14.142-.007l-.692-.693c-3.902-3.91-3.896-10.24.013-14.142 3.909-3.902 10.24-3.896 14.142.013zm-3288 0l.686.687c3.903 3.907 3.9 10.238-.007 14.142-3.907 3.903-10.239 3.9-14.142-.007l-.692-.693c-3.902-3.91-3.896-10.24.013-14.142 3.909-3.902 10.24-3.896 14.142.013zm2374.514-122.116c2.763 4.781 1.128 10.898-3.654 13.662l-.868.501c-4.784 2.761-10.9 1.122-13.66-3.662-2.761-4.783-1.122-10.898 3.662-13.66l.858-.495c4.781-2.764 10.898-1.128 13.662 3.654zm3288 0c2.763 4.781 1.128 10.898-3.654 13.662l-.868.501c-4.784 2.761-10.9 1.122-13.66-3.662-2.761-4.783-1.122-10.898 3.662-13.66l.858-.495c4.781-2.764 10.898-1.128 13.662 3.654zm3288 0c2.763 4.781 1.128 10.898-3.654 13.662l-.868.501c-4.784 2.761-10.9 1.122-13.66-3.662-2.761-4.783-1.121-10.898 3.662-13.66l.858-.495c4.781-2.764 10.898-1.128 13.662 3.654zm-4937.164-5.099l.393.224.708.41c4.78 2.769 6.409 8.887 3.64 13.666-2.768 4.779-8.886 6.409-13.665 3.64l-.86-.498c-4.777-2.771-6.403-8.89-3.631-13.668 2.722-4.693 8.677-6.345 13.415-3.774zm-3288 0l.393.224.708.41c4.78 2.769 6.409 8.887 3.64 13.666-2.768 4.779-8.886 6.409-13.665 3.64l-.86-.498c-4.777-2.771-6.403-8.89-3.631-13.668 2.722-4.693 8.677-6.345 13.415-3.774zm6576 0l.393.224.708.41c4.78 2.769 6.409 8.887 3.64 13.666-2.768 4.779-8.886 6.409-13.665 3.64l-.86-.498c-4.777-2.771-6.403-8.89-3.631-13.668 2.722-4.693 8.676-6.345 13.415-3.774zm200.956-62.66l.614.847c3.245 4.469 2.253 10.722-2.217 13.967-4.389 3.187-10.5 2.286-13.79-1.98l-.788-1.078c-3.246-4.468-2.255-10.722 2.213-13.968 4.468-3.246 10.722-2.256 13.968 2.212zm-5314.46-17.816c4.449 3.272 5.403 9.532 2.13 13.98l-.587.8c-3.271 4.45-9.53 5.406-13.98 2.135-4.371-3.213-5.371-9.308-2.307-13.74l.27-.374.493-.67c3.272-4.45 9.532-5.403 13.98-2.131zm3487.468-80.652l.911.378c5.1 2.118 7.519 7.97 5.4 13.07-2.08 5.013-7.769 7.435-12.805 5.506l-1.168-.48c-5.102-2.116-7.522-7.966-5.406-13.068 2.115-5.101 7.966-7.522 13.068-5.406zm-1670.387 4.397c2.073 5.017-.236 10.75-5.16 12.95l-1.18.491c-5.103 2.112-10.952-.313-13.064-5.416-2.111-5.103.314-10.952 5.417-13.064l.926-.383c5.104-2.11 10.951.318 13.06 5.422zm824.736-171.518l1.014.002c.281 0 .56.012.834.035.19-.015.375-.025.561-.03l1.338-.004c5.522.003 9.997 4.482 9.995 10.005-.003 5.523-4.482 9.998-10.005 9.995H6586c-.287 0-.571-.012-.852-.036-.281.023-.566.035-.853.035l-1.032-.002c-5.523-.014-9.99-4.502-9.976-10.025.014-5.522 4.502-9.989 10.024-9.975zm-3288 0l1.014.002c5.523.008 9.993 4.492 9.985 10.015-.008 5.523-4.492 9.993-10.015 9.985l-1.032-.002c-5.523-.014-9.99-4.502-9.976-10.025.014-5.522 4.502-9.989 10.024-9.975zm6576 0l1.014.002c5.523.008 9.993 4.492 9.985 10.015-.008 5.523-4.492 9.993-10.015 9.985l-1.032-.002c-5.523-.014-9.99-4.502-9.976-10.025.014-5.522 4.502-9.989 10.024-9.975zm-1668.669-22.863l.822.598c4.464 3.252 5.447 9.506 2.195 13.97-3.252 4.465-9.507 5.447-13.97 2.196l-.816-.594c-4.466-3.25-5.45-9.505-2.2-13.97 3.25-4.466 9.504-5.45 13.97-2.2zm-3216.857.426a9.998 9.998 0 0 1-1.98 13.791l-1.018.746c-4.468 3.247-10.722 2.257-13.969-2.21-3.247-4.468-2.257-10.722 2.21-13.969l.79-.573c4.469-3.245 10.722-2.253 13.967 2.215zm8017.525-51.485c5.16 1.685 8.017 7.167 6.486 12.338l-.398 1.23c-1.716 5.25-7.362 8.115-12.612 6.398-5.25-1.716-8.114-7.362-6.398-12.612l.312-.953c1.714-5.25 7.36-8.116 12.61-6.401zm-6576 0c5.16 1.685 8.017 7.167 6.486 12.338l-.398 1.23c-1.716 5.25-7.362 8.115-12.612 6.398-5.25-1.716-8.114-7.362-6.398-12.612l.312-.953c1.714-5.25 7.36-8.116 12.61-6.401zm3288 0c5.16 1.685 8.017 7.167 6.486 12.338l-.398 1.23c-1.716 5.25-7.362 8.115-12.612 6.398-5.25-1.716-8.114-7.362-6.398-12.612l.312-.953c1.714-5.25 7.36-8.116 12.61-6.401zm-9539.977-12.058l.305.953c1.685 5.26-1.213 10.89-6.473 12.574-5.26 1.685-10.889-1.213-12.574-6.473l-.307-.96c-1.683-5.26 1.217-10.888 6.477-12.571 5.26-1.683 10.889 1.217 12.572 6.477zm6576 0l.305.953c1.685 5.26-1.213 10.89-6.473 12.574-5.26 1.685-10.889-1.213-12.574-6.473l-.307-.96c-1.683-5.26 1.217-10.888 6.477-12.571 5.26-1.683 10.889 1.217 12.572 6.477zm-3288 0l.305.953c1.685 5.26-1.213 10.89-6.473 12.574-5.26 1.685-10.889-1.213-12.574-6.473l-.307-.96c-1.683-5.26 1.217-10.888 6.477-12.571 5.26-1.683 10.889 1.217 12.572 6.477zm485.938-118.362c3.245 4.47 2.252 10.723-2.218 13.967l-.818.594c-4.472 3.24-10.724 2.241-13.965-2.231-3.24-4.472-2.242-10.725 2.23-13.965l.804-.583c4.47-3.244 10.723-2.251 13.967 2.218zm3288 0c3.245 4.47 2.252 10.723-2.218 13.967l-.818.594c-4.472 3.24-10.724 2.241-13.965-2.231-3.24-4.472-2.242-10.725 2.23-13.965l.804-.583c4.47-3.244 10.723-2.251 13.967 2.218zm3288 0c3.245 4.47 2.252 10.723-2.218 13.967l-.818.594c-4.472 3.24-10.724 2.241-13.965-2.231-3.24-4.472-2.242-10.725 2.23-13.965l.804-.583c4.47-3.244 10.723-2.251 13.967 2.218zm-4580.017-4.727l.803.588c4.46 3.257 5.434 9.514 2.176 13.973-3.258 4.46-9.514 5.434-13.974 2.176l-.818-.598c-4.456-3.262-5.425-9.519-2.163-13.975 3.262-4.457 9.52-5.426 13.976-2.164zm3288 0l.803.588c4.46 3.257 5.434 9.514 2.176 13.973-3.258 4.46-9.514 5.434-13.974 2.176l-.818-.598c-4.456-3.262-5.425-9.519-2.163-13.975 3.262-4.457 9.52-5.426 13.976-2.164zm-6576 0l.803.588c4.46 3.257 5.434 9.514 2.176 13.973-3.258 4.46-9.514 5.434-13.974 2.176l-.818-.598c-4.456-3.262-5.425-9.519-2.163-13.975 3.262-4.457 9.52-5.426 13.976-2.164zm9826.23-38.87c5.252 1.707 8.126 7.349 6.42 12.601l-.311.955c-1.71 5.252-7.352 8.124-12.604 6.415-5.252-1.708-8.124-7.351-6.415-12.603l.308-.948c1.707-5.252 7.349-8.127 12.601-6.42zm-6576 0c5.252 1.707 8.126 7.349 6.42 12.601l-.311.955c-1.71 5.252-7.352 8.124-12.604 6.415-5.252-1.708-8.124-7.351-6.415-12.603l.308-.948c1.707-5.252 7.349-8.127 12.601-6.42zm3288 0c5.252 1.707 8.126 7.349 6.42 12.601l-.311.955c-1.71 5.252-7.352 8.124-12.604 6.415-5.252-1.708-8.124-7.351-6.415-12.603l.308-.948c1.707-5.252 7.349-8.127 12.601-6.42zm-5207.32 3.48l.307.947c1.703 5.254-1.176 10.893-6.43 12.596-5.163 1.674-10.698-1.078-12.504-6.16l-.4-1.224c-1.702-5.254 1.179-10.893 6.433-12.594 5.255-1.7 10.893 1.18 12.594 6.435zm-3288 0l.307.947c1.703 5.254-1.176 10.893-6.43 12.596-5.163 1.674-10.698-1.078-12.504-6.16l-.4-1.224c-1.702-5.254 1.18-10.893 6.433-12.594 5.255-1.7 10.893 1.18 12.594 6.435zm6576 0l.307.947c1.703 5.254-1.176 10.893-6.43 12.596-5.163 1.674-10.698-1.078-12.504-6.16l-.4-1.224c-1.702-5.254 1.18-10.893 6.433-12.594 5.255-1.7 10.893 1.18 12.594 6.435zm1339.154-11.258c5.1 2.117 7.52 7.968 5.404 13.069l-.379.91c-2.119 5.101-7.971 7.518-13.071 5.399-5.1-2.12-7.517-7.971-5.398-13.072l.375-.902c2.116-5.101 7.968-7.52 13.069-5.404zm-3288 0c5.1 2.117 7.52 7.968 5.404 13.069l-.379.91c-2.119 5.101-7.971 7.518-13.071 5.399-5.1-2.12-7.517-7.971-5.398-13.072l.375-.902c2.116-5.101 7.968-7.52 13.069-5.404zm6576 0c5.1 2.117 7.52 7.968 5.404 13.069l-.379.91c-2.119 5.101-7.971 7.518-13.071 5.399-5.1-2.12-7.517-7.971-5.398-13.072l.375-.902c2.116-5.101 7.968-7.52 13.069-5.404zm-4046.583 2.951l.38.918c2.113 5.102-.311 10.952-5.414 13.064-5.015 2.077-10.75-.228-12.952-5.152l-.496-1.187c-2.11-5.104.316-10.952 5.42-13.063 5.104-2.11 10.952.316 13.062 5.42zm-3288 0l.38.918c2.113 5.102-.311 10.952-5.414 13.064-5.015 2.077-10.75-.228-12.952-5.152l-.496-1.187c-2.11-5.104.316-10.952 5.42-13.063 5.104-2.11 10.952.316 13.062 5.42zm-3288 0l.38.918c2.113 5.102-.311 10.952-5.414 13.064-5.015 2.077-10.75-.228-12.952-5.152l-.496-1.187c-2.11-5.104.316-10.952 5.42-13.063 5.104-2.11 10.952.316 13.062 5.42zm6734.003-19.307c4.78 2.767 6.411 8.885 3.644 13.665l-.499.86c-2.77 4.778-8.889 6.405-13.667 3.635-4.694-2.722-6.347-8.675-3.777-13.414l.224-.394.41-.709c2.768-4.78 8.886-6.41 13.665-3.643zm-3288 0c4.78 2.767 6.411 8.885 3.644 13.665l-.499.86c-2.77 4.778-8.889 6.405-13.667 3.635-4.694-2.722-6.347-8.675-3.777-13.414l.224-.394.41-.709c2.768-4.78 8.886-6.41 13.665-3.643zm6576 0c4.78 2.767 6.411 8.885 3.644 13.665l-.499.86c-2.77 4.778-8.889 6.405-13.667 3.635-4.694-2.722-6.347-8.675-3.777-13.414l.224-.394.41-.709c2.768-4.78 8.886-6.41 13.665-3.643zm-6133.117 1.384l.495.858c2.763 4.782 1.125 10.898-3.657 13.661s-10.898 1.126-13.66-3.657l-.502-.868c-2.76-4.784-1.119-10.899 3.665-13.659 4.784-2.76 10.9-1.119 13.659 3.665zm-3288 0l.495.858c2.763 4.782 1.125 10.898-3.657 13.661s-10.898 1.126-13.66-3.657l-.502-.868c-2.76-4.784-1.119-10.899 3.665-13.659 4.784-2.76 10.9-1.119 13.659 3.665zm6576 0l.495.858c2.763 4.782 1.125 10.898-3.657 13.661s-10.898 1.126-13.66-3.657l-.502-.868c-2.76-4.784-1.119-10.899 3.665-13.659 4.784-2.76 10.9-1.119 13.659 3.665zm-1021.464-143.374l.956.31c5.252 1.708 8.125 7.35 6.417 12.603-1.678 5.161-7.156 8.025-12.33 6.501l-.43-.135-.79-.257c-5.253-1.706-8.128-7.347-6.422-12.6 1.705-5.253 7.346-8.128 12.6-6.422zm-1684.76 5.477c1.7 5.254-1.182 10.892-6.437 12.592l-.947.307c-5.254 1.701-10.893-1.178-12.595-6.433-1.701-5.254 1.178-10.893 6.433-12.594l.953-.31c5.255-1.699 10.893 1.183 12.593 6.438zm2774.408-56.892l1.045.756c4.462 3.253 5.443 9.509 2.189 13.971-3.195 4.383-9.286 5.407-13.73 2.36l-.374-.267-.666-.485c-4.464-3.252-5.446-9.508-2.194-13.971 3.194-4.384 9.285-5.41 13.73-2.364zm-3850.12-8.975c3.168 4.403 2.241 10.51-2.04 13.782l-1.074.78c-4.482 3.226-10.732 2.21-13.959-2.272-3.17-4.402-2.245-10.509 2.035-13.783l1.08-.783c4.482-3.226 10.732-2.207 13.957 2.276zM6587.042 7124c5.523.002 9.998 4.481 9.996 10.004-.002 5.523-4.48 9.998-10.004 9.996H6586c-5.523 0-10-4.477-10-10 0-5.43 4.327-9.848 9.72-9.996l1.323-.004zm328.618-100.094c3.245 4.47 2.251 10.723-2.218 13.967l-.817.592c-4.476 3.236-10.727 2.232-13.963-2.244-3.237-4.475-2.232-10.727 2.243-13.963l.788-.57c4.47-3.245 10.723-2.252 13.967 2.218zm-3288 0c3.245 4.47 2.251 10.723-2.218 13.967l-.817.592c-4.476 3.236-10.727 2.232-13.963-2.244-3.237-4.475-2.232-10.727 2.243-13.963l.788-.57c4.47-3.245 10.723-2.252 13.967 2.218zm6576 0c3.245 4.47 2.251 10.723-2.218 13.967l-.817.592c-4.476 3.236-10.727 2.232-13.963-2.244-3.237-4.475-2.232-10.727 2.243-13.963l.788-.57c4.47-3.245 10.723-2.252 13.967 2.218zm-3935.537-3.81l.793.58c4.459 3.258 5.432 9.514 2.174 13.974-3.259 4.459-9.515 5.432-13.974 2.174l-.822-.602c-4.453-3.267-5.415-9.525-2.149-13.978 3.267-4.453 9.525-5.415 13.978-2.149zm-3288 0l.793.58c4.459 3.258 5.432 9.514 2.174 13.974-3.259 4.459-9.515 5.432-13.974 2.174l-.822-.602c-4.453-3.267-5.415-9.525-2.149-13.978 3.267-4.453 9.525-5.415 13.978-2.149zm6576 0l.793.58c4.459 3.258 5.432 9.514 2.174 13.974-3.259 4.459-9.515 5.432-13.974 2.174l-.822-.602c-4.453-3.267-5.415-9.525-2.149-13.978 3.267-4.453 9.525-5.415 13.978-2.149zm1363.302-103.877c5.252 1.71 8.122 7.354 6.412 12.605l-.316.967c-1.715 5.25-7.361 8.114-12.61 6.4-5.25-1.716-8.116-7.362-6.4-12.612l.309-.949c1.71-5.251 7.354-8.121 12.605-6.411zm-6576 0c5.252 1.71 8.122 7.354 6.412 12.605l-.315.967c-1.716 5.25-7.362 8.114-12.612 6.4-5.25-1.716-8.115-7.362-6.4-12.612l.31-.949c1.71-5.251 7.354-8.121 12.605-6.411zm3288 0c5.252 1.71 8.122 7.354 6.412 12.605l-.315.967c-1.716 5.25-7.362 8.114-12.612 6.4-5.25-1.716-8.115-7.362-6.4-12.612l.31-.949c1.71-5.251 7.354-8.121 12.605-6.411zm-5367.581 2.287l.306.953c1.695 5.256-1.193 10.89-6.45 12.585-5.257 1.694-10.891-1.194-12.585-6.45l-.313-.97c-1.689-5.259 1.204-10.89 6.462-12.58 5.259-1.69 10.89 1.204 12.58 6.462zm3288 0l.306.953c1.695 5.256-1.193 10.89-6.45 12.585-5.257 1.694-10.891-1.194-12.585-6.45l-.313-.97c-1.689-5.259 1.204-10.89 6.462-12.58 5.259-1.69 10.89 1.204 12.58 6.462zm3288 0l.306.953c1.695 5.256-1.193 10.89-6.45 12.585-5.257 1.694-10.891-1.194-12.585-6.45l-.313-.97c-1.689-5.259 1.204-10.89 6.462-12.58 5.259-1.69 10.89 1.204 12.58 6.462zm-1233.522-181.639l.962.313a10 10 0 1 1-5.916 19.103l-1.228-.395c-5.252-1.707-8.126-7.349-6.419-12.601 1.707-5.253 7.349-8.127 12.601-6.42zm-2009.353.47c1.676 5.262-1.232 10.887-6.495 12.562l-.95.302c-5.261 1.678-10.887-1.229-12.564-6.49-1.677-5.263 1.23-10.888 6.491-12.565l.956-.304c5.262-1.676 10.886 1.232 12.562 6.495zm989.108-176.286c5.523.024 9.98 4.521 9.955 10.044l-.004 1.071a9.96 9.96 0 0 1-2.312 6.354 9.972 9.972 0 0 1 3.364 7.483 9.958 9.958 0 0 1-1.087 4.535l.001 1.128c-.009 5.523-4.494 9.993-10.017 9.984a10 10 0 0 1-8.997-5.665l-.232.002-1.08-.003c-5.523-.017-9.986-4.508-9.97-10.03.017-5.43 4.358-9.835 9.752-9.967l.458-.002.894.002-.08-.192a9.973 9.973 0 0 1-.694-3.712l.004-1.077c.025-5.523 4.522-9.98 10.045-9.955zm3287.932 19.52c5.43.008 9.843 4.34 9.983 9.734l.002 1.361c-.01 5.523-4.494 9.993-10.017 9.984-5.429-.01-9.84-4.344-9.98-9.737l-.001-1.355c.007-5.523 4.49-9.994 10.014-9.987zm3288 0c5.43.008 9.843 4.34 9.983 9.734l.002 1.361c-.01 5.523-4.494 9.993-10.017 9.984-5.429-.01-9.84-4.344-9.98-9.737l-.001-1.355c.007-5.523 4.49-9.994 10.014-9.987zm-548.008-4.086c5.429 0 9.847 4.328 9.994 9.722l.004 1.322c-.003 5.523-4.483 9.998-10.006 9.995-5.523-.003-9.997-4.483-9.994-10.006v-1.035c0-5.523 4.479-10 10.002-9.998zm-6576 0c5.429 0 9.847 4.328 9.994 9.722l.004 1.322c-.003 5.523-4.483 9.998-10.006 9.995-5.523-.003-9.997-4.483-9.994-10.006v-1.035c0-5.523 4.479-10 10.002-9.998zm3288 0c5.429 0 9.847 4.328 9.994 9.722l.004 1.322c-.003 5.523-4.483 9.998-10.006 9.995-5.523-.003-9.997-4.483-9.994-10.006v-1.035c0-5.523 4.479-10 10.002-9.998zm-1095.987-2.811c5.523.007 9.994 4.49 9.987 10.014l-.002 1.031c0 .292-.012.58-.037.866.024.289.037.58.037.875v1.045c-.006 5.523-4.487 9.996-10.01 9.99-5.522-.004-9.996-4.485-9.99-10.008v-1.033c0-.294.013-.586.038-.875a9.998 9.998 0 0 1-.038-.875l.002-1.044c.007-5.523 4.49-9.994 10.013-9.986zm-3288 0c5.523.007 9.994 4.49 9.987 10.014l-.002 1.031c0 .292-.012.58-.037.866.024.289.037.58.037.875v1.045c-.006 5.523-4.487 9.996-10.01 9.99-5.522-.004-9.996-4.485-9.99-10.008v-1.033c0-.294.013-.586.038-.875a9.998 9.998 0 0 1-.038-.875l.002-1.044c.007-5.523 4.49-9.994 10.013-9.986zm6575.988 2.783c5.522.002 9.998 4.48 9.997 10.003v1.045c-.006 5.523-4.487 9.996-10.01 9.99-5.522-.004-9.996-4.485-9.99-10.008v-1.033c.001-5.522 4.48-9.998 10.003-9.997zm-6028.001-.07c5.429.002 9.847 4.33 9.994 9.723l.004 1.337c-.004 5.523-4.484 9.997-10.007 9.994-5.523-.004-9.997-4.484-9.993-10.007v-1.048c0-5.523 4.479-9.999 10.002-9.998zm3288 0c5.429.002 9.847 4.33 9.994 9.723l.004 1.337c-.004 5.523-4.484 9.997-10.007 9.994-5.523-.004-9.997-4.484-9.993-10.007v-1.048c0-5.523 4.479-9.999 10.002-9.998zm3288 0c5.429.002 9.847 4.33 9.994 9.723l.004 1.337c-.004 5.523-4.484 9.997-10.007 9.994-5.523-.004-9.997-4.484-9.994-10.007l.001-1.048c0-5.523 4.479-9.999 10.002-9.998zm-4383.99-2.714c5.522.006 9.995 4.488 9.99 10.01l-.002 1.048c-.003 5.523-4.482 9.998-10.005 9.994-5.523-.003-9.998-4.482-9.995-10.005l.001-1.057c.006-5.523 4.488-9.995 10.01-9.99zm-6576 0c5.522.006 9.995 4.488 9.99 10.01l-.002 1.048c-.003 5.523-4.482 9.998-10.005 9.994-5.523-.003-9.998-4.482-9.995-10.005l.001-1.057c.006-5.523 4.488-9.995 10.01-9.99zm3288 0c5.522.006 9.995 4.488 9.99 10.01l-.002 1.048c-.003 5.523-4.482 9.998-10.005 9.994-5.523-.003-9.998-4.482-9.995-10.005l.001-1.057c.006-5.523 4.488-9.995 10.01-9.99zm-2739.997 0c5.523.008 9.994 4.492 9.987 10.015l-.002 1.031c-.004 5.523-4.484 9.997-10.007 9.993-5.523-.005-9.997-4.485-9.993-10.008l.002-1.044c.007-5.523 4.49-9.994 10.013-9.986zm-1096.004-.304c5.522.005 9.995 4.486 9.99 10.01v1.034c-.004 5.522-4.483 9.997-10.006 9.994-5.523-.003-9.998-4.483-9.995-10.006l.001-1.042c.005-5.523 4.487-9.995 10.01-9.99zm6576 0c5.522.005 9.995 4.486 9.99 10.01v1.034c-.004 5.522-4.483 9.997-10.006 9.994-5.523-.003-9.998-4.483-9.995-10.006l.001-1.042c.005-5.523 4.487-9.995 10.01-9.99zm-3288 0c5.522.005 9.995 4.486 9.99 10.01v1.034c-.004 5.522-4.483 9.997-10.006 9.994-5.523-.003-9.998-4.483-9.995-10.006l.001-1.042c.005-5.523 4.487-9.995 10.01-9.99zm-547.933-12.318c5.523.024 9.98 4.521 9.955 10.044l-.004 1.071c-.023 5.523-4.519 9.981-10.042 9.959-5.522-.023-9.981-4.519-9.958-10.042l.004-1.077c.025-5.523 4.522-9.98 10.045-9.955zm-3288 0c5.523.024 9.98 4.521 9.955 10.044l-.004 1.071c-.023 5.523-4.519 9.981-10.042 9.959-5.522-.023-9.981-4.519-9.958-10.042l.004-1.077c.025-5.523 4.522-9.98 10.045-9.955zm7593.818-135.628c1.663 5.166-1.1 10.696-6.185 12.492l-.43.142-.803.258c-5.258 1.69-10.89-1.2-12.581-6.459-1.69-5.257 1.201-10.89 6.46-12.58l.956-.309c5.258-1.692 10.891 1.198 12.583 6.456zm-2041.654-12.453l.949.312c5.248 1.721 8.106 7.371 6.384 12.619-1.722 5.247-7.372 8.106-12.62 6.384l-.955-.314c-5.247-1.723-8.103-7.374-6.38-12.621 1.724-5.247 7.375-8.104 12.622-6.38zm-1733.304.884l.313.969c1.692 5.257-1.197 10.89-6.454 12.583-5.258 1.693-10.891-1.197-12.584-6.454l-.302-.933c-1.702-5.254 1.177-10.893 6.431-12.596 5.254-1.702 10.893 1.177 12.596 6.431zm6576 0l.313.969c1.692 5.257-1.197 10.89-6.454 12.583-5.258 1.693-10.891-1.197-12.584-6.454l-.302-.933c-1.702-5.254 1.177-10.893 6.431-12.596 5.254-1.702 10.893 1.177 12.596 6.431zm-3288 0l.313.969c1.692 5.257-1.197 10.89-6.454 12.583-5.258 1.693-10.891-1.197-12.584-6.454l-.302-.933c-1.702-5.254 1.177-10.893 6.431-12.596 5.254-1.702 10.893 1.177 12.596 6.431zm-4336.393-8.986c5.245 1.729 8.096 7.382 6.368 12.628l-.305.928c-1.719 5.249-7.367 8.11-12.616 6.391-5.248-1.719-8.11-7.367-6.39-12.615l.316-.963c1.728-5.246 7.381-8.097 12.627-6.369zm3288 0c5.245 1.729 8.096 7.382 6.368 12.628l-.305.928c-1.719 5.249-7.367 8.11-12.616 6.391-5.248-1.719-8.11-7.367-6.39-12.615l.316-.963c1.728-5.246 7.381-8.097 12.627-6.369zm3288 0c5.245 1.729 8.096 7.382 6.368 12.628l-.305.928c-1.719 5.249-7.367 8.11-12.616 6.391-5.248-1.719-8.11-7.367-6.39-12.615l.316-.963c1.728-5.246 7.381-8.097 12.627-6.369zM4350.362 6244.79l.31.955c1.697 5.256-1.188 10.892-6.443 12.59-5.256 1.697-10.892-1.187-12.59-6.443l-.303-.937c-1.702-5.254 1.177-10.893 6.43-12.595 5.255-1.703 10.894 1.176 12.596 6.43zm3288 0l.31.955c1.697 5.256-1.188 10.892-6.443 12.59-5.256 1.697-10.892-1.187-12.59-6.443l-.303-.937c-1.702-5.254 1.177-10.893 6.43-12.595 5.255-1.703 10.894 1.176 12.596 6.43zm3288 0l.31.955c1.697 5.256-1.188 10.892-6.443 12.59-5.256 1.697-10.892-1.187-12.59-6.443l-.303-.937c-1.702-5.254 1.177-10.893 6.43-12.595 5.255-1.703 10.894 1.176 12.596 6.43zm-8666.736-10.57c5.247 1.723 8.104 7.373 6.38 12.62l-.31.945c-1.718 5.25-7.366 8.11-12.615 6.392-5.249-1.718-8.11-7.366-6.392-12.615l.316-.962c1.723-5.248 7.374-8.104 12.621-6.38zm6576 0c5.247 1.723 8.104 7.373 6.38 12.62l-.31.945c-1.718 5.25-7.366 8.11-12.615 6.392-5.249-1.718-8.11-7.366-6.392-12.615l.316-.962c1.723-5.248 7.374-8.104 12.621-6.38zm-3288 0c5.247 1.723 8.104 7.373 6.38 12.62l-.31.945c-1.718 5.25-7.366 8.11-12.615 6.392-5.249-1.718-8.11-7.366-6.392-12.615l.316-.962c1.723-5.248 7.374-8.104 12.621-6.38zM3299.029 6028c5.523.01 9.992 4.496 9.982 10.019-.01 5.523-4.495 9.992-10.018 9.982L3298 6048c-5.523 0-10-4.477-10-10s4.477-10 10-10h1.03zm3285.936 0c.173 0 .346.004.518.013a9.8 9.8 0 0 1 .517-.013h1.03c5.522.01 9.991 4.496 9.981 10.019-.01 5.523-4.495 9.992-10.018 9.982L6586 6048c-.175 0-.348-.004-.521-.013l-.242.01-1.322.002c-5.523-.004-9.997-4.484-9.993-10.007a10.002 10.002 0 0 1 9.728-9.99l1.315-.002zm3290.064 0c5.523.01 9.992 4.496 9.982 10.019-.01 5.523-4.495 9.992-10.018 9.982L9874 6048c-5.523 0-10-4.477-10-10s4.477-10 10-10h1.03zm-1354.145-71.282c3.182 4.393 2.275 10.502-1.996 13.788l-1.081.789c-4.474 3.238-10.726 2.237-13.965-2.237-3.238-4.474-2.237-10.726 2.237-13.964l.84-.609c4.473-3.24 10.725-2.24 13.965 2.233zm-3871.659-13.785l1.048.763c4.455 3.265 5.42 9.523 2.154 13.977-3.264 4.455-9.522 5.42-13.977 2.155l-.812-.596c-4.454-3.266-5.416-9.524-2.15-13.978 3.208-4.374 9.301-5.38 13.737-2.32zm2792.356-41.138c1.674 5.163-1.076 10.699-6.158 12.505l-1.225.401c-5.254 1.702-10.893-1.177-12.594-6.431-1.702-5.255 1.177-10.893 6.431-12.595l.948-.308c5.254-1.703 10.894 1.174 12.598 6.428zm577.191-142.708l.503.868c2.762 4.783 1.124 10.899-3.658 13.661-4.783 2.762-10.9 1.125-13.661-3.658l-.496-.858c-2.765-4.78-1.131-10.898 3.65-13.663 4.78-2.765 10.897-1.131 13.662 3.65zm3288 0l.502.868c2.763 4.783 1.125 10.899-3.657 13.661-4.783 2.762-10.9 1.125-13.661-3.658l-.496-.858c-2.765-4.78-1.131-10.898 3.65-13.663 4.78-2.765 10.897-1.131 13.662 3.65zm-6576 0l.503.868c2.762 4.783 1.124 10.899-3.658 13.661-4.783 2.762-10.9 1.125-13.661-3.658l-.496-.858c-2.765-4.78-1.131-10.898 3.65-13.663 4.78-2.765 10.897-1.131 13.662 3.65zm-2850.543-5.927c4.776 2.773 6.4 8.892 3.627 13.669l-.505.87c-2.77 4.778-8.888 6.406-13.666 3.636-4.778-2.77-6.406-8.888-3.636-13.666l.51-.882c2.774-4.776 8.893-6.4 13.67-3.627zm6576 0c4.776 2.773 6.4 8.892 3.627 13.669l-.505.87c-2.77 4.778-8.888 6.406-13.666 3.636-4.778-2.77-6.406-8.888-3.636-13.666l.51-.882c2.774-4.776 8.893-6.4 13.67-3.627zm-3288 0c4.776 2.773 6.4 8.892 3.627 13.669l-.505.87c-2.77 4.778-8.888 6.406-13.666 3.636-4.778-2.77-6.406-8.888-3.636-13.666l.51-.882c2.774-4.776 8.893-6.4 13.67-3.627zm164.701-9.996l.497 1.189c2.112 5.102-.312 10.952-5.415 13.064s-10.952-.312-13.065-5.415l-.38-.918c-2.115-5.102.307-10.952 5.409-13.067 5.014-2.078 10.75.225 12.954 5.147zm3288 0l.497 1.189c2.112 5.102-.312 10.952-5.415 13.064s-10.952-.312-13.065-5.415l-.38-.918c-2.115-5.102.307-10.952 5.409-13.067 5.014-2.078 10.75.225 12.954 5.147zm3288 0l.497 1.189c2.112 5.102-.312 10.952-5.415 13.064s-10.952-.312-13.065-5.415l-.38-.918c-2.115-5.102.307-10.952 5.409-13.067 5.014-2.078 10.75.225 12.954 5.147zm-10631.878-7.59c5.099 2.12 7.514 7.974 5.393 13.073l-.375.902c-2.119 5.1-7.97 7.517-13.071 5.399-5.1-2.119-7.518-7.971-5.399-13.071l.378-.91c2.121-5.1 7.974-7.514 13.074-5.393zm6576 0c5.099 2.12 7.514 7.974 5.393 13.073l-.375.902c-2.119 5.1-7.97 7.517-13.071 5.399-5.1-2.119-7.518-7.971-5.399-13.071l.378-.91c2.121-5.1 7.974-7.514 13.074-5.393zm-3288 0c5.099 2.12 7.514 7.974 5.393 13.073l-.375.902c-2.119 5.1-7.97 7.517-13.071 5.399-5.1-2.119-7.518-7.971-5.399-13.071l.378-.91c2.121-5.1 7.974-7.514 13.074-5.393zm7925.177.77l.31.956c1.703 5.254-1.176 10.893-6.43 12.596-5.163 1.674-10.698-1.077-12.504-6.16l-.4-1.218c-1.704-5.253 1.172-10.893 6.425-12.598 5.254-1.705 10.894 1.171 12.599 6.425zm-3288 0l.31.956c1.703 5.254-1.176 10.893-6.43 12.596-5.163 1.674-10.698-1.077-12.504-6.16l-.4-1.218c-1.704-5.253 1.172-10.893 6.426-12.598 5.253-1.705 10.893 1.171 12.598 6.425zm-8506.89-9.371c5.252 1.71 8.122 7.354 6.411 12.606l-.308.947c-1.71 5.252-7.352 8.124-12.604 6.415-5.161-1.68-8.024-7.159-6.499-12.332l.395-1.226c1.71-5.251 7.355-8.121 12.606-6.41zm3288 0c5.252 1.71 8.122 7.354 6.411 12.606l-.308.947c-1.71 5.252-7.352 8.124-12.604 6.415-5.161-1.68-8.024-7.159-6.499-12.332l.395-1.226c1.71-5.251 7.355-8.121 12.606-6.41zm3288 0c5.252 1.71 8.122 7.354 6.411 12.606l-.308.947c-1.71 5.252-7.352 8.124-12.604 6.415-5.161-1.68-8.024-7.159-6.499-12.332l.395-1.226c1.71-5.251 7.355-8.121 12.606-6.41zm3253.059-35.618l.818.597c4.461 3.255 5.44 9.51 2.184 13.972-3.255 4.462-9.51 5.44-13.972 2.184l-.804-.585c-4.464-3.252-5.448-9.506-2.197-13.97 3.252-4.465 9.506-5.449 13.97-2.198zm-3288 0l.818.597c4.461 3.255 5.44 9.51 2.184 13.972-3.255 4.462-9.51 5.44-13.972 2.184l-.804-.585c-4.464-3.252-5.448-9.506-2.197-13.97 3.252-4.465 9.506-5.449 13.97-2.198zm-3288 0l.818.597c4.461 3.255 5.44 9.51 2.184 13.972-3.255 4.462-9.51 5.44-13.972 2.184l-.804-.585c-4.464-3.252-5.448-9.506-2.197-13.97 3.252-4.465 9.506-5.449 13.97-2.198zm-1283.285-.322c3.234 4.478 2.225 10.728-2.252 13.962l-.802.58c-4.474 3.237-10.726 2.235-13.964-2.24-3.237-4.474-2.235-10.726 2.24-13.963l.817-.59c4.477-3.234 10.728-2.226 13.961 2.251zm6576 0c3.234 4.478 2.225 10.728-2.252 13.962l-.802.58c-4.474 3.237-10.726 2.235-13.964-2.24-3.237-4.474-2.235-10.726 2.24-13.963l.817-.59c4.477-3.234 10.728-2.226 13.961 2.251zm483.484-120.841l.312.967c1.698 5.255-1.186 10.892-6.441 12.59-5.256 1.697-10.892-1.187-12.59-6.442l-.311-.96c-1.7-5.256 1.183-10.893 6.438-12.593 5.254-1.7 10.892 1.183 12.592 6.438zm-3288 0l.312.967c1.698 5.255-1.186 10.892-6.441 12.59-5.256 1.697-10.892-1.187-12.59-6.442l-.311-.96c-1.7-5.256 1.183-10.893 6.438-12.593 5.254-1.7 10.892 1.183 12.592 6.438zm6576 0l.312.967c1.698 5.255-1.186 10.892-6.441 12.59-5.256 1.697-10.892-1.187-12.59-6.442l-.311-.96c-1.7-5.256 1.183-10.893 6.438-12.593 5.254-1.7 10.892 1.183 12.592 6.438zm-6258.455-25.057c5.154 1.702 7.994 7.193 6.447 12.36l-.397 1.217c-1.73 5.245-7.384 8.095-12.629 6.365-5.245-1.729-8.095-7.383-6.365-12.628l.314-.952c1.73-5.244 7.386-8.093 12.63-6.362zm-6576 0c5.154 1.702 7.994 7.193 6.447 12.36l-.397 1.217c-1.73 5.245-7.384 8.095-12.629 6.365-5.245-1.729-8.095-7.383-6.365-12.628l.314-.952c1.73-5.244 7.386-8.093 12.63-6.362zm3288 0c5.154 1.702 7.994 7.193 6.447 12.36l-.397 1.217c-1.73 5.245-7.384 8.095-12.629 6.365-5.245-1.729-8.095-7.383-6.365-12.628l.314-.952c1.73-5.244 7.386-8.093 12.63-6.362zm4737.87-35.63c3.249 4.467 2.261 10.72-2.205 13.97l-.79.573c-4.467 3.247-10.72 2.257-13.968-2.21-3.189-4.388-2.29-10.499 1.975-13.792l.366-.271.653-.475c4.467-3.249 10.72-2.261 13.97 2.205zm-3224.527-4.005l.813.592c4.464 3.252 5.447 9.507 2.195 13.971-3.252 4.464-9.507 5.447-13.97 2.195l-.82-.597c-4.463-3.253-5.443-9.509-2.19-13.971 3.254-4.463 9.509-5.444 13.972-2.19zm1605.687-25.5c.14 0 .277.003.415.008.136-.005.274-.008.413-.008h1.034c5.523.006 9.996 4.487 9.991 10.01-.005 5.522-4.486 9.996-10.009 9.99H6586a9.6 9.6 0 0 1-.417-.009l-.138.005-1.337.003c-5.523-.004-9.996-4.485-9.992-10.008.005-5.43 4.335-9.844 9.729-9.988l1.327-.003zm-3286.138 0c5.523.006 9.996 4.487 9.991 10.01-.005 5.522-4.486 9.996-10.009 9.99H3298c-5.523 0-10-4.477-10-10s4.477-10 10-10h1.034zm6576 0c5.523.006 9.996 4.487 9.991 10.01-.005 5.522-4.486 9.996-10.009 9.99H9874c-5.523 0-10-4.477-10-10s4.477-10 10-10h1.034zm-2441.436-159.863c2.114 5.103-.309 10.953-5.411 13.066l-.926.384c-5.104 2.111-10.952-.314-13.064-5.417-2.075-5.016.232-10.751 5.156-12.951l1.18-.493c5.102-2.114 10.952.309 13.065 5.411zm-1684.832-6.528l1.167.48c5.1 2.118 7.519 7.97 5.4 13.07-2.08 5.013-7.768 7.435-12.805 5.507l-1.175-.483c-5.1-2.12-7.515-7.973-5.395-13.073 2.083-5.012 7.772-7.431 12.808-5.5zm3499.632-85.783c4.38 3.2 5.396 9.292 2.344 13.733l-.27.377-.5.685c-3.26 4.458-9.517 5.43-13.975 2.17s-5.43-9.517-2.17-13.975l.597-.816c3.258-4.46 9.515-5.433 13.974-2.174zM3926.2 5214.337l.606.84c3.234 4.477 2.226 10.727-2.252 13.961-4.477 3.234-10.728 2.225-13.961-2.252l-.61-.844c-3.232-4.478-2.222-10.729 2.256-13.961 4.479-3.232 10.73-2.222 13.961 2.256zm3487.05-60.914l.861.499c4.779 2.769 6.408 8.887 3.639 13.666-2.77 4.778-8.888 6.407-13.667 3.638l-.85-.493c-4.78-2.766-6.413-8.883-3.647-13.664 2.766-4.78 8.884-6.412 13.664-3.646zm3288 0l.861.499c4.779 2.769 6.408 8.887 3.639 13.666-2.77 4.778-8.888 6.407-13.667 3.638l-.85-.493c-4.78-2.766-6.413-8.883-3.647-13.664 2.766-4.78 8.884-6.412 13.664-3.646zm-6576 0l.861.499c4.779 2.769 6.408 8.887 3.639 13.666-2.77 4.778-8.888 6.407-13.667 3.638l-.85-.493c-4.78-2.766-6.413-8.883-3.647-13.664 2.766-4.78 8.884-6.412 13.664-3.646zm4937.51 2.31c2.758 4.784 1.116 10.899-3.67 13.657l-.856.495c-4.783 2.761-10.9 1.122-13.66-3.66-2.762-4.784-1.123-10.9 3.66-13.661l.868-.5c4.785-2.76 10.9-1.116 13.658 3.668zm-3288 0c2.758 4.784 1.116 10.899-3.67 13.657l-.856.495c-4.783 2.761-10.9 1.122-13.66-3.66-2.762-4.784-1.123-10.9 3.66-13.661l.868-.5c4.785-2.76 10.9-1.116 13.658 3.668zm-3288 0c2.758 4.784 1.116 10.899-3.67 13.657l-.856.495c-4.783 2.761-10.9 1.122-13.66-3.66-2.762-4.784-1.123-10.9 3.66-13.661l.868-.5c4.785-2.76 10.9-1.116 13.658 3.668zm2368.47-126.6l.693.694c3.903 3.907 3.9 10.239-.008 14.142-3.836 3.832-10.01 3.898-13.926.201l-.902-.896c-3.905-3.906-3.904-10.238.001-14.142 3.906-3.905 10.238-3.904 14.143.001zm6576 0l.693.694c3.903 3.907 3.9 10.239-.008 14.142-3.836 3.832-10.01 3.898-13.926.201l-.902-.896c-3.905-3.906-3.904-10.238.001-14.142 3.906-3.905 10.238-3.904 14.142.001zm-3288 0l.693.694c3.903 3.907 3.9 10.239-.008 14.142-3.836 3.832-10.01 3.898-13.926.201l-.902-.896c-3.905-3.906-3.904-10.238.001-14.142 3.906-3.905 10.238-3.904 14.143.001zm-6386.387-1.916c3.83 3.839 3.893 10.012.194 13.927l-.896.901c-3.908 3.903-10.24 3.898-14.142-.01-3.832-3.836-3.898-10.01-.2-13.926l.902-.908c3.91-3.9 10.242-3.893 14.142.016zm6576 0c3.83 3.839 3.893 10.012.194 13.927l-.896.901c-3.908 3.903-10.24 3.898-14.142-.01-3.832-3.836-3.898-10.01-.2-13.926l.902-.908c3.91-3.9 10.242-3.893 14.142.016zm-3288 0c3.83 3.839 3.893 10.012.194 13.927l-.896.901c-3.908 3.903-10.24 3.898-14.142-.01-3.832-3.836-3.898-10.01-.2-13.926l.902-.908c3.91-3.9 10.242-3.893 14.142.016zm3766.326-57.442l.575.79c3.247 4.467 2.259 10.72-2.208 13.968-4.387 3.19-10.498 2.294-13.792-1.971l-.747-1.02c-3.25-4.466-2.263-10.72 2.203-13.97 4.466-3.249 10.72-2.263 13.97 2.203zm3288 0l.575.79c3.247 4.467 2.259 10.72-2.208 13.968a10 10 0 0 1-13.792-1.971l-.747-1.02c-3.25-4.466-2.263-10.72 2.203-13.97 4.466-3.249 10.72-2.263 13.97 2.203zm-6576 0l.575.79c3.247 4.467 2.259 10.72-2.208 13.968-4.387 3.19-10.498 2.294-13.792-1.971l-.747-1.02c-3.25-4.466-2.263-10.72 2.203-13.97 4.466-3.249 10.72-2.263 13.97 2.203zm2141.445-4.676c4.382 3.196 5.405 9.288 2.357 13.731l-.762 1.054c-3.253 4.463-9.508 5.445-13.972 2.192-4.383-3.195-5.408-9.285-2.362-13.73l.767-1.06c3.254-4.462 9.51-5.441 13.972-2.187zm-6576 0c4.382 3.196 5.405 9.288 2.357 13.731l-.762 1.054c-3.253 4.463-9.508 5.445-13.972 2.192-4.383-3.195-5.408-9.285-2.362-13.73l.767-1.06c3.254-4.462 9.51-5.441 13.972-2.187zm3288 0c4.382 3.196 5.405 9.288 2.357 13.731l-.762 1.054c-3.253 4.463-9.508 5.445-13.972 2.192-4.383-3.195-5.408-9.285-2.362-13.73l.767-1.06c3.254-4.462 9.51-5.441 13.972-2.187zM3299.045 4932c5.523.004 9.997 4.484 9.994 10.007-.003 5.522-4.483 9.997-10.006 9.993H3298c-5.523 0-10-4.477-10-10s4.477-10 10-10h1.045zm3285.055 0h1.032c.146 0 .29.004.435.01.143-.006.288-.009.433-.009h1.045c5.523.004 9.997 4.484 9.994 10.007-.003 5.522-4.483 9.997-10.006 9.993H6586c-.147 0-.294-.003-.44-.01-.144.007-.29.01-.438.01l-1.044-.001c-5.523-.006-9.995-4.489-9.989-10.011.006-5.523 4.489-9.995 10.011-9.99zm3290.945.001c5.523.004 9.997 4.484 9.994 10.007-.003 5.522-4.483 9.997-10.006 9.993H9874c-5.523 0-10-4.477-10-10s4.477-10 10-10h1.045zm-1066.68-30.91c4.464 3.25 5.448 9.505 2.197 13.97l-.597.82c-3.253 4.464-9.508 5.446-13.971 2.193-4.384-3.195-5.41-9.285-2.363-13.73l.763-1.056c3.251-4.464 9.506-5.448 13.97-2.197zm-4432.536-.245l.57.783c3.247 4.467 2.259 10.721-2.209 13.969-4.387 3.19-10.498 2.293-13.791-1.972l-.272-.367-.479-.658c-3.246-4.468-2.255-10.722 2.213-13.968 4.469-3.246 10.722-2.255 13.968 2.213zm3766.75-59.464c3.904 3.907 3.902 10.238-.004 14.142l-.693.693c-3.909 3.902-10.24 3.897-14.143-.01-3.902-3.909-3.897-10.24.011-14.143l.687-.686c3.906-3.904 10.238-3.902 14.142.004zm-3100.931-1.92l.686.687c3.903 3.907 3.9 10.238-.007 14.142-3.907 3.903-10.239 3.9-14.142-.007l-.692-.693c-3.902-3.91-3.896-10.24.013-14.142 3.909-3.902 10.24-3.896 14.142.013zm2374.514-122.116c2.763 4.781 1.128 10.898-3.654 13.662l-.868.501c-4.784 2.761-10.9 1.122-13.66-3.662-2.761-4.783-1.122-10.898 3.662-13.66l.858-.495c4.781-2.764 10.898-1.128 13.662 3.654zm-1649.164-5.099l.393.224.708.41c4.78 2.769 6.409 8.887 3.64 13.666-2.768 4.779-8.886 6.409-13.665 3.64l-.86-.498c-4.777-2.771-6.403-8.89-3.631-13.668 2.722-4.693 8.677-6.345 13.415-3.774zm6776.956-62.66l.614.847c3.245 4.469 2.253 10.722-2.217 13.967-4.389 3.187-10.5 2.286-13.79-1.98l-.788-1.078c-3.246-4.468-2.255-10.722 2.213-13.968 4.468-3.246 10.721-2.256 13.968 2.212zm-6576 0l.614.847c3.245 4.469 2.253 10.722-2.217 13.967-4.389 3.187-10.5 2.286-13.79-1.98l-.788-1.078c-3.246-4.468-2.255-10.722 2.213-13.968 4.468-3.246 10.722-2.256 13.968 2.212zm3288 0l.614.847c3.245 4.469 2.253 10.722-2.217 13.967-4.389 3.187-10.5 2.286-13.79-1.98l-.788-1.078c-3.246-4.468-2.255-10.722 2.213-13.968 4.468-3.246 10.722-2.256 13.968 2.212zm-8602.46-17.816c4.449 3.272 5.403 9.532 2.13 13.98l-.587.8c-3.271 4.45-9.53 5.406-13.98 2.135-4.371-3.213-5.371-9.308-2.307-13.74l.27-.374.493-.67c3.272-4.45 9.532-5.403 13.98-2.131zm3288 0c4.449 3.272 5.403 9.532 2.13 13.98l-.587.8c-3.271 4.45-9.53 5.406-13.98 2.135-4.371-3.213-5.371-9.308-2.307-13.74l.27-.374.493-.67c3.272-4.45 9.532-5.403 13.98-2.131zm3288 0c4.449 3.272 5.403 9.532 2.13 13.98l-.587.8c-3.271 4.45-9.53 5.406-13.98 2.135-4.371-3.213-5.371-9.308-2.307-13.74l.27-.374.493-.67c3.272-4.45 9.532-5.403 13.98-2.131zm-3088.532-80.652l.911.378c5.1 2.118 7.519 7.97 5.4 13.07-2.08 5.013-7.769 7.435-12.805 5.506l-1.168-.48c-5.102-2.116-7.522-7.966-5.406-13.068 2.115-5.101 7.966-7.522 13.068-5.406zm6576 0l.911.378c5.1 2.118 7.519 7.97 5.4 13.07-2.08 5.013-7.769 7.435-12.805 5.506l-1.168-.48c-5.101-2.116-7.522-7.966-5.406-13.068 2.115-5.101 7.966-7.522 13.068-5.406zm-3288 0l.911.378c5.1 2.118 7.519 7.97 5.4 13.07-2.08 5.013-7.769 7.435-12.805 5.506l-1.168-.48c-5.102-2.116-7.522-7.966-5.406-13.068 2.115-5.101 7.966-7.522 13.068-5.406zm-1670.387 4.397c2.073 5.017-.236 10.75-5.16 12.95l-1.18.491c-5.103 2.112-10.952-.313-13.064-5.416-2.111-5.103.314-10.952 5.417-13.064l.926-.383c5.104-2.11 10.951.318 13.06 5.422zm3288 0c2.073 5.017-.236 10.75-5.16 12.95l-1.18.491c-5.103 2.112-10.952-.313-13.064-5.416-2.111-5.103.314-10.952 5.417-13.064l.926-.383c5.104-2.11 10.951.318 13.06 5.422zm-6576 0c2.073 5.017-.236 10.75-5.16 12.95l-1.18.491c-5.103 2.112-10.952-.313-13.064-5.416-2.111-5.103.314-10.952 5.417-13.064l.926-.383c5.104-2.11 10.951.318 13.06 5.422zm4112.736-171.518l1.014.002c.281 0 .56.012.834.035.19-.015.375-.025.561-.03l1.338-.004c5.522.003 9.997 4.482 9.995 10.005-.003 5.523-4.482 9.998-10.005 9.995H6586c-.287 0-.571-.012-.852-.036-.281.023-.566.035-.853.035l-1.032-.002c-5.523-.014-9.99-4.502-9.976-10.025.014-5.522 4.502-9.989 10.024-9.975zm-3284.253.003c5.522.003 9.997 4.482 9.995 10.005-.003 5.523-4.482 9.998-10.005 9.995H3298c-5.523 0-10-4.477-10-10 0-5.43 4.327-9.848 9.72-9.996l1.338-.004zm6576 0c5.522.003 9.997 4.482 9.995 10.005-.003 5.523-4.482 9.998-10.005 9.995H9874c-5.523 0-10-4.477-10-10 0-5.43 4.327-9.848 9.72-9.996l1.338-.004zm-1672.416-22.866l.822.598c4.464 3.252 5.447 9.506 2.195 13.97-3.252 4.465-9.507 5.447-13.97 2.196l-.816-.594c-4.466-3.25-5.45-9.505-2.2-13.97 3.25-4.466 9.504-5.45 13.97-2.2zm3288 0l.822.598c4.464 3.252 5.447 9.506 2.195 13.97-3.252 4.465-9.507 5.447-13.97 2.196l-.816-.594c-4.466-3.25-5.45-9.505-2.2-13.97 3.25-4.466 9.504-5.45 13.97-2.2zm-6576 0l.822.598c4.464 3.252 5.447 9.506 2.195 13.97-3.252 4.465-9.507 5.447-13.97 2.196l-.816-.594c-4.466-3.25-5.45-9.505-2.2-13.97 3.25-4.466 9.504-5.45 13.97-2.2zm3359.143.426a9.998 9.998 0 0 1-1.98 13.791l-1.018.746c-4.468 3.247-10.722 2.257-13.969-2.21-3.246-4.468-2.257-10.722 2.21-13.969l.79-.573c4.469-3.245 10.722-2.253 13.967 2.215zm-6576 0a9.998 9.998 0 0 1-1.98 13.791l-1.018.746c-4.468 3.247-10.722 2.257-13.969-2.21-3.246-4.468-2.257-10.722 2.21-13.969l.79-.573c4.469-3.245 10.722-2.253 13.967 2.215zm3288 0a9.998 9.998 0 0 1-1.98 13.791l-1.018.746c-4.468 3.247-10.722 2.257-13.969-2.21-3.247-4.468-2.257-10.722 2.21-13.969l.79-.573c4.469-3.245 10.722-2.253 13.967 2.215zm4729.525-51.485c5.16 1.685 8.017 7.167 6.486 12.338l-.398 1.23c-1.716 5.25-7.362 8.115-12.612 6.398-5.25-1.716-8.114-7.362-6.398-12.612l.312-.953c1.714-5.25 7.36-8.116 12.61-6.401zm-6251.977-12.058l.305.953c1.685 5.26-1.213 10.89-6.473 12.574-5.26 1.685-10.889-1.213-12.574-6.473l-.307-.96c-1.683-5.26 1.217-10.888 6.477-12.571 5.26-1.683 10.889 1.217 12.572 6.477zm3773.938-118.362c3.245 4.47 2.252 10.723-2.218 13.967l-.818.594c-4.472 3.24-10.724 2.241-13.965-2.231-3.24-4.472-2.242-10.725 2.23-13.965l.804-.583c4.47-3.244 10.723-2.251 13.967 2.218zm-1292.017-4.727l.803.588c4.46 3.257 5.434 9.514 2.176 13.973-3.258 4.46-9.514 5.434-13.974 2.176l-.818-.598c-4.456-3.262-5.425-9.519-2.163-13.975 3.262-4.457 9.52-5.426 13.976-2.164zm3250.23-38.87c5.252 1.707 8.126 7.349 6.42 12.601l-.311.955c-1.71 5.252-7.352 8.124-12.604 6.415-5.252-1.708-8.124-7.351-6.415-12.603l.308-.948c1.707-5.252 7.349-8.127 12.601-6.42zm-5207.32 3.48l.307.947c1.703 5.254-1.176 10.893-6.43 12.596-5.163 1.674-10.698-1.078-12.504-6.16l-.4-1.224c-1.702-5.254 1.179-10.893 6.433-12.594 5.255-1.7 10.893 1.18 12.594 6.435zm4627.154-11.258c5.1 2.117 7.52 7.968 5.404 13.069l-.379.91c-2.119 5.101-7.971 7.518-13.071 5.399-5.1-2.12-7.517-7.971-5.398-13.072l.375-.902c2.116-5.101 7.968-7.52 13.069-5.404zm-4046.583 2.951l.38.918c2.113 5.102-.311 10.952-5.414 13.064-5.015 2.077-10.75-.228-12.952-5.152l-.496-1.187c-2.11-5.104.316-10.952 5.42-13.063 5.104-2.11 10.952.316 13.062 5.42zm3446.003-19.307c4.78 2.767 6.411 8.885 3.644 13.665l-.499.86c-2.77 4.778-8.889 6.405-13.667 3.635-4.694-2.722-6.347-8.675-3.777-13.414l.224-.394.41-.709c2.768-4.78 8.886-6.41 13.665-3.643zm-2845.117 1.384l.495.858c2.763 4.782 1.125 10.898-3.657 13.661s-10.898 1.126-13.66-3.657l-.502-.868c-2.76-4.784-1.119-10.899 3.665-13.659 4.784-2.76 10.9-1.119 13.659 3.665zm5554.536-143.374l.956.31c5.252 1.708 8.125 7.35 6.418 12.603-1.679 5.161-7.157 8.025-12.33 6.501l-.43-.135-.791-.257c-5.253-1.706-8.128-7.347-6.422-12.6 1.705-5.253 7.346-8.128 12.6-6.422zm-6576 0l.956.31c5.252 1.708 8.125 7.35 6.417 12.603-1.678 5.161-7.156 8.025-12.33 6.501l-.43-.135-.79-.257c-5.253-1.706-8.128-7.347-6.422-12.6 1.705-5.253 7.346-8.128 12.6-6.422zm3288 0l.956.31c5.252 1.708 8.125 7.35 6.417 12.603-1.678 5.161-7.156 8.025-12.33 6.501l-.43-.135-.79-.257c-5.253-1.706-8.128-7.347-6.422-12.6 1.705-5.253 7.346-8.128 12.6-6.422zm1603.24 5.477c1.7 5.254-1.182 10.892-6.437 12.592l-.947.307c-5.254 1.701-10.893-1.178-12.595-6.433-1.701-5.254 1.178-10.892 6.433-12.594l.953-.31c5.255-1.699 10.893 1.183 12.593 6.438zm-6576 0c1.7 5.254-1.182 10.892-6.437 12.592l-.947.307c-5.254 1.701-10.893-1.178-12.595-6.433-1.701-5.254 1.178-10.892 6.433-12.594l.953-.31c5.255-1.699 10.893 1.183 12.593 6.438zm3288 0c1.7 5.254-1.182 10.892-6.437 12.592l-.947.307c-5.254 1.701-10.893-1.178-12.595-6.433-1.701-5.254 1.178-10.892 6.433-12.594l.953-.31c5.255-1.699 10.893 1.183 12.593 6.438zm2774.408-56.892l1.045.756c4.462 3.253 5.443 9.509 2.189 13.971-3.195 4.383-9.286 5.407-13.73 2.36l-.374-.267-.666-.485c-4.464-3.252-5.446-9.507-2.194-13.971 3.194-4.384 9.285-5.41 13.73-2.364zm-3288 0l1.045.756c4.462 3.253 5.443 9.509 2.189 13.971-3.195 4.383-9.286 5.407-13.73 2.36l-.374-.267-.666-.485c-4.464-3.252-5.446-9.507-2.194-13.971 3.194-4.384 9.285-5.41 13.73-2.364zm6576 0l1.045.756c4.462 3.253 5.443 9.509 2.189 13.971-3.195 4.383-9.286 5.407-13.73 2.36l-.374-.267-.666-.485c-4.464-3.252-5.446-9.507-2.194-13.971 3.194-4.384 9.285-5.41 13.73-2.364zm-7138.12-8.975c3.168 4.403 2.241 10.51-2.04 13.782l-1.074.78c-4.482 3.226-10.732 2.21-13.959-2.272-3.17-4.402-2.245-10.509 2.035-13.783l1.08-.783c4.482-3.226 10.732-2.207 13.957 2.276zm3288 0c3.168 4.403 2.241 10.51-2.04 13.782l-1.074.78c-4.482 3.226-10.732 2.21-13.959-2.272-3.17-4.402-2.245-10.509 2.035-13.783l1.08-.783c4.482-3.226 10.732-2.207 13.957 2.276zm-6576 0c3.168 4.403 2.241 10.51-2.04 13.782l-1.074.78c-4.482 3.226-10.732 2.21-13.959-2.272-3.17-4.402-2.245-10.509 2.035-13.783l1.08-.783c4.482-3.226 10.732-2.207 13.957 2.276zM9875.042 3836c5.523.002 9.998 4.481 9.996 10.004-.002 5.523-4.48 9.998-10.004 9.996H9874c-5.523 0-10-4.477-10-10 0-5.43 4.327-9.848 9.72-9.996l1.323-.004zm-3288 0c5.523.002 9.998 4.481 9.996 10.004-.002 5.523-4.48 9.998-10.004 9.996H6586c-5.523 0-10-4.477-10-10 0-5.43 4.327-9.848 9.72-9.996l1.323-.004zm-3288 0c5.523.002 9.998 4.481 9.996 10.004-.002 5.523-4.48 9.998-10.004 9.996H3298c-5.523 0-10-4.477-10-10 0-5.43 4.327-9.848 9.72-9.996l1.323-.004zm3616.618-100.094c3.245 4.47 2.251 10.723-2.218 13.967l-.817.592c-4.476 3.236-10.727 2.232-13.963-2.244-3.237-4.475-2.232-10.727 2.243-13.963l.788-.57c4.47-3.245 10.723-2.252 13.967 2.218zm-647.537-3.81l.793.58c4.459 3.258 5.432 9.514 2.174 13.974-3.259 4.459-9.515 5.432-13.974 2.174l-.822-.602c-4.453-3.267-5.415-9.525-2.149-13.978 3.267-4.453 9.525-5.415 13.978-2.149zm1363.302-103.877c5.252 1.71 8.122 7.354 6.412 12.605l-.315.967c-1.716 5.25-7.362 8.114-12.612 6.4-5.25-1.716-8.115-7.362-6.4-12.612l.31-.949c1.71-5.251 7.354-8.121 12.605-6.411zm-2079.581 2.287l.306.953c1.695 5.256-1.193 10.89-6.45 12.585-5.257 1.694-10.891-1.194-12.585-6.45l-.313-.97c-1.689-5.259 1.204-10.89 6.462-12.58 5.259-1.69 10.89 1.204 12.58 6.462zm-1233.522-181.639l.962.313a10 10 0 1 1-5.916 19.103l-1.228-.395c-5.252-1.707-8.126-7.349-6.419-12.601 1.707-5.253 7.349-8.127 12.601-6.42zm6576 0l.962.313a10 10 0 1 1-5.916 19.103l-1.228-.395c-5.252-1.707-8.126-7.349-6.419-12.601 1.707-5.253 7.349-8.127 12.601-6.42zm-3288 0l.962.313a10 10 0 1 1-5.916 19.103l-1.228-.395c-5.252-1.707-8.126-7.349-6.419-12.601 1.707-5.253 7.349-8.127 12.601-6.42zm-5297.353.47c1.676 5.262-1.232 10.887-6.495 12.562l-.95.302c-5.261 1.678-10.887-1.229-12.564-6.49-1.677-5.263 1.23-10.888 6.491-12.565l.956-.304c5.262-1.676 10.887 1.232 12.562 6.495zm6576 0c1.676 5.262-1.232 10.887-6.495 12.562l-.95.302c-5.261 1.678-10.887-1.229-12.564-6.49-1.677-5.263 1.23-10.888 6.491-12.565l.956-.304c5.262-1.676 10.887 1.232 12.562 6.495zm-3288 0c1.676 5.262-1.232 10.887-6.495 12.562l-.95.302c-5.261 1.678-10.887-1.229-12.564-6.49-1.677-5.263 1.23-10.888 6.491-12.565l.956-.304c5.262-1.676 10.886 1.232 12.562 6.495zM9875.084 3288c5.523.002 9.998 4.48 9.997 10.003a9.958 9.958 0 0 1-1.087 4.535l.001 1.128c-.01 5.523-4.494 9.993-10.017 9.984-5.429-.01-9.84-4.344-9.98-9.737l-.001-1.355a10.03 10.03 0 0 1 .264-2.279A10.065 10.065 0 0 1 9864 3298c0-5.43 4.327-9.848 9.72-9.996l1.364-.004zm-549.082.485c5.429 0 9.847 4.328 9.994 9.722l.004 1.322c-.003 5.523-4.483 9.998-10.006 9.995-5.523-.003-9.997-4.483-9.994-10.006v-1.035c0-5.523 4.479-10 10.002-9.998zm-1096-.028c5.524.002 10 4.48 9.998 10.003v1.045c-.006 5.523-4.487 9.996-10.01 9.99-5.522-.004-9.996-4.485-9.99-10.008v-1.033c.001-5.522 4.48-9.998 10.003-9.997zm548-.07c5.429.002 9.847 4.33 9.994 9.723l.004 1.337c-.004 5.523-4.484 9.997-10.007 9.994-5.523-.004-9.997-4.484-9.993-10.007v-1.048c0-5.523 4.479-9.999 10.002-9.998zM6587.084 3288c5.523.002 9.998 4.48 9.997 10.003-.002 5.523-4.48 9.999-10.004 9.997H6586c-5.523 0-10-4.477-10-10 0-5.43 4.327-9.848 9.72-9.996l1.364-.004zm-3289.006-14.95c5.523.025 9.98 4.522 9.955 10.045l-.004 1.071a9.96 9.96 0 0 1-2.312 6.354 9.972 9.972 0 0 1 3.364 7.483c-.002 5.523-4.48 9.999-10.004 9.997H3298c-5.523 0-10-4.477-10-10a9.967 9.967 0 0 1 2.813-6.953 9.965 9.965 0 0 1-2.784-6.964l.004-1.077c.025-5.523 4.522-9.98 10.045-9.955zm1095.934 12.623c5.522.006 9.995 4.488 9.99 10.01l-.002 1.048c-.003 5.523-4.482 9.998-10.005 9.994-5.523-.003-9.998-4.482-9.995-10.005l.001-1.057c.006-5.523 4.488-9.995 10.01-9.99zm548.003 0c5.523.008 9.994 4.492 9.987 10.015l-.002 1.031c-.004 5.523-4.484 9.997-10.007 9.993-5.523-.005-9.997-4.485-9.993-10.008l.002-1.044c.007-5.523 4.49-9.994 10.013-9.986zm-1096.004-.304c5.522.005 9.995 4.486 9.99 10.01v1.034c-.004 5.522-4.483 9.997-10.006 9.994-5.523-.003-9.998-4.483-9.995-10.006l.001-1.042c.005-5.523 4.487-9.995 10.01-9.99zm3270.927-159.515l.313.969c1.692 5.257-1.197 10.89-6.454 12.583-5.258 1.693-10.891-1.197-12.584-6.454l-.302-.933c-1.702-5.254 1.177-10.893 6.431-12.596 5.254-1.702 10.893 1.177 12.596 6.431zm-1048.393-8.986c5.245 1.729 8.096 7.382 6.368 12.628l-.305.928c-1.719 5.249-7.367 8.11-12.616 6.391-5.248-1.719-8.11-7.367-6.39-12.615l.316-.963c1.728-5.246 7.381-8.097 12.627-6.369zm1569.817-160.078l.31.955c1.697 5.256-1.188 10.892-6.443 12.59-5.256 1.697-10.892-1.187-12.59-6.443l-.303-.937c-1.702-5.254 1.177-10.893 6.43-12.595 5.255-1.703 10.894 1.176 12.596 6.43zm-2090.736-10.57c5.247 1.723 8.104 7.373 6.38 12.62l-.31.945c-1.718 5.25-7.366 8.11-12.615 6.392-5.249-1.718-8.11-7.366-6.392-12.615l.316-.962c1.723-5.248 7.374-8.104 12.621-6.38zM6587.029 2740c5.523.01 9.992 4.496 9.982 10.019-.01 5.523-4.495 9.992-10.018 9.982L6586 2760c-5.523 0-10-4.477-10-10s4.477-10 10-10h1.03zm1431.743-268.913l.503.868c2.762 4.783 1.124 10.899-3.658 13.661-4.783 2.762-10.9 1.125-13.661-3.658l-.496-.858c-2.765-4.78-1.131-10.898 3.65-13.663 4.78-2.765 10.897-1.131 13.662 3.65zm-2850.543-5.927c4.776 2.773 6.4 8.892 3.627 13.669l-.505.87c-2.77 4.778-8.888 6.406-13.666 3.636-4.778-2.77-6.406-8.888-3.636-13.666l.51-.882c2.774-4.776 8.893-6.4 13.67-3.627zm3452.701-9.996l.497 1.189c2.112 5.102-.312 10.952-5.415 13.064s-10.952-.312-13.065-5.415l-.38-.918c-2.115-5.102.307-10.952 5.409-13.067 5.014-2.078 10.75.225 12.954 5.147zm-4055.878-7.59c5.099 2.12 7.514 7.974 5.393 13.073l-.375.902c-2.119 5.1-7.97 7.517-13.071 5.399-5.1-2.119-7.518-7.971-5.399-13.071l.378-.91c2.121-5.1 7.974-7.514 13.074-5.393zm4637.177.77l.31.956c1.703 5.254-1.176 10.893-6.43 12.596-5.163 1.674-10.698-1.077-12.504-6.16l-.4-1.218c-1.704-5.253 1.172-10.893 6.426-12.598 5.253-1.705 10.893 1.171 12.598 6.425zm-5218.89-9.371c5.252 1.71 8.122 7.354 6.411 12.606l-.308.947c-1.71 5.252-7.352 8.124-12.604 6.415-5.161-1.68-8.024-7.159-6.499-12.332l.395-1.226c1.71-5.251 7.355-8.121 12.606-6.41zm3253.059-35.618l.818.597c4.461 3.255 5.44 9.51 2.184 13.972-3.255 4.462-9.51 5.44-13.972 2.184l-.804-.585c-4.464-3.252-5.448-9.506-2.197-13.97 3.252-4.465 9.506-5.449 13.97-2.198zm-1283.285-.322c3.234 4.478 2.225 10.728-2.252 13.962l-.802.58c-4.474 3.237-10.726 2.235-13.964-2.24-3.237-4.474-2.235-10.726 2.24-13.963l.817-.59c4.477-3.234 10.728-2.226 13.961 2.251zm3771.484-120.841l.312.967c1.698 5.255-1.186 10.892-6.441 12.59-5.256 1.697-10.892-1.187-12.59-6.442l-.311-.96c-1.7-5.256 1.183-10.893 6.438-12.593 5.254-1.7 10.892 1.183 12.592 6.438zm-6258.455-25.057c5.154 1.702 7.994 7.193 6.447 12.36l-.397 1.217c-1.73 5.245-7.384 8.095-12.629 6.365-5.245-1.729-8.095-7.383-6.365-12.628l.314-.952c1.73-5.244 7.386-8.093 12.63-6.362zM6587.034 2192c5.523.006 9.996 4.487 9.991 10.01-.005 5.522-4.486 9.996-10.009 9.99H6586c-5.523 0-10-4.477-10-10s4.477-10 10-10h1.034zm826.217-326.577l.861.499c4.779 2.769 6.408 8.887 3.639 13.666-2.77 4.778-8.888 6.407-13.667 3.638l-.85-.493c-4.78-2.766-6.413-8.883-3.647-13.664 2.766-4.78 8.884-6.412 13.664-3.646zm-1638.49 2.31c2.758 4.784 1.116 10.899-3.67 13.657l-.856.495c-4.783 2.761-10.9 1.122-13.66-3.66-2.762-4.784-1.123-10.9 3.66-13.661l.868-.5c4.785-2.76 10.9-1.116 13.658 3.668zm2368.47-126.6l.693.694c3.903 3.907 3.9 10.239-.008 14.142-3.836 3.832-10.01 3.898-13.926.201l-.902-.896c-3.905-3.906-3.904-10.238.001-14.142 3.906-3.905 10.238-3.904 14.143.001zm-3098.387-1.916c3.83 3.839 3.893 10.012.194 13.927l-.896.9c-3.908 3.904-10.24 3.9-14.142-.009-3.832-3.836-3.898-10.01-.2-13.926l.902-.908c3.91-3.9 10.242-3.893 14.142.016zm3766.326-57.442l.575.79c3.247 4.467 2.259 10.72-2.208 13.968-4.387 3.19-10.498 2.294-13.792-1.971l-.747-1.02c-3.25-4.466-2.263-10.72 2.203-13.97 4.466-3.249 10.72-2.263 13.97 2.203zm-4434.555-4.676c4.382 3.196 5.405 9.288 2.357 13.731l-.762 1.054c-3.253 4.463-9.508 5.445-13.972 2.192-4.383-3.195-5.408-9.285-2.362-13.73l.767-1.06c3.254-4.462 9.51-5.441 13.972-2.187zM6587.045 1644c5.523.004 9.997 4.484 9.994 10.007-.003 5.522-4.483 9.997-10.006 9.993H6586c-5.523 0-10-4.477-10-10s4.477-10 10-10h1.045zm2668.909-282.414l.614.847c3.245 4.469 2.253 10.722-2.217 13.967-4.389 3.187-10.5 2.286-13.79-1.98l-.788-1.078c-3.246-4.468-2.255-10.722 2.213-13.968 4.468-3.246 10.722-2.256 13.968 2.212zm-5314.46-17.816c4.449 3.272 5.403 9.532 2.13 13.98l-.587.8c-3.271 4.45-9.53 5.406-13.98 2.135-4.371-3.213-5.371-9.308-2.307-13.74l.27-.374.493-.67c3.272-4.45 9.532-5.403 13.98-2.131zm3487.468-80.652l.911.378c5.1 2.118 7.519 7.97 5.4 13.07-2.08 5.013-7.769 7.435-12.805 5.506l-1.168-.48c-5.102-2.116-7.522-7.966-5.406-13.068 2.115-5.101 7.966-7.522 13.068-5.406zm-1670.387 4.397c2.073 5.017-.236 10.75-5.16 12.95l-1.18.491c-5.103 2.112-10.952-.313-13.064-5.416-2.111-5.103.314-10.952 5.417-13.064l.926-.383c5.104-2.11 10.951.318 13.06 5.422zM6587.058 1096c5.522.003 9.997 4.482 9.995 10.005-.003 5.523-4.482 9.998-10.005 9.995H6586c-5.523 0-10-4.477-10-10 0-5.43 4.327-9.848 9.72-9.996l1.338-.004zm1615.584-22.866l.822.598c4.464 3.252 5.447 9.506 2.195 13.97-3.252 4.465-9.507 5.447-13.97 2.196l-.816-.594c-4.466-3.25-5.45-9.505-2.2-13.97 3.25-4.466 9.504-5.45 13.97-2.2zm-3216.857.426a9.998 9.998 0 0 1-1.98 13.791l-1.018.746c-4.468 3.247-10.722 2.257-13.969-2.21-3.247-4.468-2.257-10.722 2.21-13.969l.79-.573c4.469-3.245 10.722-2.253 13.967 2.215zm2450.372-391.626l.956.31c5.252 1.708 8.125 7.35 6.417 12.603-1.678 5.161-7.156 8.025-12.33 6.501l-.43-.135-.79-.257c-5.253-1.706-8.128-7.347-6.422-12.6 1.705-5.253 7.346-8.128 12.6-6.422zm-1684.76 5.477c1.7 5.254-1.182 10.892-6.437 12.592l-.947.307c-5.254 1.701-10.893-1.178-12.595-6.433-1.701-5.254 1.178-10.893 6.433-12.594l.953-.31c5.255-1.699 10.893 1.183 12.593 6.438zm2774.408-56.892l1.045.756c4.462 3.253 5.443 9.509 2.189 13.971-3.195 4.383-9.286 5.407-13.73 2.36l-.374-.267-.666-.485c-4.464-3.252-5.446-9.507-2.194-13.971 3.194-4.384 9.285-5.41 13.73-2.364zm-3850.12-8.975c3.168 4.403 2.241 10.51-2.04 13.782l-1.074.78c-4.482 3.226-10.732 2.21-13.959-2.272-3.17-4.402-2.245-10.509 2.035-13.783l1.08-.783c4.482-3.226 10.732-2.207 13.957 2.276zM6587.042 548c5.523.002 9.998 4.481 9.996 10.004-.002 5.523-4.48 9.998-10.004 9.996H6586c-5.523 0-10-4.477-10-10 0-5.43 4.327-9.848 9.72-9.996l1.323-.004zm1019.28-387.133l.962.313a10 10 0 1 1-5.916 19.103l-1.228-.395c-5.252-1.707-8.126-7.349-6.419-12.601 1.707-5.253 7.349-8.127 12.601-6.42zm-2009.353.47c1.676 5.262-1.232 10.887-6.495 12.562l-.95.302c-5.261 1.678-10.887-1.229-12.564-6.49-1.677-5.263 1.23-10.888 6.491-12.565l.956-.304c5.262-1.676 10.886 1.232 12.562 6.495zM6587.084 0c5.523.002 9.998 4.48 9.997 10.003-.002 5.523-4.48 9.999-10.004 9.997H6586c-5.523 0-10-4.477-10-10s4.477-10 10-10h1.084z"/>
          </g>
          <path fill="#FF0000" fill-rule="nonzero" d="M8.768 304.636l78.448-65.978 27.218-22.647-14.116 38.563-.631 1.663c-21.782 57.805-21.53 108.753-3.049 143.111l.582 1.066.558.99.36.678a78.207 78.207 0 0 0 54.08 39.622l.72.134.668.117.665.155a83.515 83.515 0 0 0 69.71-15.499l.584-.458.823-.66.826-.704c15.157-13.076 27.069-33.103 34.905-58.024l.298-.956.36-1.176.349-1.17c.691-2.34 1.342-4.707 1.95-7.078l.44-1.747.524-2.157.46-1.985.435-1.952.22-1.02.4-1.916.201-.99.195-.987.366-1.914.429-2.367.393-2.315.156-.956.148-.941.27-1.783.136-.942.239-1.74.117-.9.112-.892.201-1.699.18-1.662.086-.854.081-.847.136-1.567.064-.821.06-.816.096-1.553.1-2.195.042-1.585.01-90.298L135.15 88.756l13.02-13.1 131.32 132.187 131.284-132.15 12.77 13.033-134.938 136.263.002 89.114.047 2.489c.014.39.03.79.05 1.197l.158 2.663.255 3.01.087.874.086.827.182 1.61.2 1.634.114.87.117.869.122.87.253 1.722.273 1.75.152.934.3 1.77.164.931.169.938.343 1.833.363 1.853.195.962.2.965.404 1.886.423 1.898.23 1.002.444 1.873a213.154 213.154 0 0 0 1.797 6.936l.482 1.707.612 2.09.296.978c8.189 26.854 21.056 48.344 37.588 61.933 19.796 16.047 45.66 22.174 70.383 16.81l.739-.163.687-.161.633-.11a78.209 78.209 0 0 0 54.477-39.106l.336-.614.335-.628.617-1.122c18.141-33.38 18.578-84.589-2.679-141.986l-.625-1.675-.57-1.5-14.107-38.536 105.592 88.461-12.07 14.268-46.396-38.965 3.478 44.265a165.755 165.755 0 0 1-15.408 83.082l-.432.906-.543 1.124-.473.957-.4.74a97.225 97.225 0 0 1-68.664 49.045 153.878 153.878 0 0 1-23.75 2.365 95.681 95.681 0 0 1-62.835-21.831l-.573-.476-.683-.58a129.834 129.834 0 0 1-25.436-30.582l-.544-.917-16.283-28.02-16.468 27.903a130.093 130.093 0 0 1-23.717 29.084l-.84.763-.962.86-.784.686c-17.412 14.815-39.547 22.898-62.301 22.803l-.72-.006-2.629-.041a153.832 153.832 0 0 1-21.85-2.03 96.932 96.932 0 0 1-67.799-48.245l-.437-.793-.333-.617c-13.09-26.356-18.824-55.28-16.988-84.036l.065-.971.089-1.205L67.388 280l-46.533 38.927-12.087-14.29z" filter="url(#seed2-d)" transform="rotate(67 -1682.085 9913.752)"/>
          <path fill="#FF0000" d="M294.556 309.51l7.943 12.199a417.576 417.576 0 0 0 90.959 103.843c36.403 28.986 76.879 52 120.15 68.376l-1.157-.44-6.373 17.65a461.465 461.465 0 0 1-123.63-69.966l-1.317-1.047a428.49 428.49 0 0 1-72.08-75.287 453.95 453.95 0 0 1-6.353-8.721l-8.164-11.487-8.147 11.5a427.8 427.8 0 0 1-78.487 84.059c-38.366 30.269-81.127 54.188-126.815 70.974l1.305-.482-6.378-17.666A446.054 446.054 0 0 0 194.24 426.18l1.34-1.06c34.465-28.086 64.087-61.295 87.945-98.52l.888-1.391 1.114-1.764 1.075-1.72 7.954-12.215zm-142.81-266.8l84.753 77.734-12.602 13.713-53.447-48.959v149.455h248.212V85.198l-53.448 48.959-12.601-13.713 84.752-77.734v210.67H151.746V42.71z" filter="url(#seed2-e)" transform="rotate(10 -28335.3 34401.81)"/>
        </g>
      </g>
    </g>
  </g>
</svg>
