<svg xmlns="http://www.w3.org/2000/svg" xmlns:xlink="http://www.w3.org/1999/xlink" width="3288" height="3288" viewBox="0 0 3288 3288">
  <defs>
    <path id="seed-a" d="M0 0h3288v3288H0z"/>
    <filter id="seed-b">
      <feColorMatrix in="SourceGraphic" values="0 0 0 0 1.000000 0 0 0 0 0.000000 0 0 0 0 0.000000 0 0 0 1.000000 0"/>
    </filter>
    <path id="seed-d" d="M3288 0v3288H0V0h3288zM1644.234 1370c-151.326 0-274 122.674-274 274s122.674 274 274 274 274-122.674 274-274-122.674-274-274-274z"/>
  </defs>
  <g fill="none" fill-rule="evenodd">
    <mask id="seed-c" fill="white">
      <use xlink:href="#seed-a"/>
    </mask>
    <g filter="url(#seed-b)">
      <g mask="url(#seed-c)">
        <mask id="seed-e" fill="white">
          <use xlink:href="#seed-d"/>
        </mask>
        <g stroke-linecap="round" mask="url(#seed-e)">
          <g transform="translate(-548 -548)">
            <g stroke="#979797" stroke-width="20" transform="translate(-1096 -1096)">
              <path stroke-dasharray="1 688" d="M3288 2740c151.326 0 288.326 61.337 387.495 160.505C3774.663 2999.674 3836 3136.674 3836 3288s-61.337 288.326-160.505 387.495C3576.326 3774.663 3439.326 3836 3288 3836s-288.326-61.337-387.495-160.505C2801.337 3576.326 2740 3439.326 2740 3288s61.337-288.326 160.505-387.495C2999.674 2801.337 3136.674 2740 3288 2740z"/>
              <path stroke-dasharray="1 688" d="M3288 2192c302.652 0 576.652 122.674 774.989 321.011C4261.326 2711.348 4384 2985.348 4384 3288c0 302.652-122.674 576.652-321.011 774.989C3864.652 4261.326 3590.652 4384 3288 4384c-302.652 0-576.652-122.674-774.989-321.011C2314.674 3864.652 2192 3590.652 2192 3288c0-302.652 122.674-576.652 321.011-774.989C2711.348 2314.674 2985.348 2192 3288 2192h0z"/>
              <path stroke-dasharray="1 860" d="M3288 1644c453.978 0 864.978 184.011 1162.484 481.516C4747.989 2423.022 4932 2834.022 4932 3288c0 453.978-184.011 864.978-481.516 1162.484C4152.978 4747.989 3741.978 4932 3288 4932c-453.978 0-864.978-184.011-1162.484-481.516C1828.011 4152.978 1644 3741.978 1644 3288c0-453.978 184.011-864.978 481.516-1162.484C2423.022 1828.011 2834.022 1644 3288 1644z"/>
              <path stroke-dasharray="1 860" d="M3288 1096c605.304 0 1153.304 245.348 1549.978 642.022C5234.652 2134.696 5480 2682.696 5480 3288c0 605.304-245.348 1153.304-642.022 1549.978C4441.304 5234.652 3893.304 5480 3288 5480c-605.304 0-1153.304-245.348-1549.978-642.022C1341.348 4441.304 1096 3893.304 1096 3288c0-605.304 245.348-1153.304 642.022-1549.978C2134.696 1341.348 2682.696 1096 3288 1096z"/>
              <path stroke-dasharray="1 860" d="M3288 548c756.63 0 1441.63 306.685 1937.473 802.527C5721.315 1846.37 6028 2531.37 6028 3288c0 756.63-306.685 1441.63-802.527 1937.473C4729.63 5721.315 4044.63 6028 3288 6028c-756.63 0-1441.63-306.685-1937.473-802.527C854.685 4729.63 548 4044.63 548 3288c0-756.63 306.685-1441.63 802.527-1937.473C1846.37 854.685 2531.37 548 3288 548z"/>
              <path stroke-dasharray="1 1033" d="M3288 0c907.956 0 1729.956 368.022 2324.967 963.033C6207.978 1558.043 6576 2380.043 6576 3288c0 907.956-368.022 1729.956-963.033 2324.967C5017.957 6207.978 4195.957 6576 3288 6576c-907.956 0-1729.956-368.022-2324.967-963.033C368.022 5017.957 0 4195.957 0 3288c0-907.956 368.022-1729.956 963.033-2324.967C1558.043 368.022 2380.043 0 3288 0z"/>
            </g>
            <g stroke="#979797" stroke-width="20" transform="translate(2192 -1096)">
              <path stroke-dasharray="1 688" d="M3288 2740c151.326 0 288.326 61.337 387.495 160.505C3774.663 2999.674 3836 3136.674 3836 3288s-61.337 288.326-160.505 387.495C3576.326 3774.663 3439.326 3836 3288 3836s-288.326-61.337-387.495-160.505C2801.337 3576.326 2740 3439.326 2740 3288s61.337-288.326 160.505-387.495C2999.674 2801.337 3136.674 2740 3288 2740z"/>
              <path stroke-dasharray="1 688" d="M3288 2192c302.652 0 576.652 122.674 774.989 321.011C4261.326 2711.348 4384 2985.348 4384 3288c0 302.652-122.674 576.652-321.011 774.989C3864.652 4261.326 3590.652 4384 3288 4384c-302.652 0-576.652-122.674-774.989-321.011C2314.674 3864.652 2192 3590.652 2192 3288c0-302.652 122.674-576.652 321.011-774.989C2711.348 2314.674 2985.348 2192 3288 2192h0z"/>
              <path stroke-dasharray="1 860" d="M3288 1644c453.978 0 864.978 184.011 1162.484 481.516C4747.989 2423.022 4932 2834.022 4932 3288c0 453.978-184.011 864.978-481.516 1162.484C4152.978 4747.989 3741.978 4932 3288 4932c-453.978 0-864.978-184.011-1162.484-481.516C1828.011 4152.978 1644 3741.978 1644 3288c0-453.978 184.011-864.978 481.516-1162.484C2423.022 1828.011 2834.022 1644 3288 1644z"/>
              <path stroke-dasharray="1 860" d="M3288 1096c605.304 0 1153.304 245.348 1549.978 642.022C5234.652 2134.696 5480 2682.696 5480 3288c0 605.304-245.348 1153.304-642.022 1549.978C4441.304 5234.652 3893.304 5480 3288 5480c-605.304 0-1153.304-245.348-1549.978-642.022C1341.348 4441.304 1096 3893.304 1096 3288c0-605.304 245.348-1153.304 642.022-1549.978C2134.696 1341.348 2682.696 1096 3288 1096z"/>
              <path stroke-dasharray="1 860" d="M3288 548c756.63 0 1441.63 306.685 1937.473 802.527C5721.315 1846.37 6028 2531.37 6028 3288c0 756.63-306.685 1441.63-802.527 1937.473C4729.63 5721.315 4044.63 6028 3288 6028c-756.63 0-1441.63-306.685-1937.473-802.527C854.685 4729.63 548 4044.63 548 3288c0-756.63 306.685-1441.63 802.527-1937.473C1846.37 854.685 2531.37 548 3288 548z"/>
              <path stroke-dasharray="1 1033" d="M3288 0c907.956 0 1729.956 368.022 2324.967 963.033C6207.978 1558.043 6576 2380.043 6576 3288c0 907.956-368.022 1729.956-963.033 2324.967C5017.957 6207.978 4195.957 6576 3288 6576c-907.956 0-1729.956-368.022-2324.967-963.033C368.022 5017.957 0 4195.957 0 3288c0-907.956 368.022-1729.956 963.033-2324.967C1558.043 368.022 2380.043 0 3288 0z"/>
            </g>
            <g stroke="#979797" stroke-width="20" transform="translate(-4384 -1096)">
              <path stroke-dasharray="1 688" d="M3288 2740c151.326 0 288.326 61.337 387.495 160.505C3774.663 2999.674 3836 3136.674 3836 3288s-61.337 288.326-160.505 387.495C3576.326 3774.663 3439.326 3836 3288 3836s-288.326-61.337-387.495-160.505C2801.337 3576.326 2740 3439.326 2740 3288s61.337-288.326 160.505-387.495C2999.674 2801.337 3136.674 2740 3288 2740z"/>
              <path stroke-dasharray="1 688" d="M3288 2192c302.652 0 576.652 122.674 774.989 321.011C4261.326 2711.348 4384 2985.348 4384 3288c0 302.652-122.674 576.652-321.011 774.989C3864.652 4261.326 3590.652 4384 3288 4384c-302.652 0-576.652-122.674-774.989-321.011C2314.674 3864.652 2192 3590.652 2192 3288c0-302.652 122.674-576.652 321.011-774.989C2711.348 2314.674 2985.348 2192 3288 2192h0z"/>
              <path stroke-dasharray="1 860" d="M3288 1644c453.978 0 864.978 184.011 1162.484 481.516C4747.989 2423.022 4932 2834.022 4932 3288c0 453.978-184.011 864.978-481.516 1162.484C4152.978 4747.989 3741.978 4932 3288 4932c-453.978 0-864.978-184.011-1162.484-481.516C1828.011 4152.978 1644 3741.978 1644 3288c0-453.978 184.011-864.978 481.516-1162.484C2423.022 1828.011 2834.022 1644 3288 1644z"/>
              <path stroke-dasharray="1 860" d="M3288 1096c605.304 0 1153.304 245.348 1549.978 642.022C5234.652 2134.696 5480 2682.696 5480 3288c0 605.304-245.348 1153.304-642.022 1549.978C4441.304 5234.652 3893.304 5480 3288 5480c-605.304 0-1153.304-245.348-1549.978-642.022C1341.348 4441.304 1096 3893.304 1096 3288c0-605.304 245.348-1153.304 642.022-1549.978C2134.696 1341.348 2682.696 1096 3288 1096z"/>
              <path stroke-dasharray="1 860" d="M3288 548c756.63 0 1441.63 306.685 1937.473 802.527C5721.315 1846.37 6028 2531.37 6028 3288c0 756.63-306.685 1441.63-802.527 1937.473C4729.63 5721.315 4044.63 6028 3288 6028c-756.63 0-1441.63-306.685-1937.473-802.527C854.685 4729.63 548 4044.63 548 3288c0-756.63 306.685-1441.63 802.527-1937.473C1846.37 854.685 2531.37 548 3288 548z"/>
              <path stroke-dasharray="1 1033" d="M3288 0c907.956 0 1729.956 368.022 2324.967 963.033C6207.978 1558.043 6576 2380.043 6576 3288c0 907.956-368.022 1729.956-963.033 2324.967C5017.957 6207.978 4195.957 6576 3288 6576c-907.956 0-1729.956-368.022-2324.967-963.033C368.022 5017.957 0 4195.957 0 3288c0-907.956 368.022-1729.956 963.033-2324.967C1558.043 368.022 2380.043 0 3288 0z"/>
            </g>
            <g stroke="#979797" stroke-width="20" transform="translate(-1096 2192)">
              <path stroke-dasharray="1 688" d="M3288 2740c151.326 0 288.326 61.337 387.495 160.505C3774.663 2999.674 3836 3136.674 3836 3288s-61.337 288.326-160.505 387.495C3576.326 3774.663 3439.326 3836 3288 3836s-288.326-61.337-387.495-160.505C2801.337 3576.326 2740 3439.326 2740 3288s61.337-288.326 160.505-387.495C2999.674 2801.337 3136.674 2740 3288 2740z"/>
              <path stroke-dasharray="1 688" d="M3288 2192c302.652 0 576.652 122.674 774.989 321.011C4261.326 2711.348 4384 2985.348 4384 3288c0 302.652-122.674 576.652-321.011 774.989C3864.652 4261.326 3590.652 4384 3288 4384c-302.652 0-576.652-122.674-774.989-321.011C2314.674 3864.652 2192 3590.652 2192 3288c0-302.652 122.674-576.652 321.011-774.989C2711.348 2314.674 2985.348 2192 3288 2192h0z"/>
              <path stroke-dasharray="1 860" d="M3288 1644c453.978 0 864.978 184.011 1162.484 481.516C4747.989 2423.022 4932 2834.022 4932 3288c0 453.978-184.011 864.978-481.516 1162.484C4152.978 4747.989 3741.978 4932 3288 4932c-453.978 0-864.978-184.011-1162.484-481.516C1828.011 4152.978 1644 3741.978 1644 3288c0-453.978 184.011-864.978 481.516-1162.484C2423.022 1828.011 2834.022 1644 3288 1644z"/>
              <path stroke-dasharray="1 860" d="M3288 1096c605.304 0 1153.304 245.348 1549.978 642.022C5234.652 2134.696 5480 2682.696 5480 3288c0 605.304-245.348 1153.304-642.022 1549.978C4441.304 5234.652 3893.304 5480 3288 5480c-605.304 0-1153.304-245.348-1549.978-642.022C1341.348 4441.304 1096 3893.304 1096 3288c0-605.304 245.348-1153.304 642.022-1549.978C2134.696 1341.348 2682.696 1096 3288 1096z"/>
              <path stroke-dasharray="1 860" d="M3288 548c756.63 0 1441.63 306.685 1937.473 802.527C5721.315 1846.37 6028 2531.37 6028 3288c0 756.63-306.685 1441.63-802.527 1937.473C4729.63 5721.315 4044.63 6028 3288 6028c-756.63 0-1441.63-306.685-1937.473-802.527C854.685 4729.63 548 4044.63 548 3288c0-756.63 306.685-1441.63 802.527-1937.473C1846.37 854.685 2531.37 548 3288 548z"/>
              <path stroke-dasharray="1 1033" d="M3288 0c907.956 0 1729.956 368.022 2324.967 963.033C6207.978 1558.043 6576 2380.043 6576 3288c0 907.956-368.022 1729.956-963.033 2324.967C5017.957 6207.978 4195.957 6576 3288 6576c-907.956 0-1729.956-368.022-2324.967-963.033C368.022 5017.957 0 4195.957 0 3288c0-907.956 368.022-1729.956 963.033-2324.967C1558.043 368.022 2380.043 0 3288 0z"/>
            </g>
            <g stroke="#979797" stroke-width="20" transform="translate(-1096 -4384)">
              <path stroke-dasharray="1 688" d="M3288 2740c151.326 0 288.326 61.337 387.495 160.505C3774.663 2999.674 3836 3136.674 3836 3288s-61.337 288.326-160.505 387.495C3576.326 3774.663 3439.326 3836 3288 3836s-288.326-61.337-387.495-160.505C2801.337 3576.326 2740 3439.326 2740 3288s61.337-288.326 160.505-387.495C2999.674 2801.337 3136.674 2740 3288 2740z"/>
              <path stroke-dasharray="1 688" d="M3288 2192c302.652 0 576.652 122.674 774.989 321.011C4261.326 2711.348 4384 2985.348 4384 3288c0 302.652-122.674 576.652-321.011 774.989C3864.652 4261.326 3590.652 4384 3288 4384c-302.652 0-576.652-122.674-774.989-321.011C2314.674 3864.652 2192 3590.652 2192 3288c0-302.652 122.674-576.652 321.011-774.989C2711.348 2314.674 2985.348 2192 3288 2192h0z"/>
              <path stroke-dasharray="1 860" d="M3288 1644c453.978 0 864.978 184.011 1162.484 481.516C4747.989 2423.022 4932 2834.022 4932 3288c0 453.978-184.011 864.978-481.516 1162.484C4152.978 4747.989 3741.978 4932 3288 4932c-453.978 0-864.978-184.011-1162.484-481.516C1828.011 4152.978 1644 3741.978 1644 3288c0-453.978 184.011-864.978 481.516-1162.484C2423.022 1828.011 2834.022 1644 3288 1644z"/>
              <path stroke-dasharray="1 860" d="M3288 1096c605.304 0 1153.304 245.348 1549.978 642.022C5234.652 2134.696 5480 2682.696 5480 3288c0 605.304-245.348 1153.304-642.022 1549.978C4441.304 5234.652 3893.304 5480 3288 5480c-605.304 0-1153.304-245.348-1549.978-642.022C1341.348 4441.304 1096 3893.304 1096 3288c0-605.304 245.348-1153.304 642.022-1549.978C2134.696 1341.348 2682.696 1096 3288 1096z"/>
              <path stroke-dasharray="1 860" d="M3288 548c756.63 0 1441.63 306.685 1937.473 802.527C5721.315 1846.37 6028 2531.37 6028 3288c0 756.63-306.685 1441.63-802.527 1937.473C4729.63 5721.315 4044.63 6028 3288 6028c-756.63 0-1441.63-306.685-1937.473-802.527C854.685 4729.63 548 4044.63 548 3288c0-756.63 306.685-1441.63 802.527-1937.473C1846.37 854.685 2531.37 548 3288 548z"/>
              <path stroke-dasharray="1 1033" d="M3288 0c907.956 0 1729.956 368.022 2324.967 963.033C6207.978 1558.043 6576 2380.043 6576 3288c0 907.956-368.022 1729.956-963.033 2324.967C5017.957 6207.978 4195.957 6576 3288 6576c-907.956 0-1729.956-368.022-2324.967-963.033C368.022 5017.957 0 4195.957 0 3288c0-907.956 368.022-1729.956 963.033-2324.967C1558.043 368.022 2380.043 0 3288 0z"/>
            </g>
          </g>
        </g>
      </g>
    </g>
  </g>
</svg>
