<svg height="4932" viewBox="0 0 4932 4932" width="4932" xmlns="http://www.w3.org/2000/svg" xmlns:xlink="http://www.w3.org/1999/xlink"><filter id="a"><feColorMatrix in="SourceGraphic" type="matrix" values="0 0 0 0 1.000000 0 0 0 0 0.000000 0 0 0 0 0.000000 0 0 0 1.000000 0"/></filter><mask id="b" fill="#fff"><path d="m4932.73363 0v4932h-4932.00000156v-4932zm-2465.64956 2055c-226.98903 0-411 184.01097-411 411s184.01097 411 411 411 411-184.01097 411-411-184.01097-411-411-411z" fill="#fff" fill-rule="evenodd"/></mask><g fill="none" fill-rule="evenodd"><path d="m0 0h3288v3288h-3288z"/><g filter="url(#a)"><g mask="url(#b)" stroke-linecap="round" transform="translate(-.733628)"><g stroke="#979797" stroke-width="20" transform="translate(-4109.266372 -4110)"><g transform="translate(3288 3288)"><path d="m3288 2740c151.32602 0 288.32602 61.33699 387.49452 160.50548 99.16849 99.1685 160.50548 236.1685 160.50548 387.49452s-61.33699 288.32602-160.50548 387.49452c-99.1685 99.16849-236.1685 160.50548-387.49452 160.50548s-288.32602-61.33699-387.49452-160.50548c-99.16849-99.1685-160.50548-236.1685-160.50548-387.49452s61.33699-288.32602 160.50548-387.49452c99.1685-99.16849 236.1685-160.50548 387.49452-160.50548z" stroke-dasharray="1 688"/><path d="m3288 2192c302.65204 0 576.65204 122.67398 774.98903 321.01097s321.01097 472.33699 321.01097 774.98903-122.67398 576.65204-321.01097 774.98903-472.33699 321.01097-774.98903 321.01097-576.65204-122.67398-774.98903-321.01097-321.01097-472.33699-321.01097-774.98903 122.67398-576.65204 321.01097-774.98903 472.33699-321.01097 774.98903-321.01097z" stroke-dasharray="1 688"/><g stroke-dasharray="1 860"><path d="m3288 1644c453.97806 0 864.97806 184.01097 1162.48355 481.51645 297.50548 297.50549 481.51645 708.50549 481.51645 1162.48355s-184.01097 864.97806-481.51645 1162.48355c-297.50549 297.50548-708.50549 481.51645-1162.48355 481.51645s-864.97806-184.01097-1162.48355-481.51645c-297.50548-297.50549-481.51645-708.50549-481.51645-1162.48355s184.01097-864.97806 481.51645-1162.48355c297.50549-297.50548 708.50549-481.51645 1162.48355-481.51645z"/><path d="m3288 1096c605.30409 0 1153.30409 245.34796 1549.97806 642.02194 396.67398 396.67397 642.02194 944.67397 642.02194 1549.97806s-245.34796 1153.30409-642.02194 1549.97806c-396.67397 396.67398-944.67397 642.02194-1549.97806 642.02194s-1153.30409-245.34796-1549.97806-642.02194c-396.67398-396.67397-642.02194-944.67397-642.02194-1549.97806s245.34796-1153.30409 642.02194-1549.97806c396.67397-396.67398 944.67397-642.02194 1549.97806-642.02194z"/><path d="m3288 548c756.63011 0 1441.63011 306.684946 1937.47258 802.52742 495.84247 495.84247 802.52742 1180.84247 802.52742 1937.47258s-306.68495 1441.63011-802.52742 1937.47258-1180.84247 802.52742-1937.47258 802.52742-1441.63011-306.68495-1937.47258-802.52742c-495.842474-495.84247-802.52742-1180.84247-802.52742-1937.47258s306.684946-1441.63011 802.52742-1937.47258c495.84247-495.842474 1180.84247-802.52742 1937.47258-802.52742z"/></g><path d="m3288 0c907.95613 0 1729.95613 368.021936 2324.9671 963.032903 595.01096 595.010967 963.0329 1417.010967 963.0329 2324.967097s-368.02194 1729.95613-963.0329 2324.9671c-595.01097 595.01096-1417.01097 963.0329-2324.9671 963.0329s-1729.95613-368.02194-2324.967097-963.0329c-595.010967-595.01097-963.032903-1417.01097-963.032903-2324.9671s368.021936-1729.95613 963.032903-2324.967097 1417.010967-963.032903 2324.967097-963.032903z" stroke-dasharray="1 1033"/></g><g transform="translate(6576 3288)"><path d="m3288 2740c151.32602 0 288.32602 61.33699 387.49452 160.50548 99.16849 99.1685 160.50548 236.1685 160.50548 387.49452s-61.33699 288.32602-160.50548 387.49452c-99.1685 99.16849-236.1685 160.50548-387.49452 160.50548s-288.32602-61.33699-387.49452-160.50548c-99.16849-99.1685-160.50548-236.1685-160.50548-387.49452s61.33699-288.32602 160.50548-387.49452c99.1685-99.16849 236.1685-160.50548 387.49452-160.50548z" stroke-dasharray="1 688"/><path d="m3288 2192c302.65204 0 576.65204 122.67398 774.98903 321.01097s321.01097 472.33699 321.01097 774.98903-122.67398 576.65204-321.01097 774.98903-472.33699 321.01097-774.98903 321.01097-576.65204-122.67398-774.98903-321.01097-321.01097-472.33699-321.01097-774.98903 122.67398-576.65204 321.01097-774.98903 472.33699-321.01097 774.98903-321.01097z" stroke-dasharray="1 688"/><g stroke-dasharray="1 860"><path d="m3288 1644c453.97806 0 864.97806 184.01097 1162.48355 481.51645 297.50548 297.50549 481.51645 708.50549 481.51645 1162.48355s-184.01097 864.97806-481.51645 1162.48355c-297.50549 297.50548-708.50549 481.51645-1162.48355 481.51645s-864.97806-184.01097-1162.48355-481.51645c-297.50548-297.50549-481.51645-708.50549-481.51645-1162.48355s184.01097-864.97806 481.51645-1162.48355c297.50549-297.50548 708.50549-481.51645 1162.48355-481.51645z"/><path d="m3288 1096c605.30409 0 1153.30409 245.34796 1549.97806 642.02194 396.67398 396.67397 642.02194 944.67397 642.02194 1549.97806s-245.34796 1153.30409-642.02194 1549.97806c-396.67397 396.67398-944.67397 642.02194-1549.97806 642.02194s-1153.30409-245.34796-1549.97806-642.02194c-396.67398-396.67397-642.02194-944.67397-642.02194-1549.97806s245.34796-1153.30409 642.02194-1549.97806c396.67397-396.67398 944.67397-642.02194 1549.97806-642.02194z"/><path d="m3288 548c756.63011 0 1441.63011 306.684946 1937.47258 802.52742 495.84247 495.84247 802.52742 1180.84247 802.52742 1937.47258s-306.68495 1441.63011-802.52742 1937.47258-1180.84247 802.52742-1937.47258 802.52742-1441.63011-306.68495-1937.47258-802.52742c-495.842474-495.84247-802.52742-1180.84247-802.52742-1937.47258s306.684946-1441.63011 802.52742-1937.47258c495.84247-495.842474 1180.84247-802.52742 1937.47258-802.52742z"/></g><path d="m3288 0c907.95613 0 1729.95613 368.021936 2324.9671 963.032903 595.01096 595.010967 963.0329 1417.010967 963.0329 2324.967097s-368.02194 1729.95613-963.0329 2324.9671c-595.01097 595.01096-1417.01097 963.0329-2324.9671 963.0329s-1729.95613-368.02194-2324.967097-963.0329c-595.010967-595.01097-963.032903-1417.01097-963.032903-2324.9671s368.021936-1729.95613 963.032903-2324.967097 1417.010967-963.032903 2324.967097-963.032903z" stroke-dasharray="1 1033"/></g><g transform="translate(0 3288)"><path d="m3288 2740c151.32602 0 288.32602 61.33699 387.49452 160.50548 99.16849 99.1685 160.50548 236.1685 160.50548 387.49452s-61.33699 288.32602-160.50548 387.49452c-99.1685 99.16849-236.1685 160.50548-387.49452 160.50548s-288.32602-61.33699-387.49452-160.50548c-99.16849-99.1685-160.50548-236.1685-160.50548-387.49452s61.33699-288.32602 160.50548-387.49452c99.1685-99.16849 236.1685-160.50548 387.49452-160.50548z" stroke-dasharray="1 688"/><path d="m3288 2192c302.65204 0 576.65204 122.67398 774.98903 321.01097s321.01097 472.33699 321.01097 774.98903-122.67398 576.65204-321.01097 774.98903-472.33699 321.01097-774.98903 321.01097-576.65204-122.67398-774.98903-321.01097-321.01097-472.33699-321.01097-774.98903 122.67398-576.65204 321.01097-774.98903 472.33699-321.01097 774.98903-321.01097z" stroke-dasharray="1 688"/><g stroke-dasharray="1 860"><path d="m3288 1644c453.97806 0 864.97806 184.01097 1162.48355 481.51645 297.50548 297.50549 481.51645 708.50549 481.51645 1162.48355s-184.01097 864.97806-481.51645 1162.48355c-297.50549 297.50548-708.50549 481.51645-1162.48355 481.51645s-864.97806-184.01097-1162.48355-481.51645c-297.50548-297.50549-481.51645-708.50549-481.51645-1162.48355s184.01097-864.97806 481.51645-1162.48355c297.50549-297.50548 708.50549-481.51645 1162.48355-481.51645z"/><path d="m3288 1096c605.30409 0 1153.30409 245.34796 1549.97806 642.02194 396.67398 396.67397 642.02194 944.67397 642.02194 1549.97806s-245.34796 1153.30409-642.02194 1549.97806c-396.67397 396.67398-944.67397 642.02194-1549.97806 642.02194s-1153.30409-245.34796-1549.97806-642.02194c-396.67398-396.67397-642.02194-944.67397-642.02194-1549.97806s245.34796-1153.30409 642.02194-1549.97806c396.67397-396.67398 944.67397-642.02194 1549.97806-642.02194z"/><path d="m3288 548c756.63011 0 1441.63011 306.684946 1937.47258 802.52742 495.84247 495.84247 802.52742 1180.84247 802.52742 1937.47258s-306.68495 1441.63011-802.52742 1937.47258-1180.84247 802.52742-1937.47258 802.52742-1441.63011-306.68495-1937.47258-802.52742c-495.842474-495.84247-802.52742-1180.84247-802.52742-1937.47258s306.684946-1441.63011 802.52742-1937.47258c495.84247-495.842474 1180.84247-802.52742 1937.47258-802.52742z"/></g><path d="m3288 0c907.95613 0 1729.95613 368.021936 2324.9671 963.032903 595.01096 595.010967 963.0329 1417.010967 963.0329 2324.967097s-368.02194 1729.95613-963.0329 2324.9671c-595.01097 595.01096-1417.01097 963.0329-2324.9671 963.0329s-1729.95613-368.02194-2324.967097-963.0329c-595.010967-595.01097-963.032903-1417.01097-963.032903-2324.9671s368.021936-1729.95613 963.032903-2324.967097 1417.010967-963.032903 2324.967097-963.032903z" stroke-dasharray="1 1033"/></g><g transform="translate(3288 6576)"><path d="m3288 2740c151.32602 0 288.32602 61.33699 387.49452 160.50548 99.16849 99.1685 160.50548 236.1685 160.50548 387.49452s-61.33699 288.32602-160.50548 387.49452c-99.1685 99.16849-236.1685 160.50548-387.49452 160.50548s-288.32602-61.33699-387.49452-160.50548c-99.16849-99.1685-160.50548-236.1685-160.50548-387.49452s61.33699-288.32602 160.50548-387.49452c99.1685-99.16849 236.1685-160.50548 387.49452-160.50548z" stroke-dasharray="1 688"/><path d="m3288 2192c302.65204 0 576.65204 122.67398 774.98903 321.01097s321.01097 472.33699 321.01097 774.98903-122.67398 576.65204-321.01097 774.98903-472.33699 321.01097-774.98903 321.01097-576.65204-122.67398-774.98903-321.01097-321.01097-472.33699-321.01097-774.98903 122.67398-576.65204 321.01097-774.98903 472.33699-321.01097 774.98903-321.01097z" stroke-dasharray="1 688"/><g stroke-dasharray="1 860"><path d="m3288 1644c453.97806 0 864.97806 184.01097 1162.48355 481.51645 297.50548 297.50549 481.51645 708.50549 481.51645 1162.48355s-184.01097 864.97806-481.51645 1162.48355c-297.50549 297.50548-708.50549 481.51645-1162.48355 481.51645s-864.97806-184.01097-1162.48355-481.51645c-297.50548-297.50549-481.51645-708.50549-481.51645-1162.48355s184.01097-864.97806 481.51645-1162.48355c297.50549-297.50548 708.50549-481.51645 1162.48355-481.51645z"/><path d="m3288 1096c605.30409 0 1153.30409 245.34796 1549.97806 642.02194 396.67398 396.67397 642.02194 944.67397 642.02194 1549.97806s-245.34796 1153.30409-642.02194 1549.97806c-396.67397 396.67398-944.67397 642.02194-1549.97806 642.02194s-1153.30409-245.34796-1549.97806-642.02194c-396.67398-396.67397-642.02194-944.67397-642.02194-1549.97806s245.34796-1153.30409 642.02194-1549.97806c396.67397-396.67398 944.67397-642.02194 1549.97806-642.02194z"/><path d="m3288 548c756.63011 0 1441.63011 306.684946 1937.47258 802.52742 495.84247 495.84247 802.52742 1180.84247 802.52742 1937.47258s-306.68495 1441.63011-802.52742 1937.47258-1180.84247 802.52742-1937.47258 802.52742-1441.63011-306.68495-1937.47258-802.52742c-495.842474-495.84247-802.52742-1180.84247-802.52742-1937.47258s306.684946-1441.63011 802.52742-1937.47258c495.84247-495.842474 1180.84247-802.52742 1937.47258-802.52742z"/></g><path d="m3288 0c907.95613 0 1729.95613 368.021936 2324.9671 963.032903 595.01096 595.010967 963.0329 1417.010967 963.0329 2324.967097s-368.02194 1729.95613-963.0329 2324.9671c-595.01097 595.01096-1417.01097 963.0329-2324.9671 963.0329s-1729.95613-368.02194-2324.967097-963.0329c-595.010967-595.01097-963.032903-1417.01097-963.032903-2324.9671s368.021936-1729.95613 963.032903-2324.967097 1417.010967-963.032903 2324.967097-963.032903z" stroke-dasharray="1 1033"/></g><g transform="translate(3288)"><path d="m3288 2740c151.32602 0 288.32602 61.33699 387.49452 160.50548 99.16849 99.1685 160.50548 236.1685 160.50548 387.49452s-61.33699 288.32602-160.50548 387.49452c-99.1685 99.16849-236.1685 160.50548-387.49452 160.50548s-288.32602-61.33699-387.49452-160.50548c-99.16849-99.1685-160.50548-236.1685-160.50548-387.49452s61.33699-288.32602 160.50548-387.49452c99.1685-99.16849 236.1685-160.50548 387.49452-160.50548z" stroke-dasharray="1 688"/><path d="m3288 2192c302.65204 0 576.65204 122.67398 774.98903 321.01097s321.01097 472.33699 321.01097 774.98903-122.67398 576.65204-321.01097 774.98903-472.33699 321.01097-774.98903 321.01097-576.65204-122.67398-774.98903-321.01097-321.01097-472.33699-321.01097-774.98903 122.67398-576.65204 321.01097-774.98903 472.33699-321.01097 774.98903-321.01097z" stroke-dasharray="1 688"/><g stroke-dasharray="1 860"><path d="m3288 1644c453.97806 0 864.97806 184.01097 1162.48355 481.51645 297.50548 297.50549 481.51645 708.50549 481.51645 1162.48355s-184.01097 864.97806-481.51645 1162.48355c-297.50549 297.50548-708.50549 481.51645-1162.48355 481.51645s-864.97806-184.01097-1162.48355-481.51645c-297.50548-297.50549-481.51645-708.50549-481.51645-1162.48355s184.01097-864.97806 481.51645-1162.48355c297.50549-297.50548 708.50549-481.51645 1162.48355-481.51645z"/><path d="m3288 1096c605.30409 0 1153.30409 245.34796 1549.97806 642.02194 396.67398 396.67397 642.02194 944.67397 642.02194 1549.97806s-245.34796 1153.30409-642.02194 1549.97806c-396.67397 396.67398-944.67397 642.02194-1549.97806 642.02194s-1153.30409-245.34796-1549.97806-642.02194c-396.67398-396.67397-642.02194-944.67397-642.02194-1549.97806s245.34796-1153.30409 642.02194-1549.97806c396.67397-396.67398 944.67397-642.02194 1549.97806-642.02194z"/><path d="m3288 548c756.63011 0 1441.63011 306.684946 1937.47258 802.52742 495.84247 495.84247 802.52742 1180.84247 802.52742 1937.47258s-306.68495 1441.63011-802.52742 1937.47258-1180.84247 802.52742-1937.47258 802.52742-1441.63011-306.68495-1937.47258-802.52742c-495.842474-495.84247-802.52742-1180.84247-802.52742-1937.47258s306.684946-1441.63011 802.52742-1937.47258c495.84247-495.842474 1180.84247-802.52742 1937.47258-802.52742z"/></g><path d="m3288 0c907.95613 0 1729.95613 368.021936 2324.9671 963.032903 595.01096 595.010967 963.0329 1417.010967 963.0329 2324.967097s-368.02194 1729.95613-963.0329 2324.9671c-595.01097 595.01096-1417.01097 963.0329-2324.9671 963.0329s-1729.95613-368.02194-2324.967097-963.0329c-595.010967-595.01097-963.032903-1417.01097-963.032903-2324.9671s368.021936-1729.95613 963.032903-2324.967097 1417.010967-963.032903 2324.967097-963.032903z" stroke-dasharray="1 1033"/></g></g></g></g></g></svg>